G04 #@! TF.GenerationSoftware,KiCad,Pcbnew,5.1.5+dfsg1-2build2*
G04 #@! TF.CreationDate,2022-12-10T10:35:03-05:00*
G04 #@! TF.ProjectId,double-tuned-bpf,646f7562-6c65-42d7-9475-6e65642d6270,rev?*
G04 #@! TF.SameCoordinates,Original*
G04 #@! TF.FileFunction,Copper,L1,Top*
G04 #@! TF.FilePolarity,Positive*
%FSLAX46Y46*%
G04 Gerber Fmt 4.6, Leading zero omitted, Abs format (unit mm)*
G04 Created by KiCad (PCBNEW 5.1.5+dfsg1-2build2) date 2022-12-10 10:35:03*
%MOMM*%
%LPD*%
G04 APERTURE LIST*
%ADD10O,1.700000X1.700000*%
%ADD11R,1.700000X1.700000*%
%ADD12C,0.100000*%
%ADD13R,2.540000X2.540000*%
%ADD14C,2.540000*%
%ADD15C,1.778000*%
%ADD16C,0.500000*%
%ADD17C,0.254000*%
G04 APERTURE END LIST*
D10*
X145500000Y-99980000D03*
X145500000Y-97440000D03*
D11*
X145500000Y-94900000D03*
G04 #@! TA.AperFunction,SMDPad,CuDef*
D12*
G36*
X149189386Y-99150545D02*
G01*
X149223362Y-99155585D01*
X149256680Y-99163931D01*
X149289019Y-99175502D01*
X149320069Y-99190188D01*
X149349530Y-99207846D01*
X149377118Y-99228306D01*
X149402567Y-99251373D01*
X149425634Y-99276822D01*
X149446094Y-99304410D01*
X149463752Y-99333871D01*
X149478438Y-99364921D01*
X149490009Y-99397260D01*
X149498355Y-99430578D01*
X149503395Y-99464554D01*
X149505080Y-99498860D01*
X149505080Y-100198860D01*
X149503395Y-100233166D01*
X149498355Y-100267142D01*
X149490009Y-100300460D01*
X149478438Y-100332799D01*
X149463752Y-100363849D01*
X149446094Y-100393310D01*
X149425634Y-100420898D01*
X149402567Y-100446347D01*
X149377118Y-100469414D01*
X149349530Y-100489874D01*
X149320069Y-100507532D01*
X149289019Y-100522218D01*
X149256680Y-100533789D01*
X149223362Y-100542135D01*
X149189386Y-100547175D01*
X149155080Y-100548860D01*
X144855080Y-100548860D01*
X144820774Y-100547175D01*
X144786798Y-100542135D01*
X144753480Y-100533789D01*
X144721141Y-100522218D01*
X144690091Y-100507532D01*
X144660630Y-100489874D01*
X144633042Y-100469414D01*
X144607593Y-100446347D01*
X144584526Y-100420898D01*
X144564066Y-100393310D01*
X144546408Y-100363849D01*
X144531722Y-100332799D01*
X144520151Y-100300460D01*
X144511805Y-100267142D01*
X144506765Y-100233166D01*
X144505080Y-100198860D01*
X144505080Y-99498860D01*
X144506765Y-99464554D01*
X144511805Y-99430578D01*
X144520151Y-99397260D01*
X144531722Y-99364921D01*
X144546408Y-99333871D01*
X144564066Y-99304410D01*
X144584526Y-99276822D01*
X144607593Y-99251373D01*
X144633042Y-99228306D01*
X144660630Y-99207846D01*
X144690091Y-99190188D01*
X144721141Y-99175502D01*
X144753480Y-99163931D01*
X144786798Y-99155585D01*
X144820774Y-99150545D01*
X144855080Y-99148860D01*
X149155080Y-99148860D01*
X149189386Y-99150545D01*
G37*
G04 #@! TD.AperFunction*
G04 #@! TA.AperFunction,SMDPad,CuDef*
G36*
X149171606Y-94309305D02*
G01*
X149205582Y-94314345D01*
X149238900Y-94322691D01*
X149271239Y-94334262D01*
X149302289Y-94348948D01*
X149331750Y-94366606D01*
X149359338Y-94387066D01*
X149384787Y-94410133D01*
X149407854Y-94435582D01*
X149428314Y-94463170D01*
X149445972Y-94492631D01*
X149460658Y-94523681D01*
X149472229Y-94556020D01*
X149480575Y-94589338D01*
X149485615Y-94623314D01*
X149487300Y-94657620D01*
X149487300Y-95357620D01*
X149485615Y-95391926D01*
X149480575Y-95425902D01*
X149472229Y-95459220D01*
X149460658Y-95491559D01*
X149445972Y-95522609D01*
X149428314Y-95552070D01*
X149407854Y-95579658D01*
X149384787Y-95605107D01*
X149359338Y-95628174D01*
X149331750Y-95648634D01*
X149302289Y-95666292D01*
X149271239Y-95680978D01*
X149238900Y-95692549D01*
X149205582Y-95700895D01*
X149171606Y-95705935D01*
X149137300Y-95707620D01*
X144837300Y-95707620D01*
X144802994Y-95705935D01*
X144769018Y-95700895D01*
X144735700Y-95692549D01*
X144703361Y-95680978D01*
X144672311Y-95666292D01*
X144642850Y-95648634D01*
X144615262Y-95628174D01*
X144589813Y-95605107D01*
X144566746Y-95579658D01*
X144546286Y-95552070D01*
X144528628Y-95522609D01*
X144513942Y-95491559D01*
X144502371Y-95459220D01*
X144494025Y-95425902D01*
X144488985Y-95391926D01*
X144487300Y-95357620D01*
X144487300Y-94657620D01*
X144488985Y-94623314D01*
X144494025Y-94589338D01*
X144502371Y-94556020D01*
X144513942Y-94523681D01*
X144528628Y-94492631D01*
X144546286Y-94463170D01*
X144566746Y-94435582D01*
X144589813Y-94410133D01*
X144615262Y-94387066D01*
X144642850Y-94366606D01*
X144672311Y-94348948D01*
X144703361Y-94334262D01*
X144735700Y-94322691D01*
X144769018Y-94314345D01*
X144802994Y-94309305D01*
X144837300Y-94307620D01*
X149137300Y-94307620D01*
X149171606Y-94309305D01*
G37*
G04 #@! TD.AperFunction*
G04 #@! TA.AperFunction,SMDPad,CuDef*
G36*
X149189386Y-96729925D02*
G01*
X149223362Y-96734965D01*
X149256680Y-96743311D01*
X149289019Y-96754882D01*
X149320069Y-96769568D01*
X149349530Y-96787226D01*
X149377118Y-96807686D01*
X149402567Y-96830753D01*
X149425634Y-96856202D01*
X149446094Y-96883790D01*
X149463752Y-96913251D01*
X149478438Y-96944301D01*
X149490009Y-96976640D01*
X149498355Y-97009958D01*
X149503395Y-97043934D01*
X149505080Y-97078240D01*
X149505080Y-97778240D01*
X149503395Y-97812546D01*
X149498355Y-97846522D01*
X149490009Y-97879840D01*
X149478438Y-97912179D01*
X149463752Y-97943229D01*
X149446094Y-97972690D01*
X149425634Y-98000278D01*
X149402567Y-98025727D01*
X149377118Y-98048794D01*
X149349530Y-98069254D01*
X149320069Y-98086912D01*
X149289019Y-98101598D01*
X149256680Y-98113169D01*
X149223362Y-98121515D01*
X149189386Y-98126555D01*
X149155080Y-98128240D01*
X144855080Y-98128240D01*
X144820774Y-98126555D01*
X144786798Y-98121515D01*
X144753480Y-98113169D01*
X144721141Y-98101598D01*
X144690091Y-98086912D01*
X144660630Y-98069254D01*
X144633042Y-98048794D01*
X144607593Y-98025727D01*
X144584526Y-98000278D01*
X144564066Y-97972690D01*
X144546408Y-97943229D01*
X144531722Y-97912179D01*
X144520151Y-97879840D01*
X144511805Y-97846522D01*
X144506765Y-97812546D01*
X144505080Y-97778240D01*
X144505080Y-97078240D01*
X144506765Y-97043934D01*
X144511805Y-97009958D01*
X144520151Y-96976640D01*
X144531722Y-96944301D01*
X144546408Y-96913251D01*
X144564066Y-96883790D01*
X144584526Y-96856202D01*
X144607593Y-96830753D01*
X144633042Y-96807686D01*
X144660630Y-96787226D01*
X144690091Y-96769568D01*
X144721141Y-96754882D01*
X144753480Y-96743311D01*
X144786798Y-96734965D01*
X144820774Y-96729925D01*
X144855080Y-96728240D01*
X149155080Y-96728240D01*
X149189386Y-96729925D01*
G37*
G04 #@! TD.AperFunction*
G04 #@! TA.AperFunction,SMDPad,CuDef*
G36*
X109689386Y-99250545D02*
G01*
X109723362Y-99255585D01*
X109756680Y-99263931D01*
X109789019Y-99275502D01*
X109820069Y-99290188D01*
X109849530Y-99307846D01*
X109877118Y-99328306D01*
X109902567Y-99351373D01*
X109925634Y-99376822D01*
X109946094Y-99404410D01*
X109963752Y-99433871D01*
X109978438Y-99464921D01*
X109990009Y-99497260D01*
X109998355Y-99530578D01*
X110003395Y-99564554D01*
X110005080Y-99598860D01*
X110005080Y-100298860D01*
X110003395Y-100333166D01*
X109998355Y-100367142D01*
X109990009Y-100400460D01*
X109978438Y-100432799D01*
X109963752Y-100463849D01*
X109946094Y-100493310D01*
X109925634Y-100520898D01*
X109902567Y-100546347D01*
X109877118Y-100569414D01*
X109849530Y-100589874D01*
X109820069Y-100607532D01*
X109789019Y-100622218D01*
X109756680Y-100633789D01*
X109723362Y-100642135D01*
X109689386Y-100647175D01*
X109655080Y-100648860D01*
X105355080Y-100648860D01*
X105320774Y-100647175D01*
X105286798Y-100642135D01*
X105253480Y-100633789D01*
X105221141Y-100622218D01*
X105190091Y-100607532D01*
X105160630Y-100589874D01*
X105133042Y-100569414D01*
X105107593Y-100546347D01*
X105084526Y-100520898D01*
X105064066Y-100493310D01*
X105046408Y-100463849D01*
X105031722Y-100432799D01*
X105020151Y-100400460D01*
X105011805Y-100367142D01*
X105006765Y-100333166D01*
X105005080Y-100298860D01*
X105005080Y-99598860D01*
X105006765Y-99564554D01*
X105011805Y-99530578D01*
X105020151Y-99497260D01*
X105031722Y-99464921D01*
X105046408Y-99433871D01*
X105064066Y-99404410D01*
X105084526Y-99376822D01*
X105107593Y-99351373D01*
X105133042Y-99328306D01*
X105160630Y-99307846D01*
X105190091Y-99290188D01*
X105221141Y-99275502D01*
X105253480Y-99263931D01*
X105286798Y-99255585D01*
X105320774Y-99250545D01*
X105355080Y-99248860D01*
X109655080Y-99248860D01*
X109689386Y-99250545D01*
G37*
G04 #@! TD.AperFunction*
G04 #@! TA.AperFunction,SMDPad,CuDef*
G36*
X109671606Y-94409305D02*
G01*
X109705582Y-94414345D01*
X109738900Y-94422691D01*
X109771239Y-94434262D01*
X109802289Y-94448948D01*
X109831750Y-94466606D01*
X109859338Y-94487066D01*
X109884787Y-94510133D01*
X109907854Y-94535582D01*
X109928314Y-94563170D01*
X109945972Y-94592631D01*
X109960658Y-94623681D01*
X109972229Y-94656020D01*
X109980575Y-94689338D01*
X109985615Y-94723314D01*
X109987300Y-94757620D01*
X109987300Y-95457620D01*
X109985615Y-95491926D01*
X109980575Y-95525902D01*
X109972229Y-95559220D01*
X109960658Y-95591559D01*
X109945972Y-95622609D01*
X109928314Y-95652070D01*
X109907854Y-95679658D01*
X109884787Y-95705107D01*
X109859338Y-95728174D01*
X109831750Y-95748634D01*
X109802289Y-95766292D01*
X109771239Y-95780978D01*
X109738900Y-95792549D01*
X109705582Y-95800895D01*
X109671606Y-95805935D01*
X109637300Y-95807620D01*
X105337300Y-95807620D01*
X105302994Y-95805935D01*
X105269018Y-95800895D01*
X105235700Y-95792549D01*
X105203361Y-95780978D01*
X105172311Y-95766292D01*
X105142850Y-95748634D01*
X105115262Y-95728174D01*
X105089813Y-95705107D01*
X105066746Y-95679658D01*
X105046286Y-95652070D01*
X105028628Y-95622609D01*
X105013942Y-95591559D01*
X105002371Y-95559220D01*
X104994025Y-95525902D01*
X104988985Y-95491926D01*
X104987300Y-95457620D01*
X104987300Y-94757620D01*
X104988985Y-94723314D01*
X104994025Y-94689338D01*
X105002371Y-94656020D01*
X105013942Y-94623681D01*
X105028628Y-94592631D01*
X105046286Y-94563170D01*
X105066746Y-94535582D01*
X105089813Y-94510133D01*
X105115262Y-94487066D01*
X105142850Y-94466606D01*
X105172311Y-94448948D01*
X105203361Y-94434262D01*
X105235700Y-94422691D01*
X105269018Y-94414345D01*
X105302994Y-94409305D01*
X105337300Y-94407620D01*
X109637300Y-94407620D01*
X109671606Y-94409305D01*
G37*
G04 #@! TD.AperFunction*
G04 #@! TA.AperFunction,SMDPad,CuDef*
G36*
X109689386Y-96829925D02*
G01*
X109723362Y-96834965D01*
X109756680Y-96843311D01*
X109789019Y-96854882D01*
X109820069Y-96869568D01*
X109849530Y-96887226D01*
X109877118Y-96907686D01*
X109902567Y-96930753D01*
X109925634Y-96956202D01*
X109946094Y-96983790D01*
X109963752Y-97013251D01*
X109978438Y-97044301D01*
X109990009Y-97076640D01*
X109998355Y-97109958D01*
X110003395Y-97143934D01*
X110005080Y-97178240D01*
X110005080Y-97878240D01*
X110003395Y-97912546D01*
X109998355Y-97946522D01*
X109990009Y-97979840D01*
X109978438Y-98012179D01*
X109963752Y-98043229D01*
X109946094Y-98072690D01*
X109925634Y-98100278D01*
X109902567Y-98125727D01*
X109877118Y-98148794D01*
X109849530Y-98169254D01*
X109820069Y-98186912D01*
X109789019Y-98201598D01*
X109756680Y-98213169D01*
X109723362Y-98221515D01*
X109689386Y-98226555D01*
X109655080Y-98228240D01*
X105355080Y-98228240D01*
X105320774Y-98226555D01*
X105286798Y-98221515D01*
X105253480Y-98213169D01*
X105221141Y-98201598D01*
X105190091Y-98186912D01*
X105160630Y-98169254D01*
X105133042Y-98148794D01*
X105107593Y-98125727D01*
X105084526Y-98100278D01*
X105064066Y-98072690D01*
X105046408Y-98043229D01*
X105031722Y-98012179D01*
X105020151Y-97979840D01*
X105011805Y-97946522D01*
X105006765Y-97912546D01*
X105005080Y-97878240D01*
X105005080Y-97178240D01*
X105006765Y-97143934D01*
X105011805Y-97109958D01*
X105020151Y-97076640D01*
X105031722Y-97044301D01*
X105046408Y-97013251D01*
X105064066Y-96983790D01*
X105084526Y-96956202D01*
X105107593Y-96930753D01*
X105133042Y-96907686D01*
X105160630Y-96887226D01*
X105190091Y-96869568D01*
X105221141Y-96854882D01*
X105253480Y-96843311D01*
X105286798Y-96834965D01*
X105320774Y-96829925D01*
X105355080Y-96828240D01*
X109655080Y-96828240D01*
X109689386Y-96829925D01*
G37*
G04 #@! TD.AperFunction*
D10*
X109000000Y-100180000D03*
X109000000Y-97640000D03*
D11*
X109000000Y-95100000D03*
D13*
X124300000Y-102300000D03*
D14*
X129300000Y-102300000D03*
D13*
X124300000Y-93200000D03*
D14*
X129300000Y-93200000D03*
D15*
X141663999Y-96430000D03*
X134043999Y-101510000D03*
X141663999Y-93890000D03*
X134043999Y-98970000D03*
X120000000Y-96530000D03*
X112380000Y-101610000D03*
X120000000Y-93990000D03*
X112380000Y-99070000D03*
D16*
X109000000Y-97640000D02*
X110860000Y-97640000D01*
X111970000Y-96530000D02*
X120000000Y-96530000D01*
X110860000Y-97640000D02*
X111970000Y-96530000D01*
X145213999Y-97440000D02*
X145500000Y-97440000D01*
X141663999Y-93890000D02*
X145213999Y-97440000D01*
D17*
G36*
X149315000Y-93669787D02*
G01*
X147273050Y-93672620D01*
X147114300Y-93831370D01*
X147114300Y-94880620D01*
X147134300Y-94880620D01*
X147134300Y-95134620D01*
X147114300Y-95134620D01*
X147114300Y-95154620D01*
X146953870Y-95154620D01*
X146840300Y-95041050D01*
X146840300Y-94880620D01*
X146860300Y-94880620D01*
X146860300Y-94738950D01*
X146985000Y-94614250D01*
X146988072Y-94050000D01*
X146975812Y-93925518D01*
X146939502Y-93805820D01*
X146880537Y-93695506D01*
X146801185Y-93598815D01*
X146704494Y-93519463D01*
X146594180Y-93460498D01*
X146474482Y-93424188D01*
X146350000Y-93411928D01*
X145785750Y-93415000D01*
X145627000Y-93573750D01*
X145627000Y-93671129D01*
X145373000Y-93670777D01*
X145373000Y-93573750D01*
X145214250Y-93415000D01*
X144650000Y-93411928D01*
X144525518Y-93424188D01*
X144405820Y-93460498D01*
X144295506Y-93519463D01*
X144198815Y-93598815D01*
X144119463Y-93695506D01*
X144060498Y-93805820D01*
X144048137Y-93846569D01*
X144036115Y-93856435D01*
X143956763Y-93953126D01*
X143897798Y-94063440D01*
X143861488Y-94183138D01*
X143849228Y-94307620D01*
X143852300Y-94721870D01*
X144011048Y-94880618D01*
X143906196Y-94880618D01*
X143167705Y-94142128D01*
X143187999Y-94040101D01*
X143187999Y-93739899D01*
X143129433Y-93445466D01*
X143014550Y-93168115D01*
X142847767Y-92918507D01*
X142635492Y-92706232D01*
X142385884Y-92539449D01*
X142108533Y-92424566D01*
X141814100Y-92366000D01*
X141513898Y-92366000D01*
X141219465Y-92424566D01*
X140942114Y-92539449D01*
X140692506Y-92706232D01*
X140480231Y-92918507D01*
X140313448Y-93168115D01*
X140198565Y-93445466D01*
X140139999Y-93739899D01*
X140139999Y-94040101D01*
X140198565Y-94334534D01*
X140313448Y-94611885D01*
X140480231Y-94861493D01*
X140692506Y-95073768D01*
X140821561Y-95160000D01*
X140692506Y-95246232D01*
X140480231Y-95458507D01*
X140313448Y-95708115D01*
X140198565Y-95985466D01*
X140139999Y-96279899D01*
X140139999Y-96580101D01*
X140198565Y-96874534D01*
X140313448Y-97151885D01*
X140480231Y-97401493D01*
X140692506Y-97613768D01*
X140942114Y-97780551D01*
X141219465Y-97895434D01*
X141513898Y-97954000D01*
X141814100Y-97954000D01*
X142108533Y-97895434D01*
X142385884Y-97780551D01*
X142635492Y-97613768D01*
X142847767Y-97401493D01*
X143014550Y-97151885D01*
X143129433Y-96874534D01*
X143173817Y-96651397D01*
X143867008Y-97344588D01*
X143867008Y-97778240D01*
X143885994Y-97971003D01*
X143942221Y-98156359D01*
X144033528Y-98327183D01*
X144156408Y-98476912D01*
X144258458Y-98560663D01*
X144150586Y-98618323D01*
X144053895Y-98697675D01*
X143974543Y-98794366D01*
X143915578Y-98904680D01*
X143879268Y-99024378D01*
X143867008Y-99148860D01*
X143870080Y-99563110D01*
X144028830Y-99721860D01*
X144110638Y-99721860D01*
X144179845Y-99853000D01*
X145373000Y-99853000D01*
X145373000Y-99833000D01*
X145627000Y-99833000D01*
X145627000Y-99853000D01*
X146820155Y-99853000D01*
X146899917Y-99701860D01*
X147132080Y-99701860D01*
X147132080Y-99721860D01*
X147152080Y-99721860D01*
X147152080Y-99975860D01*
X147132080Y-99975860D01*
X147132080Y-101025110D01*
X147290830Y-101183860D01*
X149315001Y-101186668D01*
X149315001Y-105315000D01*
X105185000Y-105315000D01*
X105185000Y-102666231D01*
X111503374Y-102666231D01*
X111585727Y-102919289D01*
X111856418Y-103049086D01*
X112147230Y-103123580D01*
X112446988Y-103139908D01*
X112744171Y-103097443D01*
X113027359Y-102997816D01*
X113174273Y-102919289D01*
X113256626Y-102666231D01*
X112380000Y-101789605D01*
X111503374Y-102666231D01*
X105185000Y-102666231D01*
X105185000Y-101676988D01*
X110850092Y-101676988D01*
X110892557Y-101974171D01*
X110992184Y-102257359D01*
X111070711Y-102404273D01*
X111323769Y-102486626D01*
X112200395Y-101610000D01*
X112559605Y-101610000D01*
X113436231Y-102486626D01*
X113689289Y-102404273D01*
X113819086Y-102133582D01*
X113893580Y-101842770D01*
X113909908Y-101543012D01*
X113867443Y-101245829D01*
X113791514Y-101030000D01*
X122391928Y-101030000D01*
X122391928Y-103570000D01*
X122404188Y-103694482D01*
X122440498Y-103814180D01*
X122499463Y-103924494D01*
X122578815Y-104021185D01*
X122675506Y-104100537D01*
X122785820Y-104159502D01*
X122905518Y-104195812D01*
X123030000Y-104208072D01*
X125570000Y-104208072D01*
X125694482Y-104195812D01*
X125814180Y-104159502D01*
X125924494Y-104100537D01*
X126021185Y-104021185D01*
X126100537Y-103924494D01*
X126159502Y-103814180D01*
X126195812Y-103694482D01*
X126202374Y-103627852D01*
X128151753Y-103627852D01*
X128280076Y-103919871D01*
X128615695Y-104087723D01*
X128977611Y-104186874D01*
X129351916Y-104213514D01*
X129724227Y-104166618D01*
X130080235Y-104047988D01*
X130319924Y-103919871D01*
X130448247Y-103627852D01*
X129300000Y-102479605D01*
X128151753Y-103627852D01*
X126202374Y-103627852D01*
X126208072Y-103570000D01*
X126208072Y-102351916D01*
X127386486Y-102351916D01*
X127433382Y-102724227D01*
X127552012Y-103080235D01*
X127680129Y-103319924D01*
X127972148Y-103448247D01*
X129120395Y-102300000D01*
X129479605Y-102300000D01*
X130627852Y-103448247D01*
X130919871Y-103319924D01*
X131087723Y-102984305D01*
X131186874Y-102622389D01*
X131190870Y-102566231D01*
X133167373Y-102566231D01*
X133249726Y-102819289D01*
X133520417Y-102949086D01*
X133811229Y-103023580D01*
X134110987Y-103039908D01*
X134408170Y-102997443D01*
X134691358Y-102897816D01*
X134838272Y-102819289D01*
X134920625Y-102566231D01*
X134043999Y-101689605D01*
X133167373Y-102566231D01*
X131190870Y-102566231D01*
X131213514Y-102248084D01*
X131166618Y-101875773D01*
X131067057Y-101576988D01*
X132514091Y-101576988D01*
X132556556Y-101874171D01*
X132656183Y-102157359D01*
X132734710Y-102304273D01*
X132987768Y-102386626D01*
X133864394Y-101510000D01*
X134223604Y-101510000D01*
X135100230Y-102386626D01*
X135353288Y-102304273D01*
X135483085Y-102033582D01*
X135557579Y-101742770D01*
X135573907Y-101443012D01*
X135531442Y-101145829D01*
X135431815Y-100862641D01*
X135353288Y-100715727D01*
X135100230Y-100633374D01*
X134223604Y-101510000D01*
X133864394Y-101510000D01*
X132987768Y-100633374D01*
X132734710Y-100715727D01*
X132604913Y-100986418D01*
X132530419Y-101277230D01*
X132514091Y-101576988D01*
X131067057Y-101576988D01*
X131047988Y-101519765D01*
X130919871Y-101280076D01*
X130627852Y-101151753D01*
X129479605Y-102300000D01*
X129120395Y-102300000D01*
X127972148Y-101151753D01*
X127680129Y-101280076D01*
X127512277Y-101615695D01*
X127413126Y-101977611D01*
X127386486Y-102351916D01*
X126208072Y-102351916D01*
X126208072Y-101030000D01*
X126202375Y-100972148D01*
X128151753Y-100972148D01*
X129300000Y-102120395D01*
X130448247Y-100972148D01*
X130319924Y-100680129D01*
X129984305Y-100512277D01*
X129622389Y-100413126D01*
X129248084Y-100386486D01*
X128875773Y-100433382D01*
X128519765Y-100552012D01*
X128280076Y-100680129D01*
X128151753Y-100972148D01*
X126202375Y-100972148D01*
X126195812Y-100905518D01*
X126159502Y-100785820D01*
X126100537Y-100675506D01*
X126021185Y-100578815D01*
X125924494Y-100499463D01*
X125814180Y-100440498D01*
X125694482Y-100404188D01*
X125570000Y-100391928D01*
X123030000Y-100391928D01*
X122905518Y-100404188D01*
X122785820Y-100440498D01*
X122675506Y-100499463D01*
X122578815Y-100578815D01*
X122499463Y-100675506D01*
X122440498Y-100785820D01*
X122404188Y-100905518D01*
X122391928Y-101030000D01*
X113791514Y-101030000D01*
X113767816Y-100962641D01*
X113689289Y-100815727D01*
X113436231Y-100733374D01*
X112559605Y-101610000D01*
X112200395Y-101610000D01*
X111323769Y-100733374D01*
X111070711Y-100815727D01*
X110940914Y-101086418D01*
X110866420Y-101377230D01*
X110850092Y-101676988D01*
X105185000Y-101676988D01*
X105185000Y-101286682D01*
X107219330Y-101283860D01*
X107378080Y-101125110D01*
X107378080Y-100075860D01*
X107358080Y-100075860D01*
X107358080Y-99821860D01*
X107378080Y-99821860D01*
X107378080Y-99801860D01*
X107564969Y-99801860D01*
X107558524Y-99823110D01*
X107679845Y-100053000D01*
X108873000Y-100053000D01*
X108873000Y-100033000D01*
X109127000Y-100033000D01*
X109127000Y-100053000D01*
X109147000Y-100053000D01*
X109147000Y-100075860D01*
X107632080Y-100075860D01*
X107632080Y-100397509D01*
X107558524Y-100536890D01*
X107603175Y-100684099D01*
X107632080Y-100744784D01*
X107632080Y-101125110D01*
X107790830Y-101283860D01*
X108017686Y-101284175D01*
X108118645Y-101375178D01*
X108368748Y-101524157D01*
X108643109Y-101621481D01*
X108873000Y-101500814D01*
X108873000Y-101285361D01*
X109127000Y-101285714D01*
X109127000Y-101500814D01*
X109356891Y-101621481D01*
X109631252Y-101524157D01*
X109881355Y-101375178D01*
X109979295Y-101286896D01*
X110005080Y-101286932D01*
X110129562Y-101274672D01*
X110249260Y-101238362D01*
X110359574Y-101179397D01*
X110456265Y-101100045D01*
X110535617Y-101003354D01*
X110594582Y-100893040D01*
X110630892Y-100773342D01*
X110643152Y-100648860D01*
X110640080Y-100234610D01*
X110531701Y-100126231D01*
X111503374Y-100126231D01*
X111572941Y-100340000D01*
X111503374Y-100553769D01*
X112380000Y-101430395D01*
X113256626Y-100553769D01*
X113187059Y-100340000D01*
X113256626Y-100126231D01*
X113156626Y-100026231D01*
X133167373Y-100026231D01*
X133236940Y-100240000D01*
X133167373Y-100453769D01*
X134043999Y-101330395D01*
X134825534Y-100548860D01*
X143867008Y-100548860D01*
X143879268Y-100673342D01*
X143915578Y-100793040D01*
X143974543Y-100903354D01*
X144053895Y-101000045D01*
X144150586Y-101079397D01*
X144260900Y-101138362D01*
X144380598Y-101174672D01*
X144505080Y-101186932D01*
X144638068Y-101186747D01*
X144868748Y-101324157D01*
X145143109Y-101421481D01*
X145373000Y-101300814D01*
X145373000Y-101185728D01*
X145627000Y-101185375D01*
X145627000Y-101300814D01*
X145856891Y-101421481D01*
X146131252Y-101324157D01*
X146365957Y-101184350D01*
X146719330Y-101183860D01*
X146878080Y-101025110D01*
X146878080Y-100523454D01*
X146896825Y-100484099D01*
X146941476Y-100336890D01*
X146878080Y-100216762D01*
X146878080Y-99975860D01*
X144028830Y-99975860D01*
X143870080Y-100134610D01*
X143867008Y-100548860D01*
X134825534Y-100548860D01*
X134920625Y-100453769D01*
X134851058Y-100240000D01*
X134920625Y-100026231D01*
X134043999Y-99149605D01*
X133167373Y-100026231D01*
X113156626Y-100026231D01*
X112380000Y-99249605D01*
X111503374Y-100126231D01*
X110531701Y-100126231D01*
X110485000Y-100079530D01*
X110485000Y-100052998D01*
X110320156Y-100052998D01*
X110441476Y-99823110D01*
X110441097Y-99821860D01*
X110481330Y-99821860D01*
X110640080Y-99663110D01*
X110643152Y-99248860D01*
X110630892Y-99124378D01*
X110594582Y-99004680D01*
X110535617Y-98894366D01*
X110456265Y-98797675D01*
X110359574Y-98718323D01*
X110251702Y-98660663D01*
X110353752Y-98576912D01*
X110396355Y-98525000D01*
X110816531Y-98525000D01*
X110860000Y-98529281D01*
X110903469Y-98525000D01*
X110903477Y-98525000D01*
X110953549Y-98520068D01*
X110940914Y-98546418D01*
X110866420Y-98837230D01*
X110850092Y-99136988D01*
X110892557Y-99434171D01*
X110992184Y-99717359D01*
X111070711Y-99864273D01*
X111323769Y-99946626D01*
X112200395Y-99070000D01*
X112559605Y-99070000D01*
X113436231Y-99946626D01*
X113689289Y-99864273D01*
X113819086Y-99593582D01*
X113893580Y-99302770D01*
X113908057Y-99036988D01*
X132514091Y-99036988D01*
X132556556Y-99334171D01*
X132656183Y-99617359D01*
X132734710Y-99764273D01*
X132987768Y-99846626D01*
X133864394Y-98970000D01*
X134223604Y-98970000D01*
X135100230Y-99846626D01*
X135353288Y-99764273D01*
X135483085Y-99493582D01*
X135557579Y-99202770D01*
X135573907Y-98903012D01*
X135531442Y-98605829D01*
X135431815Y-98322641D01*
X135353288Y-98175727D01*
X135100230Y-98093374D01*
X134223604Y-98970000D01*
X133864394Y-98970000D01*
X132987768Y-98093374D01*
X132734710Y-98175727D01*
X132604913Y-98446418D01*
X132530419Y-98737230D01*
X132514091Y-99036988D01*
X113908057Y-99036988D01*
X113909908Y-99003012D01*
X113867443Y-98705829D01*
X113767816Y-98422641D01*
X113689289Y-98275727D01*
X113436231Y-98193374D01*
X112559605Y-99070000D01*
X112200395Y-99070000D01*
X112186253Y-99055858D01*
X112365858Y-98876253D01*
X112380000Y-98890395D01*
X113256626Y-98013769D01*
X113174273Y-97760711D01*
X112903582Y-97630914D01*
X112612770Y-97556420D01*
X112313012Y-97540092D01*
X112194561Y-97557018D01*
X112336579Y-97415000D01*
X118758439Y-97415000D01*
X118816232Y-97501493D01*
X119028507Y-97713768D01*
X119278115Y-97880551D01*
X119555466Y-97995434D01*
X119849899Y-98054000D01*
X120150101Y-98054000D01*
X120444534Y-97995434D01*
X120641689Y-97913769D01*
X133167373Y-97913769D01*
X134043999Y-98790395D01*
X134920625Y-97913769D01*
X134838272Y-97660711D01*
X134567581Y-97530914D01*
X134276769Y-97456420D01*
X133977011Y-97440092D01*
X133679828Y-97482557D01*
X133396640Y-97582184D01*
X133249726Y-97660711D01*
X133167373Y-97913769D01*
X120641689Y-97913769D01*
X120721885Y-97880551D01*
X120971493Y-97713768D01*
X121183768Y-97501493D01*
X121350551Y-97251885D01*
X121465434Y-96974534D01*
X121524000Y-96680101D01*
X121524000Y-96379899D01*
X121465434Y-96085466D01*
X121350551Y-95808115D01*
X121183768Y-95558507D01*
X120971493Y-95346232D01*
X120842438Y-95260000D01*
X120971493Y-95173768D01*
X121183768Y-94961493D01*
X121350551Y-94711885D01*
X121465434Y-94434534D01*
X121524000Y-94140101D01*
X121524000Y-93839899D01*
X121465434Y-93545466D01*
X121350551Y-93268115D01*
X121183768Y-93018507D01*
X120971493Y-92806232D01*
X120721885Y-92639449D01*
X120444534Y-92524566D01*
X120150101Y-92466000D01*
X119849899Y-92466000D01*
X119555466Y-92524566D01*
X119278115Y-92639449D01*
X119028507Y-92806232D01*
X118816232Y-93018507D01*
X118649449Y-93268115D01*
X118534566Y-93545466D01*
X118476000Y-93839899D01*
X118476000Y-94140101D01*
X118534566Y-94434534D01*
X118649449Y-94711885D01*
X118816232Y-94961493D01*
X119028507Y-95173768D01*
X119157562Y-95260000D01*
X119028507Y-95346232D01*
X118816232Y-95558507D01*
X118758439Y-95645000D01*
X112013466Y-95645000D01*
X111969999Y-95640719D01*
X111926533Y-95645000D01*
X111926523Y-95645000D01*
X111796510Y-95657805D01*
X111629687Y-95708411D01*
X111475941Y-95790589D01*
X111475939Y-95790590D01*
X111475940Y-95790590D01*
X111374953Y-95873468D01*
X111374951Y-95873470D01*
X111341183Y-95901183D01*
X111313470Y-95934951D01*
X110526266Y-96722156D01*
X110476632Y-96629297D01*
X110353752Y-96479568D01*
X110279714Y-96418806D01*
X110301185Y-96401185D01*
X110375843Y-96310214D01*
X110438485Y-96258805D01*
X110517837Y-96162114D01*
X110576802Y-96051800D01*
X110613112Y-95932102D01*
X110625372Y-95807620D01*
X110622300Y-95393370D01*
X110463550Y-95234620D01*
X110333870Y-95234620D01*
X110326250Y-95227000D01*
X109127000Y-95227000D01*
X109127000Y-95234620D01*
X108873000Y-95234620D01*
X108873000Y-95227000D01*
X107673750Y-95227000D01*
X107666130Y-95234620D01*
X107614300Y-95234620D01*
X107614300Y-95254620D01*
X107360300Y-95254620D01*
X107360300Y-95234620D01*
X107340300Y-95234620D01*
X107340300Y-94980620D01*
X107360300Y-94980620D01*
X107360300Y-94250000D01*
X107511928Y-94250000D01*
X107515000Y-94814250D01*
X107614300Y-94913550D01*
X107614300Y-94980620D01*
X110463550Y-94980620D01*
X110622300Y-94821870D01*
X110625372Y-94407620D01*
X110613112Y-94283138D01*
X110576802Y-94163440D01*
X110517837Y-94053126D01*
X110438485Y-93956435D01*
X110393271Y-93919329D01*
X110380537Y-93895506D01*
X110301185Y-93798815D01*
X110204494Y-93719463D01*
X110094180Y-93660498D01*
X109974482Y-93624188D01*
X109850000Y-93611928D01*
X109285750Y-93615000D01*
X109130013Y-93770737D01*
X108870348Y-93771098D01*
X108714250Y-93615000D01*
X108150000Y-93611928D01*
X108025518Y-93624188D01*
X107905820Y-93660498D01*
X107795506Y-93719463D01*
X107698815Y-93798815D01*
X107619463Y-93895506D01*
X107560498Y-94005820D01*
X107524188Y-94125518D01*
X107511928Y-94250000D01*
X107360300Y-94250000D01*
X107360300Y-93931370D01*
X107201550Y-93772620D01*
X105185000Y-93769822D01*
X105185000Y-91930000D01*
X122391928Y-91930000D01*
X122391928Y-94470000D01*
X122404188Y-94594482D01*
X122440498Y-94714180D01*
X122499463Y-94824494D01*
X122578815Y-94921185D01*
X122675506Y-95000537D01*
X122785820Y-95059502D01*
X122905518Y-95095812D01*
X123030000Y-95108072D01*
X125570000Y-95108072D01*
X125694482Y-95095812D01*
X125814180Y-95059502D01*
X125924494Y-95000537D01*
X126021185Y-94921185D01*
X126100537Y-94824494D01*
X126159502Y-94714180D01*
X126195812Y-94594482D01*
X126202374Y-94527852D01*
X128151753Y-94527852D01*
X128280076Y-94819871D01*
X128615695Y-94987723D01*
X128977611Y-95086874D01*
X129351916Y-95113514D01*
X129724227Y-95066618D01*
X130080235Y-94947988D01*
X130319924Y-94819871D01*
X130448247Y-94527852D01*
X129300000Y-93379605D01*
X128151753Y-94527852D01*
X126202374Y-94527852D01*
X126208072Y-94470000D01*
X126208072Y-93251916D01*
X127386486Y-93251916D01*
X127433382Y-93624227D01*
X127552012Y-93980235D01*
X127680129Y-94219924D01*
X127972148Y-94348247D01*
X129120395Y-93200000D01*
X129479605Y-93200000D01*
X130627852Y-94348247D01*
X130919871Y-94219924D01*
X131087723Y-93884305D01*
X131186874Y-93522389D01*
X131213514Y-93148084D01*
X131166618Y-92775773D01*
X131047988Y-92419765D01*
X130919871Y-92180076D01*
X130627852Y-92051753D01*
X129479605Y-93200000D01*
X129120395Y-93200000D01*
X127972148Y-92051753D01*
X127680129Y-92180076D01*
X127512277Y-92515695D01*
X127413126Y-92877611D01*
X127386486Y-93251916D01*
X126208072Y-93251916D01*
X126208072Y-91930000D01*
X126202375Y-91872148D01*
X128151753Y-91872148D01*
X129300000Y-93020395D01*
X130448247Y-91872148D01*
X130319924Y-91580129D01*
X129984305Y-91412277D01*
X129622389Y-91313126D01*
X129248084Y-91286486D01*
X128875773Y-91333382D01*
X128519765Y-91452012D01*
X128280076Y-91580129D01*
X128151753Y-91872148D01*
X126202375Y-91872148D01*
X126195812Y-91805518D01*
X126159502Y-91685820D01*
X126100537Y-91575506D01*
X126021185Y-91478815D01*
X125924494Y-91399463D01*
X125814180Y-91340498D01*
X125694482Y-91304188D01*
X125570000Y-91291928D01*
X123030000Y-91291928D01*
X122905518Y-91304188D01*
X122785820Y-91340498D01*
X122675506Y-91399463D01*
X122578815Y-91478815D01*
X122499463Y-91575506D01*
X122440498Y-91685820D01*
X122404188Y-91805518D01*
X122391928Y-91930000D01*
X105185000Y-91930000D01*
X105185000Y-89685000D01*
X149315000Y-89685000D01*
X149315000Y-93669787D01*
G37*
X149315000Y-93669787D02*
X147273050Y-93672620D01*
X147114300Y-93831370D01*
X147114300Y-94880620D01*
X147134300Y-94880620D01*
X147134300Y-95134620D01*
X147114300Y-95134620D01*
X147114300Y-95154620D01*
X146953870Y-95154620D01*
X146840300Y-95041050D01*
X146840300Y-94880620D01*
X146860300Y-94880620D01*
X146860300Y-94738950D01*
X146985000Y-94614250D01*
X146988072Y-94050000D01*
X146975812Y-93925518D01*
X146939502Y-93805820D01*
X146880537Y-93695506D01*
X146801185Y-93598815D01*
X146704494Y-93519463D01*
X146594180Y-93460498D01*
X146474482Y-93424188D01*
X146350000Y-93411928D01*
X145785750Y-93415000D01*
X145627000Y-93573750D01*
X145627000Y-93671129D01*
X145373000Y-93670777D01*
X145373000Y-93573750D01*
X145214250Y-93415000D01*
X144650000Y-93411928D01*
X144525518Y-93424188D01*
X144405820Y-93460498D01*
X144295506Y-93519463D01*
X144198815Y-93598815D01*
X144119463Y-93695506D01*
X144060498Y-93805820D01*
X144048137Y-93846569D01*
X144036115Y-93856435D01*
X143956763Y-93953126D01*
X143897798Y-94063440D01*
X143861488Y-94183138D01*
X143849228Y-94307620D01*
X143852300Y-94721870D01*
X144011048Y-94880618D01*
X143906196Y-94880618D01*
X143167705Y-94142128D01*
X143187999Y-94040101D01*
X143187999Y-93739899D01*
X143129433Y-93445466D01*
X143014550Y-93168115D01*
X142847767Y-92918507D01*
X142635492Y-92706232D01*
X142385884Y-92539449D01*
X142108533Y-92424566D01*
X141814100Y-92366000D01*
X141513898Y-92366000D01*
X141219465Y-92424566D01*
X140942114Y-92539449D01*
X140692506Y-92706232D01*
X140480231Y-92918507D01*
X140313448Y-93168115D01*
X140198565Y-93445466D01*
X140139999Y-93739899D01*
X140139999Y-94040101D01*
X140198565Y-94334534D01*
X140313448Y-94611885D01*
X140480231Y-94861493D01*
X140692506Y-95073768D01*
X140821561Y-95160000D01*
X140692506Y-95246232D01*
X140480231Y-95458507D01*
X140313448Y-95708115D01*
X140198565Y-95985466D01*
X140139999Y-96279899D01*
X140139999Y-96580101D01*
X140198565Y-96874534D01*
X140313448Y-97151885D01*
X140480231Y-97401493D01*
X140692506Y-97613768D01*
X140942114Y-97780551D01*
X141219465Y-97895434D01*
X141513898Y-97954000D01*
X141814100Y-97954000D01*
X142108533Y-97895434D01*
X142385884Y-97780551D01*
X142635492Y-97613768D01*
X142847767Y-97401493D01*
X143014550Y-97151885D01*
X143129433Y-96874534D01*
X143173817Y-96651397D01*
X143867008Y-97344588D01*
X143867008Y-97778240D01*
X143885994Y-97971003D01*
X143942221Y-98156359D01*
X144033528Y-98327183D01*
X144156408Y-98476912D01*
X144258458Y-98560663D01*
X144150586Y-98618323D01*
X144053895Y-98697675D01*
X143974543Y-98794366D01*
X143915578Y-98904680D01*
X143879268Y-99024378D01*
X143867008Y-99148860D01*
X143870080Y-99563110D01*
X144028830Y-99721860D01*
X144110638Y-99721860D01*
X144179845Y-99853000D01*
X145373000Y-99853000D01*
X145373000Y-99833000D01*
X145627000Y-99833000D01*
X145627000Y-99853000D01*
X146820155Y-99853000D01*
X146899917Y-99701860D01*
X147132080Y-99701860D01*
X147132080Y-99721860D01*
X147152080Y-99721860D01*
X147152080Y-99975860D01*
X147132080Y-99975860D01*
X147132080Y-101025110D01*
X147290830Y-101183860D01*
X149315001Y-101186668D01*
X149315001Y-105315000D01*
X105185000Y-105315000D01*
X105185000Y-102666231D01*
X111503374Y-102666231D01*
X111585727Y-102919289D01*
X111856418Y-103049086D01*
X112147230Y-103123580D01*
X112446988Y-103139908D01*
X112744171Y-103097443D01*
X113027359Y-102997816D01*
X113174273Y-102919289D01*
X113256626Y-102666231D01*
X112380000Y-101789605D01*
X111503374Y-102666231D01*
X105185000Y-102666231D01*
X105185000Y-101676988D01*
X110850092Y-101676988D01*
X110892557Y-101974171D01*
X110992184Y-102257359D01*
X111070711Y-102404273D01*
X111323769Y-102486626D01*
X112200395Y-101610000D01*
X112559605Y-101610000D01*
X113436231Y-102486626D01*
X113689289Y-102404273D01*
X113819086Y-102133582D01*
X113893580Y-101842770D01*
X113909908Y-101543012D01*
X113867443Y-101245829D01*
X113791514Y-101030000D01*
X122391928Y-101030000D01*
X122391928Y-103570000D01*
X122404188Y-103694482D01*
X122440498Y-103814180D01*
X122499463Y-103924494D01*
X122578815Y-104021185D01*
X122675506Y-104100537D01*
X122785820Y-104159502D01*
X122905518Y-104195812D01*
X123030000Y-104208072D01*
X125570000Y-104208072D01*
X125694482Y-104195812D01*
X125814180Y-104159502D01*
X125924494Y-104100537D01*
X126021185Y-104021185D01*
X126100537Y-103924494D01*
X126159502Y-103814180D01*
X126195812Y-103694482D01*
X126202374Y-103627852D01*
X128151753Y-103627852D01*
X128280076Y-103919871D01*
X128615695Y-104087723D01*
X128977611Y-104186874D01*
X129351916Y-104213514D01*
X129724227Y-104166618D01*
X130080235Y-104047988D01*
X130319924Y-103919871D01*
X130448247Y-103627852D01*
X129300000Y-102479605D01*
X128151753Y-103627852D01*
X126202374Y-103627852D01*
X126208072Y-103570000D01*
X126208072Y-102351916D01*
X127386486Y-102351916D01*
X127433382Y-102724227D01*
X127552012Y-103080235D01*
X127680129Y-103319924D01*
X127972148Y-103448247D01*
X129120395Y-102300000D01*
X129479605Y-102300000D01*
X130627852Y-103448247D01*
X130919871Y-103319924D01*
X131087723Y-102984305D01*
X131186874Y-102622389D01*
X131190870Y-102566231D01*
X133167373Y-102566231D01*
X133249726Y-102819289D01*
X133520417Y-102949086D01*
X133811229Y-103023580D01*
X134110987Y-103039908D01*
X134408170Y-102997443D01*
X134691358Y-102897816D01*
X134838272Y-102819289D01*
X134920625Y-102566231D01*
X134043999Y-101689605D01*
X133167373Y-102566231D01*
X131190870Y-102566231D01*
X131213514Y-102248084D01*
X131166618Y-101875773D01*
X131067057Y-101576988D01*
X132514091Y-101576988D01*
X132556556Y-101874171D01*
X132656183Y-102157359D01*
X132734710Y-102304273D01*
X132987768Y-102386626D01*
X133864394Y-101510000D01*
X134223604Y-101510000D01*
X135100230Y-102386626D01*
X135353288Y-102304273D01*
X135483085Y-102033582D01*
X135557579Y-101742770D01*
X135573907Y-101443012D01*
X135531442Y-101145829D01*
X135431815Y-100862641D01*
X135353288Y-100715727D01*
X135100230Y-100633374D01*
X134223604Y-101510000D01*
X133864394Y-101510000D01*
X132987768Y-100633374D01*
X132734710Y-100715727D01*
X132604913Y-100986418D01*
X132530419Y-101277230D01*
X132514091Y-101576988D01*
X131067057Y-101576988D01*
X131047988Y-101519765D01*
X130919871Y-101280076D01*
X130627852Y-101151753D01*
X129479605Y-102300000D01*
X129120395Y-102300000D01*
X127972148Y-101151753D01*
X127680129Y-101280076D01*
X127512277Y-101615695D01*
X127413126Y-101977611D01*
X127386486Y-102351916D01*
X126208072Y-102351916D01*
X126208072Y-101030000D01*
X126202375Y-100972148D01*
X128151753Y-100972148D01*
X129300000Y-102120395D01*
X130448247Y-100972148D01*
X130319924Y-100680129D01*
X129984305Y-100512277D01*
X129622389Y-100413126D01*
X129248084Y-100386486D01*
X128875773Y-100433382D01*
X128519765Y-100552012D01*
X128280076Y-100680129D01*
X128151753Y-100972148D01*
X126202375Y-100972148D01*
X126195812Y-100905518D01*
X126159502Y-100785820D01*
X126100537Y-100675506D01*
X126021185Y-100578815D01*
X125924494Y-100499463D01*
X125814180Y-100440498D01*
X125694482Y-100404188D01*
X125570000Y-100391928D01*
X123030000Y-100391928D01*
X122905518Y-100404188D01*
X122785820Y-100440498D01*
X122675506Y-100499463D01*
X122578815Y-100578815D01*
X122499463Y-100675506D01*
X122440498Y-100785820D01*
X122404188Y-100905518D01*
X122391928Y-101030000D01*
X113791514Y-101030000D01*
X113767816Y-100962641D01*
X113689289Y-100815727D01*
X113436231Y-100733374D01*
X112559605Y-101610000D01*
X112200395Y-101610000D01*
X111323769Y-100733374D01*
X111070711Y-100815727D01*
X110940914Y-101086418D01*
X110866420Y-101377230D01*
X110850092Y-101676988D01*
X105185000Y-101676988D01*
X105185000Y-101286682D01*
X107219330Y-101283860D01*
X107378080Y-101125110D01*
X107378080Y-100075860D01*
X107358080Y-100075860D01*
X107358080Y-99821860D01*
X107378080Y-99821860D01*
X107378080Y-99801860D01*
X107564969Y-99801860D01*
X107558524Y-99823110D01*
X107679845Y-100053000D01*
X108873000Y-100053000D01*
X108873000Y-100033000D01*
X109127000Y-100033000D01*
X109127000Y-100053000D01*
X109147000Y-100053000D01*
X109147000Y-100075860D01*
X107632080Y-100075860D01*
X107632080Y-100397509D01*
X107558524Y-100536890D01*
X107603175Y-100684099D01*
X107632080Y-100744784D01*
X107632080Y-101125110D01*
X107790830Y-101283860D01*
X108017686Y-101284175D01*
X108118645Y-101375178D01*
X108368748Y-101524157D01*
X108643109Y-101621481D01*
X108873000Y-101500814D01*
X108873000Y-101285361D01*
X109127000Y-101285714D01*
X109127000Y-101500814D01*
X109356891Y-101621481D01*
X109631252Y-101524157D01*
X109881355Y-101375178D01*
X109979295Y-101286896D01*
X110005080Y-101286932D01*
X110129562Y-101274672D01*
X110249260Y-101238362D01*
X110359574Y-101179397D01*
X110456265Y-101100045D01*
X110535617Y-101003354D01*
X110594582Y-100893040D01*
X110630892Y-100773342D01*
X110643152Y-100648860D01*
X110640080Y-100234610D01*
X110531701Y-100126231D01*
X111503374Y-100126231D01*
X111572941Y-100340000D01*
X111503374Y-100553769D01*
X112380000Y-101430395D01*
X113256626Y-100553769D01*
X113187059Y-100340000D01*
X113256626Y-100126231D01*
X113156626Y-100026231D01*
X133167373Y-100026231D01*
X133236940Y-100240000D01*
X133167373Y-100453769D01*
X134043999Y-101330395D01*
X134825534Y-100548860D01*
X143867008Y-100548860D01*
X143879268Y-100673342D01*
X143915578Y-100793040D01*
X143974543Y-100903354D01*
X144053895Y-101000045D01*
X144150586Y-101079397D01*
X144260900Y-101138362D01*
X144380598Y-101174672D01*
X144505080Y-101186932D01*
X144638068Y-101186747D01*
X144868748Y-101324157D01*
X145143109Y-101421481D01*
X145373000Y-101300814D01*
X145373000Y-101185728D01*
X145627000Y-101185375D01*
X145627000Y-101300814D01*
X145856891Y-101421481D01*
X146131252Y-101324157D01*
X146365957Y-101184350D01*
X146719330Y-101183860D01*
X146878080Y-101025110D01*
X146878080Y-100523454D01*
X146896825Y-100484099D01*
X146941476Y-100336890D01*
X146878080Y-100216762D01*
X146878080Y-99975860D01*
X144028830Y-99975860D01*
X143870080Y-100134610D01*
X143867008Y-100548860D01*
X134825534Y-100548860D01*
X134920625Y-100453769D01*
X134851058Y-100240000D01*
X134920625Y-100026231D01*
X134043999Y-99149605D01*
X133167373Y-100026231D01*
X113156626Y-100026231D01*
X112380000Y-99249605D01*
X111503374Y-100126231D01*
X110531701Y-100126231D01*
X110485000Y-100079530D01*
X110485000Y-100052998D01*
X110320156Y-100052998D01*
X110441476Y-99823110D01*
X110441097Y-99821860D01*
X110481330Y-99821860D01*
X110640080Y-99663110D01*
X110643152Y-99248860D01*
X110630892Y-99124378D01*
X110594582Y-99004680D01*
X110535617Y-98894366D01*
X110456265Y-98797675D01*
X110359574Y-98718323D01*
X110251702Y-98660663D01*
X110353752Y-98576912D01*
X110396355Y-98525000D01*
X110816531Y-98525000D01*
X110860000Y-98529281D01*
X110903469Y-98525000D01*
X110903477Y-98525000D01*
X110953549Y-98520068D01*
X110940914Y-98546418D01*
X110866420Y-98837230D01*
X110850092Y-99136988D01*
X110892557Y-99434171D01*
X110992184Y-99717359D01*
X111070711Y-99864273D01*
X111323769Y-99946626D01*
X112200395Y-99070000D01*
X112559605Y-99070000D01*
X113436231Y-99946626D01*
X113689289Y-99864273D01*
X113819086Y-99593582D01*
X113893580Y-99302770D01*
X113908057Y-99036988D01*
X132514091Y-99036988D01*
X132556556Y-99334171D01*
X132656183Y-99617359D01*
X132734710Y-99764273D01*
X132987768Y-99846626D01*
X133864394Y-98970000D01*
X134223604Y-98970000D01*
X135100230Y-99846626D01*
X135353288Y-99764273D01*
X135483085Y-99493582D01*
X135557579Y-99202770D01*
X135573907Y-98903012D01*
X135531442Y-98605829D01*
X135431815Y-98322641D01*
X135353288Y-98175727D01*
X135100230Y-98093374D01*
X134223604Y-98970000D01*
X133864394Y-98970000D01*
X132987768Y-98093374D01*
X132734710Y-98175727D01*
X132604913Y-98446418D01*
X132530419Y-98737230D01*
X132514091Y-99036988D01*
X113908057Y-99036988D01*
X113909908Y-99003012D01*
X113867443Y-98705829D01*
X113767816Y-98422641D01*
X113689289Y-98275727D01*
X113436231Y-98193374D01*
X112559605Y-99070000D01*
X112200395Y-99070000D01*
X112186253Y-99055858D01*
X112365858Y-98876253D01*
X112380000Y-98890395D01*
X113256626Y-98013769D01*
X113174273Y-97760711D01*
X112903582Y-97630914D01*
X112612770Y-97556420D01*
X112313012Y-97540092D01*
X112194561Y-97557018D01*
X112336579Y-97415000D01*
X118758439Y-97415000D01*
X118816232Y-97501493D01*
X119028507Y-97713768D01*
X119278115Y-97880551D01*
X119555466Y-97995434D01*
X119849899Y-98054000D01*
X120150101Y-98054000D01*
X120444534Y-97995434D01*
X120641689Y-97913769D01*
X133167373Y-97913769D01*
X134043999Y-98790395D01*
X134920625Y-97913769D01*
X134838272Y-97660711D01*
X134567581Y-97530914D01*
X134276769Y-97456420D01*
X133977011Y-97440092D01*
X133679828Y-97482557D01*
X133396640Y-97582184D01*
X133249726Y-97660711D01*
X133167373Y-97913769D01*
X120641689Y-97913769D01*
X120721885Y-97880551D01*
X120971493Y-97713768D01*
X121183768Y-97501493D01*
X121350551Y-97251885D01*
X121465434Y-96974534D01*
X121524000Y-96680101D01*
X121524000Y-96379899D01*
X121465434Y-96085466D01*
X121350551Y-95808115D01*
X121183768Y-95558507D01*
X120971493Y-95346232D01*
X120842438Y-95260000D01*
X120971493Y-95173768D01*
X121183768Y-94961493D01*
X121350551Y-94711885D01*
X121465434Y-94434534D01*
X121524000Y-94140101D01*
X121524000Y-93839899D01*
X121465434Y-93545466D01*
X121350551Y-93268115D01*
X121183768Y-93018507D01*
X120971493Y-92806232D01*
X120721885Y-92639449D01*
X120444534Y-92524566D01*
X120150101Y-92466000D01*
X119849899Y-92466000D01*
X119555466Y-92524566D01*
X119278115Y-92639449D01*
X119028507Y-92806232D01*
X118816232Y-93018507D01*
X118649449Y-93268115D01*
X118534566Y-93545466D01*
X118476000Y-93839899D01*
X118476000Y-94140101D01*
X118534566Y-94434534D01*
X118649449Y-94711885D01*
X118816232Y-94961493D01*
X119028507Y-95173768D01*
X119157562Y-95260000D01*
X119028507Y-95346232D01*
X118816232Y-95558507D01*
X118758439Y-95645000D01*
X112013466Y-95645000D01*
X111969999Y-95640719D01*
X111926533Y-95645000D01*
X111926523Y-95645000D01*
X111796510Y-95657805D01*
X111629687Y-95708411D01*
X111475941Y-95790589D01*
X111475939Y-95790590D01*
X111475940Y-95790590D01*
X111374953Y-95873468D01*
X111374951Y-95873470D01*
X111341183Y-95901183D01*
X111313470Y-95934951D01*
X110526266Y-96722156D01*
X110476632Y-96629297D01*
X110353752Y-96479568D01*
X110279714Y-96418806D01*
X110301185Y-96401185D01*
X110375843Y-96310214D01*
X110438485Y-96258805D01*
X110517837Y-96162114D01*
X110576802Y-96051800D01*
X110613112Y-95932102D01*
X110625372Y-95807620D01*
X110622300Y-95393370D01*
X110463550Y-95234620D01*
X110333870Y-95234620D01*
X110326250Y-95227000D01*
X109127000Y-95227000D01*
X109127000Y-95234620D01*
X108873000Y-95234620D01*
X108873000Y-95227000D01*
X107673750Y-95227000D01*
X107666130Y-95234620D01*
X107614300Y-95234620D01*
X107614300Y-95254620D01*
X107360300Y-95254620D01*
X107360300Y-95234620D01*
X107340300Y-95234620D01*
X107340300Y-94980620D01*
X107360300Y-94980620D01*
X107360300Y-94250000D01*
X107511928Y-94250000D01*
X107515000Y-94814250D01*
X107614300Y-94913550D01*
X107614300Y-94980620D01*
X110463550Y-94980620D01*
X110622300Y-94821870D01*
X110625372Y-94407620D01*
X110613112Y-94283138D01*
X110576802Y-94163440D01*
X110517837Y-94053126D01*
X110438485Y-93956435D01*
X110393271Y-93919329D01*
X110380537Y-93895506D01*
X110301185Y-93798815D01*
X110204494Y-93719463D01*
X110094180Y-93660498D01*
X109974482Y-93624188D01*
X109850000Y-93611928D01*
X109285750Y-93615000D01*
X109130013Y-93770737D01*
X108870348Y-93771098D01*
X108714250Y-93615000D01*
X108150000Y-93611928D01*
X108025518Y-93624188D01*
X107905820Y-93660498D01*
X107795506Y-93719463D01*
X107698815Y-93798815D01*
X107619463Y-93895506D01*
X107560498Y-94005820D01*
X107524188Y-94125518D01*
X107511928Y-94250000D01*
X107360300Y-94250000D01*
X107360300Y-93931370D01*
X107201550Y-93772620D01*
X105185000Y-93769822D01*
X105185000Y-91930000D01*
X122391928Y-91930000D01*
X122391928Y-94470000D01*
X122404188Y-94594482D01*
X122440498Y-94714180D01*
X122499463Y-94824494D01*
X122578815Y-94921185D01*
X122675506Y-95000537D01*
X122785820Y-95059502D01*
X122905518Y-95095812D01*
X123030000Y-95108072D01*
X125570000Y-95108072D01*
X125694482Y-95095812D01*
X125814180Y-95059502D01*
X125924494Y-95000537D01*
X126021185Y-94921185D01*
X126100537Y-94824494D01*
X126159502Y-94714180D01*
X126195812Y-94594482D01*
X126202374Y-94527852D01*
X128151753Y-94527852D01*
X128280076Y-94819871D01*
X128615695Y-94987723D01*
X128977611Y-95086874D01*
X129351916Y-95113514D01*
X129724227Y-95066618D01*
X130080235Y-94947988D01*
X130319924Y-94819871D01*
X130448247Y-94527852D01*
X129300000Y-93379605D01*
X128151753Y-94527852D01*
X126202374Y-94527852D01*
X126208072Y-94470000D01*
X126208072Y-93251916D01*
X127386486Y-93251916D01*
X127433382Y-93624227D01*
X127552012Y-93980235D01*
X127680129Y-94219924D01*
X127972148Y-94348247D01*
X129120395Y-93200000D01*
X129479605Y-93200000D01*
X130627852Y-94348247D01*
X130919871Y-94219924D01*
X131087723Y-93884305D01*
X131186874Y-93522389D01*
X131213514Y-93148084D01*
X131166618Y-92775773D01*
X131047988Y-92419765D01*
X130919871Y-92180076D01*
X130627852Y-92051753D01*
X129479605Y-93200000D01*
X129120395Y-93200000D01*
X127972148Y-92051753D01*
X127680129Y-92180076D01*
X127512277Y-92515695D01*
X127413126Y-92877611D01*
X127386486Y-93251916D01*
X126208072Y-93251916D01*
X126208072Y-91930000D01*
X126202375Y-91872148D01*
X128151753Y-91872148D01*
X129300000Y-93020395D01*
X130448247Y-91872148D01*
X130319924Y-91580129D01*
X129984305Y-91412277D01*
X129622389Y-91313126D01*
X129248084Y-91286486D01*
X128875773Y-91333382D01*
X128519765Y-91452012D01*
X128280076Y-91580129D01*
X128151753Y-91872148D01*
X126202375Y-91872148D01*
X126195812Y-91805518D01*
X126159502Y-91685820D01*
X126100537Y-91575506D01*
X126021185Y-91478815D01*
X125924494Y-91399463D01*
X125814180Y-91340498D01*
X125694482Y-91304188D01*
X125570000Y-91291928D01*
X123030000Y-91291928D01*
X122905518Y-91304188D01*
X122785820Y-91340498D01*
X122675506Y-91399463D01*
X122578815Y-91478815D01*
X122499463Y-91575506D01*
X122440498Y-91685820D01*
X122404188Y-91805518D01*
X122391928Y-91930000D01*
X105185000Y-91930000D01*
X105185000Y-89685000D01*
X149315000Y-89685000D01*
X149315000Y-93669787D01*
M02*
