G04 #@! TF.GenerationSoftware,KiCad,Pcbnew,5.1.5+dfsg1-2build2*
G04 #@! TF.CreationDate,2022-12-10T10:35:03-05:00*
G04 #@! TF.ProjectId,double-tuned-bpf,646f7562-6c65-42d7-9475-6e65642d6270,rev?*
G04 #@! TF.SameCoordinates,Original*
G04 #@! TF.FileFunction,Copper,L2,Bot*
G04 #@! TF.FilePolarity,Positive*
%FSLAX46Y46*%
G04 Gerber Fmt 4.6, Leading zero omitted, Abs format (unit mm)*
G04 Created by KiCad (PCBNEW 5.1.5+dfsg1-2build2) date 2022-12-10 10:35:03*
%MOMM*%
%LPD*%
G04 APERTURE LIST*
%ADD10O,1.700000X1.700000*%
%ADD11R,1.700000X1.700000*%
%ADD12C,0.100000*%
%ADD13R,2.540000X2.540000*%
%ADD14C,2.540000*%
%ADD15C,1.778000*%
%ADD16C,0.500000*%
%ADD17C,0.254000*%
G04 APERTURE END LIST*
D10*
X145500000Y-99980000D03*
X145500000Y-97440000D03*
D11*
X145500000Y-94900000D03*
G04 #@! TA.AperFunction,SMDPad,CuDef*
D12*
G36*
X149176686Y-99130225D02*
G01*
X149210662Y-99135265D01*
X149243980Y-99143611D01*
X149276319Y-99155182D01*
X149307369Y-99169868D01*
X149336830Y-99187526D01*
X149364418Y-99207986D01*
X149389867Y-99231053D01*
X149412934Y-99256502D01*
X149433394Y-99284090D01*
X149451052Y-99313551D01*
X149465738Y-99344601D01*
X149477309Y-99376940D01*
X149485655Y-99410258D01*
X149490695Y-99444234D01*
X149492380Y-99478540D01*
X149492380Y-100178540D01*
X149490695Y-100212846D01*
X149485655Y-100246822D01*
X149477309Y-100280140D01*
X149465738Y-100312479D01*
X149451052Y-100343529D01*
X149433394Y-100372990D01*
X149412934Y-100400578D01*
X149389867Y-100426027D01*
X149364418Y-100449094D01*
X149336830Y-100469554D01*
X149307369Y-100487212D01*
X149276319Y-100501898D01*
X149243980Y-100513469D01*
X149210662Y-100521815D01*
X149176686Y-100526855D01*
X149142380Y-100528540D01*
X144842380Y-100528540D01*
X144808074Y-100526855D01*
X144774098Y-100521815D01*
X144740780Y-100513469D01*
X144708441Y-100501898D01*
X144677391Y-100487212D01*
X144647930Y-100469554D01*
X144620342Y-100449094D01*
X144594893Y-100426027D01*
X144571826Y-100400578D01*
X144551366Y-100372990D01*
X144533708Y-100343529D01*
X144519022Y-100312479D01*
X144507451Y-100280140D01*
X144499105Y-100246822D01*
X144494065Y-100212846D01*
X144492380Y-100178540D01*
X144492380Y-99478540D01*
X144494065Y-99444234D01*
X144499105Y-99410258D01*
X144507451Y-99376940D01*
X144519022Y-99344601D01*
X144533708Y-99313551D01*
X144551366Y-99284090D01*
X144571826Y-99256502D01*
X144594893Y-99231053D01*
X144620342Y-99207986D01*
X144647930Y-99187526D01*
X144677391Y-99169868D01*
X144708441Y-99155182D01*
X144740780Y-99143611D01*
X144774098Y-99135265D01*
X144808074Y-99130225D01*
X144842380Y-99128540D01*
X149142380Y-99128540D01*
X149176686Y-99130225D01*
G37*
G04 #@! TD.AperFunction*
G04 #@! TA.AperFunction,SMDPad,CuDef*
G36*
X149184306Y-94301685D02*
G01*
X149218282Y-94306725D01*
X149251600Y-94315071D01*
X149283939Y-94326642D01*
X149314989Y-94341328D01*
X149344450Y-94358986D01*
X149372038Y-94379446D01*
X149397487Y-94402513D01*
X149420554Y-94427962D01*
X149441014Y-94455550D01*
X149458672Y-94485011D01*
X149473358Y-94516061D01*
X149484929Y-94548400D01*
X149493275Y-94581718D01*
X149498315Y-94615694D01*
X149500000Y-94650000D01*
X149500000Y-95350000D01*
X149498315Y-95384306D01*
X149493275Y-95418282D01*
X149484929Y-95451600D01*
X149473358Y-95483939D01*
X149458672Y-95514989D01*
X149441014Y-95544450D01*
X149420554Y-95572038D01*
X149397487Y-95597487D01*
X149372038Y-95620554D01*
X149344450Y-95641014D01*
X149314989Y-95658672D01*
X149283939Y-95673358D01*
X149251600Y-95684929D01*
X149218282Y-95693275D01*
X149184306Y-95698315D01*
X149150000Y-95700000D01*
X144850000Y-95700000D01*
X144815694Y-95698315D01*
X144781718Y-95693275D01*
X144748400Y-95684929D01*
X144716061Y-95673358D01*
X144685011Y-95658672D01*
X144655550Y-95641014D01*
X144627962Y-95620554D01*
X144602513Y-95597487D01*
X144579446Y-95572038D01*
X144558986Y-95544450D01*
X144541328Y-95514989D01*
X144526642Y-95483939D01*
X144515071Y-95451600D01*
X144506725Y-95418282D01*
X144501685Y-95384306D01*
X144500000Y-95350000D01*
X144500000Y-94650000D01*
X144501685Y-94615694D01*
X144506725Y-94581718D01*
X144515071Y-94548400D01*
X144526642Y-94516061D01*
X144541328Y-94485011D01*
X144558986Y-94455550D01*
X144579446Y-94427962D01*
X144602513Y-94402513D01*
X144627962Y-94379446D01*
X144655550Y-94358986D01*
X144685011Y-94341328D01*
X144716061Y-94326642D01*
X144748400Y-94315071D01*
X144781718Y-94306725D01*
X144815694Y-94301685D01*
X144850000Y-94300000D01*
X149150000Y-94300000D01*
X149184306Y-94301685D01*
G37*
G04 #@! TD.AperFunction*
G04 #@! TA.AperFunction,SMDPad,CuDef*
G36*
X109676686Y-99230225D02*
G01*
X109710662Y-99235265D01*
X109743980Y-99243611D01*
X109776319Y-99255182D01*
X109807369Y-99269868D01*
X109836830Y-99287526D01*
X109864418Y-99307986D01*
X109889867Y-99331053D01*
X109912934Y-99356502D01*
X109933394Y-99384090D01*
X109951052Y-99413551D01*
X109965738Y-99444601D01*
X109977309Y-99476940D01*
X109985655Y-99510258D01*
X109990695Y-99544234D01*
X109992380Y-99578540D01*
X109992380Y-100278540D01*
X109990695Y-100312846D01*
X109985655Y-100346822D01*
X109977309Y-100380140D01*
X109965738Y-100412479D01*
X109951052Y-100443529D01*
X109933394Y-100472990D01*
X109912934Y-100500578D01*
X109889867Y-100526027D01*
X109864418Y-100549094D01*
X109836830Y-100569554D01*
X109807369Y-100587212D01*
X109776319Y-100601898D01*
X109743980Y-100613469D01*
X109710662Y-100621815D01*
X109676686Y-100626855D01*
X109642380Y-100628540D01*
X105342380Y-100628540D01*
X105308074Y-100626855D01*
X105274098Y-100621815D01*
X105240780Y-100613469D01*
X105208441Y-100601898D01*
X105177391Y-100587212D01*
X105147930Y-100569554D01*
X105120342Y-100549094D01*
X105094893Y-100526027D01*
X105071826Y-100500578D01*
X105051366Y-100472990D01*
X105033708Y-100443529D01*
X105019022Y-100412479D01*
X105007451Y-100380140D01*
X104999105Y-100346822D01*
X104994065Y-100312846D01*
X104992380Y-100278540D01*
X104992380Y-99578540D01*
X104994065Y-99544234D01*
X104999105Y-99510258D01*
X105007451Y-99476940D01*
X105019022Y-99444601D01*
X105033708Y-99413551D01*
X105051366Y-99384090D01*
X105071826Y-99356502D01*
X105094893Y-99331053D01*
X105120342Y-99307986D01*
X105147930Y-99287526D01*
X105177391Y-99269868D01*
X105208441Y-99255182D01*
X105240780Y-99243611D01*
X105274098Y-99235265D01*
X105308074Y-99230225D01*
X105342380Y-99228540D01*
X109642380Y-99228540D01*
X109676686Y-99230225D01*
G37*
G04 #@! TD.AperFunction*
G04 #@! TA.AperFunction,SMDPad,CuDef*
G36*
X109684306Y-94401685D02*
G01*
X109718282Y-94406725D01*
X109751600Y-94415071D01*
X109783939Y-94426642D01*
X109814989Y-94441328D01*
X109844450Y-94458986D01*
X109872038Y-94479446D01*
X109897487Y-94502513D01*
X109920554Y-94527962D01*
X109941014Y-94555550D01*
X109958672Y-94585011D01*
X109973358Y-94616061D01*
X109984929Y-94648400D01*
X109993275Y-94681718D01*
X109998315Y-94715694D01*
X110000000Y-94750000D01*
X110000000Y-95450000D01*
X109998315Y-95484306D01*
X109993275Y-95518282D01*
X109984929Y-95551600D01*
X109973358Y-95583939D01*
X109958672Y-95614989D01*
X109941014Y-95644450D01*
X109920554Y-95672038D01*
X109897487Y-95697487D01*
X109872038Y-95720554D01*
X109844450Y-95741014D01*
X109814989Y-95758672D01*
X109783939Y-95773358D01*
X109751600Y-95784929D01*
X109718282Y-95793275D01*
X109684306Y-95798315D01*
X109650000Y-95800000D01*
X105350000Y-95800000D01*
X105315694Y-95798315D01*
X105281718Y-95793275D01*
X105248400Y-95784929D01*
X105216061Y-95773358D01*
X105185011Y-95758672D01*
X105155550Y-95741014D01*
X105127962Y-95720554D01*
X105102513Y-95697487D01*
X105079446Y-95672038D01*
X105058986Y-95644450D01*
X105041328Y-95614989D01*
X105026642Y-95583939D01*
X105015071Y-95551600D01*
X105006725Y-95518282D01*
X105001685Y-95484306D01*
X105000000Y-95450000D01*
X105000000Y-94750000D01*
X105001685Y-94715694D01*
X105006725Y-94681718D01*
X105015071Y-94648400D01*
X105026642Y-94616061D01*
X105041328Y-94585011D01*
X105058986Y-94555550D01*
X105079446Y-94527962D01*
X105102513Y-94502513D01*
X105127962Y-94479446D01*
X105155550Y-94458986D01*
X105185011Y-94441328D01*
X105216061Y-94426642D01*
X105248400Y-94415071D01*
X105281718Y-94406725D01*
X105315694Y-94401685D01*
X105350000Y-94400000D01*
X109650000Y-94400000D01*
X109684306Y-94401685D01*
G37*
G04 #@! TD.AperFunction*
D10*
X109000000Y-100180000D03*
X109000000Y-97640000D03*
D11*
X109000000Y-95100000D03*
D13*
X124300000Y-102300000D03*
D14*
X129300000Y-102300000D03*
D13*
X124300000Y-93200000D03*
D14*
X129300000Y-93200000D03*
D15*
X141663999Y-96430000D03*
X134043999Y-101510000D03*
X141663999Y-93890000D03*
X134043999Y-98970000D03*
X120000000Y-96530000D03*
X112380000Y-101610000D03*
X120000000Y-93990000D03*
X112380000Y-99070000D03*
G04 #@! TA.AperFunction,SMDPad,CuDef*
D12*
G36*
X131849504Y-95776204D02*
G01*
X131873773Y-95779804D01*
X131897571Y-95785765D01*
X131920671Y-95794030D01*
X131942849Y-95804520D01*
X131963893Y-95817133D01*
X131983598Y-95831747D01*
X132001777Y-95848223D01*
X132018253Y-95866402D01*
X132032867Y-95886107D01*
X132045480Y-95907151D01*
X132055970Y-95929329D01*
X132064235Y-95952429D01*
X132070196Y-95976227D01*
X132073796Y-96000496D01*
X132075000Y-96025000D01*
X132075000Y-96775000D01*
X132073796Y-96799504D01*
X132070196Y-96823773D01*
X132064235Y-96847571D01*
X132055970Y-96870671D01*
X132045480Y-96892849D01*
X132032867Y-96913893D01*
X132018253Y-96933598D01*
X132001777Y-96951777D01*
X131983598Y-96968253D01*
X131963893Y-96982867D01*
X131942849Y-96995480D01*
X131920671Y-97005970D01*
X131897571Y-97014235D01*
X131873773Y-97020196D01*
X131849504Y-97023796D01*
X131825000Y-97025000D01*
X130575000Y-97025000D01*
X130550496Y-97023796D01*
X130526227Y-97020196D01*
X130502429Y-97014235D01*
X130479329Y-97005970D01*
X130457151Y-96995480D01*
X130436107Y-96982867D01*
X130416402Y-96968253D01*
X130398223Y-96951777D01*
X130381747Y-96933598D01*
X130367133Y-96913893D01*
X130354520Y-96892849D01*
X130344030Y-96870671D01*
X130335765Y-96847571D01*
X130329804Y-96823773D01*
X130326204Y-96799504D01*
X130325000Y-96775000D01*
X130325000Y-96025000D01*
X130326204Y-96000496D01*
X130329804Y-95976227D01*
X130335765Y-95952429D01*
X130344030Y-95929329D01*
X130354520Y-95907151D01*
X130367133Y-95886107D01*
X130381747Y-95866402D01*
X130398223Y-95848223D01*
X130416402Y-95831747D01*
X130436107Y-95817133D01*
X130457151Y-95804520D01*
X130479329Y-95794030D01*
X130502429Y-95785765D01*
X130526227Y-95779804D01*
X130550496Y-95776204D01*
X130575000Y-95775000D01*
X131825000Y-95775000D01*
X131849504Y-95776204D01*
G37*
G04 #@! TD.AperFunction*
G04 #@! TA.AperFunction,SMDPad,CuDef*
G36*
X131849504Y-98576204D02*
G01*
X131873773Y-98579804D01*
X131897571Y-98585765D01*
X131920671Y-98594030D01*
X131942849Y-98604520D01*
X131963893Y-98617133D01*
X131983598Y-98631747D01*
X132001777Y-98648223D01*
X132018253Y-98666402D01*
X132032867Y-98686107D01*
X132045480Y-98707151D01*
X132055970Y-98729329D01*
X132064235Y-98752429D01*
X132070196Y-98776227D01*
X132073796Y-98800496D01*
X132075000Y-98825000D01*
X132075000Y-99575000D01*
X132073796Y-99599504D01*
X132070196Y-99623773D01*
X132064235Y-99647571D01*
X132055970Y-99670671D01*
X132045480Y-99692849D01*
X132032867Y-99713893D01*
X132018253Y-99733598D01*
X132001777Y-99751777D01*
X131983598Y-99768253D01*
X131963893Y-99782867D01*
X131942849Y-99795480D01*
X131920671Y-99805970D01*
X131897571Y-99814235D01*
X131873773Y-99820196D01*
X131849504Y-99823796D01*
X131825000Y-99825000D01*
X130575000Y-99825000D01*
X130550496Y-99823796D01*
X130526227Y-99820196D01*
X130502429Y-99814235D01*
X130479329Y-99805970D01*
X130457151Y-99795480D01*
X130436107Y-99782867D01*
X130416402Y-99768253D01*
X130398223Y-99751777D01*
X130381747Y-99733598D01*
X130367133Y-99713893D01*
X130354520Y-99692849D01*
X130344030Y-99670671D01*
X130335765Y-99647571D01*
X130329804Y-99623773D01*
X130326204Y-99599504D01*
X130325000Y-99575000D01*
X130325000Y-98825000D01*
X130326204Y-98800496D01*
X130329804Y-98776227D01*
X130335765Y-98752429D01*
X130344030Y-98729329D01*
X130354520Y-98707151D01*
X130367133Y-98686107D01*
X130381747Y-98666402D01*
X130398223Y-98648223D01*
X130416402Y-98631747D01*
X130436107Y-98617133D01*
X130457151Y-98604520D01*
X130479329Y-98594030D01*
X130502429Y-98585765D01*
X130526227Y-98579804D01*
X130550496Y-98576204D01*
X130575000Y-98575000D01*
X131825000Y-98575000D01*
X131849504Y-98576204D01*
G37*
G04 #@! TD.AperFunction*
G04 #@! TA.AperFunction,SMDPad,CuDef*
G36*
X128699504Y-95576204D02*
G01*
X128723773Y-95579804D01*
X128747571Y-95585765D01*
X128770671Y-95594030D01*
X128792849Y-95604520D01*
X128813893Y-95617133D01*
X128833598Y-95631747D01*
X128851777Y-95648223D01*
X128868253Y-95666402D01*
X128882867Y-95686107D01*
X128895480Y-95707151D01*
X128905970Y-95729329D01*
X128914235Y-95752429D01*
X128920196Y-95776227D01*
X128923796Y-95800496D01*
X128925000Y-95825000D01*
X128925000Y-97075000D01*
X128923796Y-97099504D01*
X128920196Y-97123773D01*
X128914235Y-97147571D01*
X128905970Y-97170671D01*
X128895480Y-97192849D01*
X128882867Y-97213893D01*
X128868253Y-97233598D01*
X128851777Y-97251777D01*
X128833598Y-97268253D01*
X128813893Y-97282867D01*
X128792849Y-97295480D01*
X128770671Y-97305970D01*
X128747571Y-97314235D01*
X128723773Y-97320196D01*
X128699504Y-97323796D01*
X128675000Y-97325000D01*
X127925000Y-97325000D01*
X127900496Y-97323796D01*
X127876227Y-97320196D01*
X127852429Y-97314235D01*
X127829329Y-97305970D01*
X127807151Y-97295480D01*
X127786107Y-97282867D01*
X127766402Y-97268253D01*
X127748223Y-97251777D01*
X127731747Y-97233598D01*
X127717133Y-97213893D01*
X127704520Y-97192849D01*
X127694030Y-97170671D01*
X127685765Y-97147571D01*
X127679804Y-97123773D01*
X127676204Y-97099504D01*
X127675000Y-97075000D01*
X127675000Y-95825000D01*
X127676204Y-95800496D01*
X127679804Y-95776227D01*
X127685765Y-95752429D01*
X127694030Y-95729329D01*
X127704520Y-95707151D01*
X127717133Y-95686107D01*
X127731747Y-95666402D01*
X127748223Y-95648223D01*
X127766402Y-95631747D01*
X127786107Y-95617133D01*
X127807151Y-95604520D01*
X127829329Y-95594030D01*
X127852429Y-95585765D01*
X127876227Y-95579804D01*
X127900496Y-95576204D01*
X127925000Y-95575000D01*
X128675000Y-95575000D01*
X128699504Y-95576204D01*
G37*
G04 #@! TD.AperFunction*
G04 #@! TA.AperFunction,SMDPad,CuDef*
G36*
X125899504Y-95576204D02*
G01*
X125923773Y-95579804D01*
X125947571Y-95585765D01*
X125970671Y-95594030D01*
X125992849Y-95604520D01*
X126013893Y-95617133D01*
X126033598Y-95631747D01*
X126051777Y-95648223D01*
X126068253Y-95666402D01*
X126082867Y-95686107D01*
X126095480Y-95707151D01*
X126105970Y-95729329D01*
X126114235Y-95752429D01*
X126120196Y-95776227D01*
X126123796Y-95800496D01*
X126125000Y-95825000D01*
X126125000Y-97075000D01*
X126123796Y-97099504D01*
X126120196Y-97123773D01*
X126114235Y-97147571D01*
X126105970Y-97170671D01*
X126095480Y-97192849D01*
X126082867Y-97213893D01*
X126068253Y-97233598D01*
X126051777Y-97251777D01*
X126033598Y-97268253D01*
X126013893Y-97282867D01*
X125992849Y-97295480D01*
X125970671Y-97305970D01*
X125947571Y-97314235D01*
X125923773Y-97320196D01*
X125899504Y-97323796D01*
X125875000Y-97325000D01*
X125125000Y-97325000D01*
X125100496Y-97323796D01*
X125076227Y-97320196D01*
X125052429Y-97314235D01*
X125029329Y-97305970D01*
X125007151Y-97295480D01*
X124986107Y-97282867D01*
X124966402Y-97268253D01*
X124948223Y-97251777D01*
X124931747Y-97233598D01*
X124917133Y-97213893D01*
X124904520Y-97192849D01*
X124894030Y-97170671D01*
X124885765Y-97147571D01*
X124879804Y-97123773D01*
X124876204Y-97099504D01*
X124875000Y-97075000D01*
X124875000Y-95825000D01*
X124876204Y-95800496D01*
X124879804Y-95776227D01*
X124885765Y-95752429D01*
X124894030Y-95729329D01*
X124904520Y-95707151D01*
X124917133Y-95686107D01*
X124931747Y-95666402D01*
X124948223Y-95648223D01*
X124966402Y-95631747D01*
X124986107Y-95617133D01*
X125007151Y-95604520D01*
X125029329Y-95594030D01*
X125052429Y-95585765D01*
X125076227Y-95579804D01*
X125100496Y-95576204D01*
X125125000Y-95575000D01*
X125875000Y-95575000D01*
X125899504Y-95576204D01*
G37*
G04 #@! TD.AperFunction*
G04 #@! TA.AperFunction,SMDPad,CuDef*
G36*
X128699504Y-98226204D02*
G01*
X128723773Y-98229804D01*
X128747571Y-98235765D01*
X128770671Y-98244030D01*
X128792849Y-98254520D01*
X128813893Y-98267133D01*
X128833598Y-98281747D01*
X128851777Y-98298223D01*
X128868253Y-98316402D01*
X128882867Y-98336107D01*
X128895480Y-98357151D01*
X128905970Y-98379329D01*
X128914235Y-98402429D01*
X128920196Y-98426227D01*
X128923796Y-98450496D01*
X128925000Y-98475000D01*
X128925000Y-99725000D01*
X128923796Y-99749504D01*
X128920196Y-99773773D01*
X128914235Y-99797571D01*
X128905970Y-99820671D01*
X128895480Y-99842849D01*
X128882867Y-99863893D01*
X128868253Y-99883598D01*
X128851777Y-99901777D01*
X128833598Y-99918253D01*
X128813893Y-99932867D01*
X128792849Y-99945480D01*
X128770671Y-99955970D01*
X128747571Y-99964235D01*
X128723773Y-99970196D01*
X128699504Y-99973796D01*
X128675000Y-99975000D01*
X127925000Y-99975000D01*
X127900496Y-99973796D01*
X127876227Y-99970196D01*
X127852429Y-99964235D01*
X127829329Y-99955970D01*
X127807151Y-99945480D01*
X127786107Y-99932867D01*
X127766402Y-99918253D01*
X127748223Y-99901777D01*
X127731747Y-99883598D01*
X127717133Y-99863893D01*
X127704520Y-99842849D01*
X127694030Y-99820671D01*
X127685765Y-99797571D01*
X127679804Y-99773773D01*
X127676204Y-99749504D01*
X127675000Y-99725000D01*
X127675000Y-98475000D01*
X127676204Y-98450496D01*
X127679804Y-98426227D01*
X127685765Y-98402429D01*
X127694030Y-98379329D01*
X127704520Y-98357151D01*
X127717133Y-98336107D01*
X127731747Y-98316402D01*
X127748223Y-98298223D01*
X127766402Y-98281747D01*
X127786107Y-98267133D01*
X127807151Y-98254520D01*
X127829329Y-98244030D01*
X127852429Y-98235765D01*
X127876227Y-98229804D01*
X127900496Y-98226204D01*
X127925000Y-98225000D01*
X128675000Y-98225000D01*
X128699504Y-98226204D01*
G37*
G04 #@! TD.AperFunction*
G04 #@! TA.AperFunction,SMDPad,CuDef*
G36*
X125899504Y-98226204D02*
G01*
X125923773Y-98229804D01*
X125947571Y-98235765D01*
X125970671Y-98244030D01*
X125992849Y-98254520D01*
X126013893Y-98267133D01*
X126033598Y-98281747D01*
X126051777Y-98298223D01*
X126068253Y-98316402D01*
X126082867Y-98336107D01*
X126095480Y-98357151D01*
X126105970Y-98379329D01*
X126114235Y-98402429D01*
X126120196Y-98426227D01*
X126123796Y-98450496D01*
X126125000Y-98475000D01*
X126125000Y-99725000D01*
X126123796Y-99749504D01*
X126120196Y-99773773D01*
X126114235Y-99797571D01*
X126105970Y-99820671D01*
X126095480Y-99842849D01*
X126082867Y-99863893D01*
X126068253Y-99883598D01*
X126051777Y-99901777D01*
X126033598Y-99918253D01*
X126013893Y-99932867D01*
X125992849Y-99945480D01*
X125970671Y-99955970D01*
X125947571Y-99964235D01*
X125923773Y-99970196D01*
X125899504Y-99973796D01*
X125875000Y-99975000D01*
X125125000Y-99975000D01*
X125100496Y-99973796D01*
X125076227Y-99970196D01*
X125052429Y-99964235D01*
X125029329Y-99955970D01*
X125007151Y-99945480D01*
X124986107Y-99932867D01*
X124966402Y-99918253D01*
X124948223Y-99901777D01*
X124931747Y-99883598D01*
X124917133Y-99863893D01*
X124904520Y-99842849D01*
X124894030Y-99820671D01*
X124885765Y-99797571D01*
X124879804Y-99773773D01*
X124876204Y-99749504D01*
X124875000Y-99725000D01*
X124875000Y-98475000D01*
X124876204Y-98450496D01*
X124879804Y-98426227D01*
X124885765Y-98402429D01*
X124894030Y-98379329D01*
X124904520Y-98357151D01*
X124917133Y-98336107D01*
X124931747Y-98316402D01*
X124948223Y-98298223D01*
X124966402Y-98281747D01*
X124986107Y-98267133D01*
X125007151Y-98254520D01*
X125029329Y-98244030D01*
X125052429Y-98235765D01*
X125076227Y-98229804D01*
X125100496Y-98226204D01*
X125125000Y-98225000D01*
X125875000Y-98225000D01*
X125899504Y-98226204D01*
G37*
G04 #@! TD.AperFunction*
G04 #@! TA.AperFunction,SMDPad,CuDef*
G36*
X123299504Y-95776204D02*
G01*
X123323773Y-95779804D01*
X123347571Y-95785765D01*
X123370671Y-95794030D01*
X123392849Y-95804520D01*
X123413893Y-95817133D01*
X123433598Y-95831747D01*
X123451777Y-95848223D01*
X123468253Y-95866402D01*
X123482867Y-95886107D01*
X123495480Y-95907151D01*
X123505970Y-95929329D01*
X123514235Y-95952429D01*
X123520196Y-95976227D01*
X123523796Y-96000496D01*
X123525000Y-96025000D01*
X123525000Y-96775000D01*
X123523796Y-96799504D01*
X123520196Y-96823773D01*
X123514235Y-96847571D01*
X123505970Y-96870671D01*
X123495480Y-96892849D01*
X123482867Y-96913893D01*
X123468253Y-96933598D01*
X123451777Y-96951777D01*
X123433598Y-96968253D01*
X123413893Y-96982867D01*
X123392849Y-96995480D01*
X123370671Y-97005970D01*
X123347571Y-97014235D01*
X123323773Y-97020196D01*
X123299504Y-97023796D01*
X123275000Y-97025000D01*
X122025000Y-97025000D01*
X122000496Y-97023796D01*
X121976227Y-97020196D01*
X121952429Y-97014235D01*
X121929329Y-97005970D01*
X121907151Y-96995480D01*
X121886107Y-96982867D01*
X121866402Y-96968253D01*
X121848223Y-96951777D01*
X121831747Y-96933598D01*
X121817133Y-96913893D01*
X121804520Y-96892849D01*
X121794030Y-96870671D01*
X121785765Y-96847571D01*
X121779804Y-96823773D01*
X121776204Y-96799504D01*
X121775000Y-96775000D01*
X121775000Y-96025000D01*
X121776204Y-96000496D01*
X121779804Y-95976227D01*
X121785765Y-95952429D01*
X121794030Y-95929329D01*
X121804520Y-95907151D01*
X121817133Y-95886107D01*
X121831747Y-95866402D01*
X121848223Y-95848223D01*
X121866402Y-95831747D01*
X121886107Y-95817133D01*
X121907151Y-95804520D01*
X121929329Y-95794030D01*
X121952429Y-95785765D01*
X121976227Y-95779804D01*
X122000496Y-95776204D01*
X122025000Y-95775000D01*
X123275000Y-95775000D01*
X123299504Y-95776204D01*
G37*
G04 #@! TD.AperFunction*
G04 #@! TA.AperFunction,SMDPad,CuDef*
G36*
X123299504Y-98576204D02*
G01*
X123323773Y-98579804D01*
X123347571Y-98585765D01*
X123370671Y-98594030D01*
X123392849Y-98604520D01*
X123413893Y-98617133D01*
X123433598Y-98631747D01*
X123451777Y-98648223D01*
X123468253Y-98666402D01*
X123482867Y-98686107D01*
X123495480Y-98707151D01*
X123505970Y-98729329D01*
X123514235Y-98752429D01*
X123520196Y-98776227D01*
X123523796Y-98800496D01*
X123525000Y-98825000D01*
X123525000Y-99575000D01*
X123523796Y-99599504D01*
X123520196Y-99623773D01*
X123514235Y-99647571D01*
X123505970Y-99670671D01*
X123495480Y-99692849D01*
X123482867Y-99713893D01*
X123468253Y-99733598D01*
X123451777Y-99751777D01*
X123433598Y-99768253D01*
X123413893Y-99782867D01*
X123392849Y-99795480D01*
X123370671Y-99805970D01*
X123347571Y-99814235D01*
X123323773Y-99820196D01*
X123299504Y-99823796D01*
X123275000Y-99825000D01*
X122025000Y-99825000D01*
X122000496Y-99823796D01*
X121976227Y-99820196D01*
X121952429Y-99814235D01*
X121929329Y-99805970D01*
X121907151Y-99795480D01*
X121886107Y-99782867D01*
X121866402Y-99768253D01*
X121848223Y-99751777D01*
X121831747Y-99733598D01*
X121817133Y-99713893D01*
X121804520Y-99692849D01*
X121794030Y-99670671D01*
X121785765Y-99647571D01*
X121779804Y-99623773D01*
X121776204Y-99599504D01*
X121775000Y-99575000D01*
X121775000Y-98825000D01*
X121776204Y-98800496D01*
X121779804Y-98776227D01*
X121785765Y-98752429D01*
X121794030Y-98729329D01*
X121804520Y-98707151D01*
X121817133Y-98686107D01*
X121831747Y-98666402D01*
X121848223Y-98648223D01*
X121866402Y-98631747D01*
X121886107Y-98617133D01*
X121907151Y-98604520D01*
X121929329Y-98594030D01*
X121952429Y-98585765D01*
X121976227Y-98579804D01*
X122000496Y-98576204D01*
X122025000Y-98575000D01*
X123275000Y-98575000D01*
X123299504Y-98576204D01*
G37*
G04 #@! TD.AperFunction*
D16*
X125450000Y-96400000D02*
X125500000Y-96450000D01*
X122650000Y-96400000D02*
X125450000Y-96400000D01*
X125500000Y-94400000D02*
X124300000Y-93200000D01*
X125500000Y-96450000D02*
X125500000Y-94400000D01*
X125500000Y-96450000D02*
X125500000Y-99100000D01*
X120240000Y-93990000D02*
X122650000Y-96400000D01*
X120000000Y-93990000D02*
X120240000Y-93990000D01*
X127675000Y-99100000D02*
X127200000Y-99575000D01*
X128300000Y-99100000D02*
X127675000Y-99100000D01*
X127200000Y-99575000D02*
X127200000Y-101500000D01*
X126400000Y-102300000D02*
X124300000Y-102300000D01*
X127200000Y-101500000D02*
X126400000Y-102300000D01*
X131150000Y-96450000D02*
X131200000Y-96400000D01*
X128300000Y-96450000D02*
X131150000Y-96450000D01*
X128300000Y-99100000D02*
X128300000Y-96450000D01*
X141533999Y-96300000D02*
X141663999Y-96430000D01*
X141633999Y-96400000D02*
X141663999Y-96430000D01*
X131200000Y-96400000D02*
X141633999Y-96400000D01*
D17*
G36*
X149315000Y-93662185D02*
G01*
X147285750Y-93665000D01*
X147127000Y-93823750D01*
X147127000Y-94873000D01*
X147147000Y-94873000D01*
X147147000Y-95127000D01*
X147127000Y-95127000D01*
X147127000Y-96176250D01*
X147285750Y-96335000D01*
X149315000Y-96337815D01*
X149315001Y-98490714D01*
X147278130Y-98493540D01*
X147119380Y-98652290D01*
X147119380Y-99701540D01*
X147139380Y-99701540D01*
X147139380Y-99955540D01*
X147119380Y-99955540D01*
X147119380Y-101004790D01*
X147278130Y-101163540D01*
X149315001Y-101166366D01*
X149315001Y-105315000D01*
X105185000Y-105315000D01*
X105185000Y-102666231D01*
X111503374Y-102666231D01*
X111585727Y-102919289D01*
X111856418Y-103049086D01*
X112147230Y-103123580D01*
X112446988Y-103139908D01*
X112744171Y-103097443D01*
X113027359Y-102997816D01*
X113174273Y-102919289D01*
X113256626Y-102666231D01*
X112380000Y-101789605D01*
X111503374Y-102666231D01*
X105185000Y-102666231D01*
X105185000Y-101676988D01*
X110850092Y-101676988D01*
X110892557Y-101974171D01*
X110992184Y-102257359D01*
X111070711Y-102404273D01*
X111323769Y-102486626D01*
X112200395Y-101610000D01*
X112559605Y-101610000D01*
X113436231Y-102486626D01*
X113689289Y-102404273D01*
X113819086Y-102133582D01*
X113893580Y-101842770D01*
X113909908Y-101543012D01*
X113867443Y-101245829D01*
X113767816Y-100962641D01*
X113689289Y-100815727D01*
X113436231Y-100733374D01*
X112559605Y-101610000D01*
X112200395Y-101610000D01*
X111323769Y-100733374D01*
X111070711Y-100815727D01*
X110940914Y-101086418D01*
X110866420Y-101377230D01*
X110850092Y-101676988D01*
X105185000Y-101676988D01*
X105185000Y-101266345D01*
X107206630Y-101263540D01*
X107365380Y-101104790D01*
X107365380Y-100055540D01*
X107345380Y-100055540D01*
X107345380Y-99801540D01*
X107365380Y-99801540D01*
X107365380Y-98752290D01*
X107206630Y-98593540D01*
X105185000Y-98590735D01*
X105185000Y-96437815D01*
X107214250Y-96435000D01*
X107373000Y-96276250D01*
X107373000Y-95950000D01*
X107511928Y-95950000D01*
X107524188Y-96074482D01*
X107560498Y-96194180D01*
X107619463Y-96304494D01*
X107698815Y-96401185D01*
X107795506Y-96480537D01*
X107905820Y-96539502D01*
X107978380Y-96561513D01*
X107846525Y-96693368D01*
X107684010Y-96936589D01*
X107572068Y-97206842D01*
X107515000Y-97493740D01*
X107515000Y-97786260D01*
X107572068Y-98073158D01*
X107684010Y-98343411D01*
X107846525Y-98586632D01*
X107853329Y-98593436D01*
X107778130Y-98593540D01*
X107619380Y-98752290D01*
X107619380Y-99641879D01*
X107603175Y-99675901D01*
X107558524Y-99823110D01*
X107679845Y-100053000D01*
X108873000Y-100053000D01*
X108873000Y-100033000D01*
X109127000Y-100033000D01*
X109127000Y-100053000D01*
X109147000Y-100053000D01*
X109147000Y-100055540D01*
X107619380Y-100055540D01*
X107619380Y-100421575D01*
X107558524Y-100536890D01*
X107603175Y-100684099D01*
X107619380Y-100718121D01*
X107619380Y-101104790D01*
X107778130Y-101263540D01*
X107995127Y-101263841D01*
X108118645Y-101375178D01*
X108368748Y-101524157D01*
X108643109Y-101621481D01*
X108873000Y-101500814D01*
X108873000Y-101265059D01*
X109127000Y-101265411D01*
X109127000Y-101500814D01*
X109356891Y-101621481D01*
X109631252Y-101524157D01*
X109881355Y-101375178D01*
X110002954Y-101265571D01*
X110116862Y-101254352D01*
X110236560Y-101218042D01*
X110346874Y-101159077D01*
X110443565Y-101079725D01*
X110522917Y-100983034D01*
X110581882Y-100872720D01*
X110618192Y-100753022D01*
X110630452Y-100628540D01*
X110627380Y-100214290D01*
X110539321Y-100126231D01*
X111503374Y-100126231D01*
X111572941Y-100340000D01*
X111503374Y-100553769D01*
X112380000Y-101430395D01*
X113256626Y-100553769D01*
X113187059Y-100340000D01*
X113256626Y-100126231D01*
X112380000Y-99249605D01*
X111503374Y-100126231D01*
X110539321Y-100126231D01*
X110485000Y-100071910D01*
X110485000Y-100052998D01*
X110320156Y-100052998D01*
X110441476Y-99823110D01*
X110434933Y-99801540D01*
X110468630Y-99801540D01*
X110627380Y-99642790D01*
X110630452Y-99228540D01*
X110621436Y-99136988D01*
X110850092Y-99136988D01*
X110892557Y-99434171D01*
X110992184Y-99717359D01*
X111070711Y-99864273D01*
X111323769Y-99946626D01*
X112200395Y-99070000D01*
X112559605Y-99070000D01*
X113436231Y-99946626D01*
X113689289Y-99864273D01*
X113708120Y-99825000D01*
X121136928Y-99825000D01*
X121149188Y-99949482D01*
X121185498Y-100069180D01*
X121244463Y-100179494D01*
X121323815Y-100276185D01*
X121420506Y-100355537D01*
X121530820Y-100414502D01*
X121650518Y-100450812D01*
X121775000Y-100463072D01*
X122364250Y-100460000D01*
X122523000Y-100301250D01*
X122523000Y-99327000D01*
X121298750Y-99327000D01*
X121140000Y-99485750D01*
X121136928Y-99825000D01*
X113708120Y-99825000D01*
X113819086Y-99593582D01*
X113893580Y-99302770D01*
X113909908Y-99003012D01*
X113867443Y-98705829D01*
X113821417Y-98575000D01*
X121136928Y-98575000D01*
X121140000Y-98914250D01*
X121298750Y-99073000D01*
X122523000Y-99073000D01*
X122523000Y-98098750D01*
X122777000Y-98098750D01*
X122777000Y-99073000D01*
X124001250Y-99073000D01*
X124160000Y-98914250D01*
X124163072Y-98575000D01*
X124150812Y-98450518D01*
X124114502Y-98330820D01*
X124055537Y-98220506D01*
X123976185Y-98123815D01*
X123879494Y-98044463D01*
X123769180Y-97985498D01*
X123649482Y-97949188D01*
X123525000Y-97936928D01*
X122935750Y-97940000D01*
X122777000Y-98098750D01*
X122523000Y-98098750D01*
X122364250Y-97940000D01*
X121775000Y-97936928D01*
X121650518Y-97949188D01*
X121530820Y-97985498D01*
X121420506Y-98044463D01*
X121323815Y-98123815D01*
X121244463Y-98220506D01*
X121185498Y-98330820D01*
X121149188Y-98450518D01*
X121136928Y-98575000D01*
X113821417Y-98575000D01*
X113767816Y-98422641D01*
X113689289Y-98275727D01*
X113436231Y-98193374D01*
X112559605Y-99070000D01*
X112200395Y-99070000D01*
X111323769Y-98193374D01*
X111070711Y-98275727D01*
X110940914Y-98546418D01*
X110866420Y-98837230D01*
X110850092Y-99136988D01*
X110621436Y-99136988D01*
X110618192Y-99104058D01*
X110581882Y-98984360D01*
X110522917Y-98874046D01*
X110443565Y-98777355D01*
X110346874Y-98698003D01*
X110236560Y-98639038D01*
X110132604Y-98607503D01*
X110153475Y-98586632D01*
X110315990Y-98343411D01*
X110427932Y-98073158D01*
X110439745Y-98013769D01*
X111503374Y-98013769D01*
X112380000Y-98890395D01*
X113256626Y-98013769D01*
X113174273Y-97760711D01*
X112903582Y-97630914D01*
X112612770Y-97556420D01*
X112313012Y-97540092D01*
X112015829Y-97582557D01*
X111732641Y-97682184D01*
X111585727Y-97760711D01*
X111503374Y-98013769D01*
X110439745Y-98013769D01*
X110485000Y-97786260D01*
X110485000Y-97493740D01*
X110427932Y-97206842D01*
X110315990Y-96936589D01*
X110153475Y-96693368D01*
X110021620Y-96561513D01*
X110094180Y-96539502D01*
X110204494Y-96480537D01*
X110301185Y-96401185D01*
X110368798Y-96318798D01*
X110451185Y-96251185D01*
X110530537Y-96154494D01*
X110589502Y-96044180D01*
X110625812Y-95924482D01*
X110638072Y-95800000D01*
X110635000Y-95385750D01*
X110476250Y-95227000D01*
X107627000Y-95227000D01*
X107627000Y-95273750D01*
X107515000Y-95385750D01*
X107511928Y-95950000D01*
X107373000Y-95950000D01*
X107373000Y-95227000D01*
X107353000Y-95227000D01*
X107353000Y-94973000D01*
X107373000Y-94973000D01*
X107373000Y-94250000D01*
X107511928Y-94250000D01*
X107515000Y-94814250D01*
X107627000Y-94926250D01*
X107627000Y-94973000D01*
X110476250Y-94973000D01*
X110635000Y-94814250D01*
X110638072Y-94400000D01*
X110625812Y-94275518D01*
X110589502Y-94155820D01*
X110530537Y-94045506D01*
X110451185Y-93948815D01*
X110368798Y-93881202D01*
X110334902Y-93839899D01*
X118476000Y-93839899D01*
X118476000Y-94140101D01*
X118534566Y-94434534D01*
X118649449Y-94711885D01*
X118816232Y-94961493D01*
X119028507Y-95173768D01*
X119157562Y-95260000D01*
X119028507Y-95346232D01*
X118816232Y-95558507D01*
X118649449Y-95808115D01*
X118534566Y-96085466D01*
X118476000Y-96379899D01*
X118476000Y-96680101D01*
X118534566Y-96974534D01*
X118649449Y-97251885D01*
X118816232Y-97501493D01*
X119028507Y-97713768D01*
X119278115Y-97880551D01*
X119555466Y-97995434D01*
X119849899Y-98054000D01*
X120150101Y-98054000D01*
X120444534Y-97995434D01*
X120721885Y-97880551D01*
X120971493Y-97713768D01*
X121183768Y-97501493D01*
X121315771Y-97303937D01*
X121397038Y-97402962D01*
X121531614Y-97513405D01*
X121685150Y-97595472D01*
X121851746Y-97646008D01*
X122025000Y-97663072D01*
X123275000Y-97663072D01*
X123448254Y-97646008D01*
X123614850Y-97595472D01*
X123768386Y-97513405D01*
X123902962Y-97402962D01*
X123999770Y-97285000D01*
X124265139Y-97285000D01*
X124304528Y-97414850D01*
X124386595Y-97568386D01*
X124497038Y-97702962D01*
X124584817Y-97775000D01*
X124497038Y-97847038D01*
X124386595Y-97981614D01*
X124304528Y-98135150D01*
X124253992Y-98301746D01*
X124236928Y-98475000D01*
X124236928Y-99725000D01*
X124253992Y-99898254D01*
X124304528Y-100064850D01*
X124386595Y-100218386D01*
X124497038Y-100352962D01*
X124544518Y-100391928D01*
X123811412Y-100391928D01*
X123879494Y-100355537D01*
X123976185Y-100276185D01*
X124055537Y-100179494D01*
X124114502Y-100069180D01*
X124150812Y-99949482D01*
X124163072Y-99825000D01*
X124160000Y-99485750D01*
X124001250Y-99327000D01*
X122777000Y-99327000D01*
X122777000Y-100301250D01*
X122885892Y-100410142D01*
X122785820Y-100440498D01*
X122675506Y-100499463D01*
X122578815Y-100578815D01*
X122499463Y-100675506D01*
X122440498Y-100785820D01*
X122404188Y-100905518D01*
X122391928Y-101030000D01*
X122391928Y-103570000D01*
X122404188Y-103694482D01*
X122440498Y-103814180D01*
X122499463Y-103924494D01*
X122578815Y-104021185D01*
X122675506Y-104100537D01*
X122785820Y-104159502D01*
X122905518Y-104195812D01*
X123030000Y-104208072D01*
X125570000Y-104208072D01*
X125694482Y-104195812D01*
X125814180Y-104159502D01*
X125924494Y-104100537D01*
X126021185Y-104021185D01*
X126100537Y-103924494D01*
X126159502Y-103814180D01*
X126195812Y-103694482D01*
X126202374Y-103627852D01*
X128151753Y-103627852D01*
X128280076Y-103919871D01*
X128615695Y-104087723D01*
X128977611Y-104186874D01*
X129351916Y-104213514D01*
X129724227Y-104166618D01*
X130080235Y-104047988D01*
X130319924Y-103919871D01*
X130448247Y-103627852D01*
X129300000Y-102479605D01*
X128151753Y-103627852D01*
X126202374Y-103627852D01*
X126208072Y-103570000D01*
X126208072Y-103185000D01*
X126356531Y-103185000D01*
X126400000Y-103189281D01*
X126443469Y-103185000D01*
X126443477Y-103185000D01*
X126573490Y-103172195D01*
X126740313Y-103121589D01*
X126894059Y-103039411D01*
X127028817Y-102928817D01*
X127056534Y-102895044D01*
X127410334Y-102541245D01*
X127433382Y-102724227D01*
X127552012Y-103080235D01*
X127680129Y-103319924D01*
X127972148Y-103448247D01*
X129120395Y-102300000D01*
X129479605Y-102300000D01*
X130627852Y-103448247D01*
X130919871Y-103319924D01*
X131087723Y-102984305D01*
X131186874Y-102622389D01*
X131190870Y-102566231D01*
X133167373Y-102566231D01*
X133249726Y-102819289D01*
X133520417Y-102949086D01*
X133811229Y-103023580D01*
X134110987Y-103039908D01*
X134408170Y-102997443D01*
X134691358Y-102897816D01*
X134838272Y-102819289D01*
X134920625Y-102566231D01*
X134043999Y-101689605D01*
X133167373Y-102566231D01*
X131190870Y-102566231D01*
X131213514Y-102248084D01*
X131166618Y-101875773D01*
X131067057Y-101576988D01*
X132514091Y-101576988D01*
X132556556Y-101874171D01*
X132656183Y-102157359D01*
X132734710Y-102304273D01*
X132987768Y-102386626D01*
X133864394Y-101510000D01*
X134223604Y-101510000D01*
X135100230Y-102386626D01*
X135353288Y-102304273D01*
X135483085Y-102033582D01*
X135557579Y-101742770D01*
X135573907Y-101443012D01*
X135531442Y-101145829D01*
X135431815Y-100862641D01*
X135353288Y-100715727D01*
X135100230Y-100633374D01*
X134223604Y-101510000D01*
X133864394Y-101510000D01*
X132987768Y-100633374D01*
X132734710Y-100715727D01*
X132604913Y-100986418D01*
X132530419Y-101277230D01*
X132514091Y-101576988D01*
X131067057Y-101576988D01*
X131047988Y-101519765D01*
X130919871Y-101280076D01*
X130627852Y-101151753D01*
X129479605Y-102300000D01*
X129120395Y-102300000D01*
X129106253Y-102285858D01*
X129285858Y-102106253D01*
X129300000Y-102120395D01*
X130448247Y-100972148D01*
X130319924Y-100680129D01*
X129984305Y-100512277D01*
X129622389Y-100413126D01*
X129260993Y-100387405D01*
X129302962Y-100352962D01*
X129413405Y-100218386D01*
X129495472Y-100064850D01*
X129546008Y-99898254D01*
X129553222Y-99825000D01*
X129686928Y-99825000D01*
X129699188Y-99949482D01*
X129735498Y-100069180D01*
X129794463Y-100179494D01*
X129873815Y-100276185D01*
X129970506Y-100355537D01*
X130080820Y-100414502D01*
X130200518Y-100450812D01*
X130325000Y-100463072D01*
X130914250Y-100460000D01*
X131073000Y-100301250D01*
X131073000Y-99327000D01*
X129848750Y-99327000D01*
X129690000Y-99485750D01*
X129686928Y-99825000D01*
X129553222Y-99825000D01*
X129563072Y-99725000D01*
X129563072Y-98575000D01*
X129686928Y-98575000D01*
X129690000Y-98914250D01*
X129848750Y-99073000D01*
X131073000Y-99073000D01*
X131073000Y-98098750D01*
X131327000Y-98098750D01*
X131327000Y-99073000D01*
X131347000Y-99073000D01*
X131347000Y-99327000D01*
X131327000Y-99327000D01*
X131327000Y-100301250D01*
X131485750Y-100460000D01*
X132075000Y-100463072D01*
X132199482Y-100450812D01*
X132319180Y-100414502D01*
X132429494Y-100355537D01*
X132526185Y-100276185D01*
X132605537Y-100179494D01*
X132664502Y-100069180D01*
X132677530Y-100026231D01*
X133167373Y-100026231D01*
X133236940Y-100240000D01*
X133167373Y-100453769D01*
X134043999Y-101330395D01*
X134920625Y-100453769D01*
X134851058Y-100240000D01*
X134920625Y-100026231D01*
X134043999Y-99149605D01*
X133167373Y-100026231D01*
X132677530Y-100026231D01*
X132700812Y-99949482D01*
X132713072Y-99825000D01*
X132712140Y-99722047D01*
X132734710Y-99764273D01*
X132987768Y-99846626D01*
X133864394Y-98970000D01*
X134223604Y-98970000D01*
X135100230Y-99846626D01*
X135353288Y-99764273D01*
X135483085Y-99493582D01*
X135557579Y-99202770D01*
X135561622Y-99128540D01*
X143854308Y-99128540D01*
X143857380Y-99542790D01*
X144016130Y-99701540D01*
X144099914Y-99701540D01*
X144179844Y-99852998D01*
X144015000Y-99852998D01*
X144015000Y-99956670D01*
X143857380Y-100114290D01*
X143854308Y-100528540D01*
X143866568Y-100653022D01*
X143902878Y-100772720D01*
X143961843Y-100883034D01*
X144041195Y-100979725D01*
X144137886Y-101059077D01*
X144248200Y-101118042D01*
X144367898Y-101154352D01*
X144492380Y-101166612D01*
X144608962Y-101166450D01*
X144618645Y-101175178D01*
X144868748Y-101324157D01*
X145143109Y-101421481D01*
X145373000Y-101300814D01*
X145373000Y-101165390D01*
X145627000Y-101165038D01*
X145627000Y-101300814D01*
X145856891Y-101421481D01*
X146131252Y-101324157D01*
X146381355Y-101175178D01*
X146393785Y-101163974D01*
X146706630Y-101163540D01*
X146865380Y-101004790D01*
X146865380Y-100550117D01*
X146896825Y-100484099D01*
X146941476Y-100336890D01*
X146865380Y-100192696D01*
X146865380Y-99955540D01*
X145353000Y-99955540D01*
X145353000Y-99853000D01*
X145373000Y-99853000D01*
X145373000Y-99833000D01*
X145627000Y-99833000D01*
X145627000Y-99853000D01*
X146820155Y-99853000D01*
X146941476Y-99623110D01*
X146896825Y-99475901D01*
X146865380Y-99409883D01*
X146865380Y-98652290D01*
X146706630Y-98493540D01*
X146546789Y-98493318D01*
X146653475Y-98386632D01*
X146815990Y-98143411D01*
X146927932Y-97873158D01*
X146985000Y-97586260D01*
X146985000Y-97293740D01*
X146927932Y-97006842D01*
X146815990Y-96736589D01*
X146653475Y-96493368D01*
X146521620Y-96361513D01*
X146594180Y-96339502D01*
X146602312Y-96335155D01*
X146714250Y-96335000D01*
X146873000Y-96176250D01*
X146873000Y-96113678D01*
X146880537Y-96104494D01*
X146939502Y-95994180D01*
X146975812Y-95874482D01*
X146988072Y-95750000D01*
X146985000Y-95185750D01*
X146826250Y-95027000D01*
X145627000Y-95027000D01*
X145627000Y-95047000D01*
X145373000Y-95047000D01*
X145373000Y-95027000D01*
X144173750Y-95027000D01*
X144073750Y-95127000D01*
X144023750Y-95127000D01*
X143865000Y-95285750D01*
X143861928Y-95700000D01*
X143874188Y-95824482D01*
X143910498Y-95944180D01*
X143969463Y-96054494D01*
X144048815Y-96151185D01*
X144145506Y-96230537D01*
X144255820Y-96289502D01*
X144375518Y-96325812D01*
X144381268Y-96326378D01*
X144405820Y-96339502D01*
X144478380Y-96361513D01*
X144346525Y-96493368D01*
X144184010Y-96736589D01*
X144072068Y-97006842D01*
X144015000Y-97293740D01*
X144015000Y-97586260D01*
X144072068Y-97873158D01*
X144184010Y-98143411D01*
X144346525Y-98386632D01*
X144454128Y-98494235D01*
X144367898Y-98502728D01*
X144248200Y-98539038D01*
X144137886Y-98598003D01*
X144041195Y-98677355D01*
X143961843Y-98774046D01*
X143902878Y-98884360D01*
X143866568Y-99004058D01*
X143854308Y-99128540D01*
X135561622Y-99128540D01*
X135573907Y-98903012D01*
X135531442Y-98605829D01*
X135431815Y-98322641D01*
X135353288Y-98175727D01*
X135100230Y-98093374D01*
X134223604Y-98970000D01*
X133864394Y-98970000D01*
X132987768Y-98093374D01*
X132734710Y-98175727D01*
X132662309Y-98326718D01*
X132605537Y-98220506D01*
X132526185Y-98123815D01*
X132429494Y-98044463D01*
X132319180Y-97985498D01*
X132199482Y-97949188D01*
X132075000Y-97936928D01*
X131485750Y-97940000D01*
X131327000Y-98098750D01*
X131073000Y-98098750D01*
X130914250Y-97940000D01*
X130325000Y-97936928D01*
X130200518Y-97949188D01*
X130080820Y-97985498D01*
X129970506Y-98044463D01*
X129873815Y-98123815D01*
X129794463Y-98220506D01*
X129735498Y-98330820D01*
X129699188Y-98450518D01*
X129686928Y-98575000D01*
X129563072Y-98575000D01*
X129563072Y-98475000D01*
X129546008Y-98301746D01*
X129495472Y-98135150D01*
X129413405Y-97981614D01*
X129357727Y-97913769D01*
X133167373Y-97913769D01*
X134043999Y-98790395D01*
X134920625Y-97913769D01*
X134838272Y-97660711D01*
X134567581Y-97530914D01*
X134276769Y-97456420D01*
X133977011Y-97440092D01*
X133679828Y-97482557D01*
X133396640Y-97582184D01*
X133249726Y-97660711D01*
X133167373Y-97913769D01*
X129357727Y-97913769D01*
X129302962Y-97847038D01*
X129215183Y-97775000D01*
X129302962Y-97702962D01*
X129413405Y-97568386D01*
X129495472Y-97414850D01*
X129519694Y-97335000D01*
X129891263Y-97335000D01*
X129947038Y-97402962D01*
X130081614Y-97513405D01*
X130235150Y-97595472D01*
X130401746Y-97646008D01*
X130575000Y-97663072D01*
X131825000Y-97663072D01*
X131998254Y-97646008D01*
X132164850Y-97595472D01*
X132318386Y-97513405D01*
X132452962Y-97402962D01*
X132549770Y-97285000D01*
X140402393Y-97285000D01*
X140480231Y-97401493D01*
X140692506Y-97613768D01*
X140942114Y-97780551D01*
X141219465Y-97895434D01*
X141513898Y-97954000D01*
X141814100Y-97954000D01*
X142108533Y-97895434D01*
X142385884Y-97780551D01*
X142635492Y-97613768D01*
X142847767Y-97401493D01*
X143014550Y-97151885D01*
X143129433Y-96874534D01*
X143187999Y-96580101D01*
X143187999Y-96279899D01*
X143129433Y-95985466D01*
X143014550Y-95708115D01*
X142847767Y-95458507D01*
X142635492Y-95246232D01*
X142506437Y-95160000D01*
X142635492Y-95073768D01*
X142847767Y-94861493D01*
X143014550Y-94611885D01*
X143129433Y-94334534D01*
X143136302Y-94300000D01*
X143861928Y-94300000D01*
X143865000Y-94714250D01*
X144023750Y-94873000D01*
X146873000Y-94873000D01*
X146873000Y-94726250D01*
X146985000Y-94614250D01*
X146988072Y-94050000D01*
X146975812Y-93925518D01*
X146939502Y-93805820D01*
X146880537Y-93695506D01*
X146801185Y-93598815D01*
X146704494Y-93519463D01*
X146594180Y-93460498D01*
X146474482Y-93424188D01*
X146350000Y-93411928D01*
X145785750Y-93415000D01*
X145627000Y-93573750D01*
X145627000Y-93663492D01*
X145373000Y-93663139D01*
X145373000Y-93573750D01*
X145214250Y-93415000D01*
X144650000Y-93411928D01*
X144525518Y-93424188D01*
X144405820Y-93460498D01*
X144295506Y-93519463D01*
X144198815Y-93598815D01*
X144119463Y-93695506D01*
X144060498Y-93805820D01*
X144046658Y-93851443D01*
X143969463Y-93945506D01*
X143910498Y-94055820D01*
X143874188Y-94175518D01*
X143861928Y-94300000D01*
X143136302Y-94300000D01*
X143187999Y-94040101D01*
X143187999Y-93739899D01*
X143129433Y-93445466D01*
X143014550Y-93168115D01*
X142847767Y-92918507D01*
X142635492Y-92706232D01*
X142385884Y-92539449D01*
X142108533Y-92424566D01*
X141814100Y-92366000D01*
X141513898Y-92366000D01*
X141219465Y-92424566D01*
X140942114Y-92539449D01*
X140692506Y-92706232D01*
X140480231Y-92918507D01*
X140313448Y-93168115D01*
X140198565Y-93445466D01*
X140139999Y-93739899D01*
X140139999Y-94040101D01*
X140198565Y-94334534D01*
X140313448Y-94611885D01*
X140480231Y-94861493D01*
X140692506Y-95073768D01*
X140821561Y-95160000D01*
X140692506Y-95246232D01*
X140480231Y-95458507D01*
X140442484Y-95515000D01*
X132549770Y-95515000D01*
X132452962Y-95397038D01*
X132318386Y-95286595D01*
X132164850Y-95204528D01*
X131998254Y-95153992D01*
X131825000Y-95136928D01*
X130575000Y-95136928D01*
X130401746Y-95153992D01*
X130235150Y-95204528D01*
X130081614Y-95286595D01*
X129947038Y-95397038D01*
X129836595Y-95531614D01*
X129818750Y-95565000D01*
X129519694Y-95565000D01*
X129495472Y-95485150D01*
X129413405Y-95331614D01*
X129302962Y-95197038D01*
X129186874Y-95101768D01*
X129351916Y-95113514D01*
X129724227Y-95066618D01*
X130080235Y-94947988D01*
X130319924Y-94819871D01*
X130448247Y-94527852D01*
X129300000Y-93379605D01*
X128151753Y-94527852D01*
X128280076Y-94819871D01*
X128514131Y-94936928D01*
X127925000Y-94936928D01*
X127751746Y-94953992D01*
X127585150Y-95004528D01*
X127431614Y-95086595D01*
X127297038Y-95197038D01*
X127186595Y-95331614D01*
X127104528Y-95485150D01*
X127053992Y-95651746D01*
X127036928Y-95825000D01*
X127036928Y-97075000D01*
X127053992Y-97248254D01*
X127104528Y-97414850D01*
X127186595Y-97568386D01*
X127297038Y-97702962D01*
X127384817Y-97775000D01*
X127297038Y-97847038D01*
X127186595Y-97981614D01*
X127104528Y-98135150D01*
X127053992Y-98301746D01*
X127036928Y-98475000D01*
X127036928Y-98482460D01*
X127018466Y-98504956D01*
X126763072Y-98760350D01*
X126763072Y-98475000D01*
X126746008Y-98301746D01*
X126695472Y-98135150D01*
X126613405Y-97981614D01*
X126502962Y-97847038D01*
X126415183Y-97775000D01*
X126502962Y-97702962D01*
X126613405Y-97568386D01*
X126695472Y-97414850D01*
X126746008Y-97248254D01*
X126763072Y-97075000D01*
X126763072Y-95825000D01*
X126746008Y-95651746D01*
X126695472Y-95485150D01*
X126613405Y-95331614D01*
X126502962Y-95197038D01*
X126385000Y-95100230D01*
X126385000Y-94443465D01*
X126389281Y-94399999D01*
X126385000Y-94356533D01*
X126385000Y-94356523D01*
X126372195Y-94226510D01*
X126321589Y-94059687D01*
X126239411Y-93905941D01*
X126209474Y-93869463D01*
X126208072Y-93867755D01*
X126208072Y-93251916D01*
X127386486Y-93251916D01*
X127433382Y-93624227D01*
X127552012Y-93980235D01*
X127680129Y-94219924D01*
X127972148Y-94348247D01*
X129120395Y-93200000D01*
X129479605Y-93200000D01*
X130627852Y-94348247D01*
X130919871Y-94219924D01*
X131087723Y-93884305D01*
X131186874Y-93522389D01*
X131213514Y-93148084D01*
X131166618Y-92775773D01*
X131047988Y-92419765D01*
X130919871Y-92180076D01*
X130627852Y-92051753D01*
X129479605Y-93200000D01*
X129120395Y-93200000D01*
X127972148Y-92051753D01*
X127680129Y-92180076D01*
X127512277Y-92515695D01*
X127413126Y-92877611D01*
X127386486Y-93251916D01*
X126208072Y-93251916D01*
X126208072Y-91930000D01*
X126202375Y-91872148D01*
X128151753Y-91872148D01*
X129300000Y-93020395D01*
X130448247Y-91872148D01*
X130319924Y-91580129D01*
X129984305Y-91412277D01*
X129622389Y-91313126D01*
X129248084Y-91286486D01*
X128875773Y-91333382D01*
X128519765Y-91452012D01*
X128280076Y-91580129D01*
X128151753Y-91872148D01*
X126202375Y-91872148D01*
X126195812Y-91805518D01*
X126159502Y-91685820D01*
X126100537Y-91575506D01*
X126021185Y-91478815D01*
X125924494Y-91399463D01*
X125814180Y-91340498D01*
X125694482Y-91304188D01*
X125570000Y-91291928D01*
X123030000Y-91291928D01*
X122905518Y-91304188D01*
X122785820Y-91340498D01*
X122675506Y-91399463D01*
X122578815Y-91478815D01*
X122499463Y-91575506D01*
X122440498Y-91685820D01*
X122404188Y-91805518D01*
X122391928Y-91930000D01*
X122391928Y-94470000D01*
X122404188Y-94594482D01*
X122440498Y-94714180D01*
X122499463Y-94824494D01*
X122578815Y-94921185D01*
X122675506Y-95000537D01*
X122785820Y-95059502D01*
X122905518Y-95095812D01*
X123030000Y-95108072D01*
X124605444Y-95108072D01*
X124497038Y-95197038D01*
X124386595Y-95331614D01*
X124304528Y-95485150D01*
X124295473Y-95515000D01*
X123999770Y-95515000D01*
X123902962Y-95397038D01*
X123768386Y-95286595D01*
X123614850Y-95204528D01*
X123448254Y-95153992D01*
X123275000Y-95136928D01*
X122638507Y-95136928D01*
X121524000Y-94022422D01*
X121524000Y-93839899D01*
X121465434Y-93545466D01*
X121350551Y-93268115D01*
X121183768Y-93018507D01*
X120971493Y-92806232D01*
X120721885Y-92639449D01*
X120444534Y-92524566D01*
X120150101Y-92466000D01*
X119849899Y-92466000D01*
X119555466Y-92524566D01*
X119278115Y-92639449D01*
X119028507Y-92806232D01*
X118816232Y-93018507D01*
X118649449Y-93268115D01*
X118534566Y-93545466D01*
X118476000Y-93839899D01*
X110334902Y-93839899D01*
X110301185Y-93798815D01*
X110204494Y-93719463D01*
X110094180Y-93660498D01*
X109974482Y-93624188D01*
X109850000Y-93611928D01*
X109285750Y-93615000D01*
X109137626Y-93763124D01*
X108862756Y-93763506D01*
X108714250Y-93615000D01*
X108150000Y-93611928D01*
X108025518Y-93624188D01*
X107905820Y-93660498D01*
X107795506Y-93719463D01*
X107698815Y-93798815D01*
X107619463Y-93895506D01*
X107560498Y-94005820D01*
X107524188Y-94125518D01*
X107511928Y-94250000D01*
X107373000Y-94250000D01*
X107373000Y-93923750D01*
X107214250Y-93765000D01*
X105185000Y-93762185D01*
X105185000Y-89685000D01*
X149315000Y-89685000D01*
X149315000Y-93662185D01*
G37*
X149315000Y-93662185D02*
X147285750Y-93665000D01*
X147127000Y-93823750D01*
X147127000Y-94873000D01*
X147147000Y-94873000D01*
X147147000Y-95127000D01*
X147127000Y-95127000D01*
X147127000Y-96176250D01*
X147285750Y-96335000D01*
X149315000Y-96337815D01*
X149315001Y-98490714D01*
X147278130Y-98493540D01*
X147119380Y-98652290D01*
X147119380Y-99701540D01*
X147139380Y-99701540D01*
X147139380Y-99955540D01*
X147119380Y-99955540D01*
X147119380Y-101004790D01*
X147278130Y-101163540D01*
X149315001Y-101166366D01*
X149315001Y-105315000D01*
X105185000Y-105315000D01*
X105185000Y-102666231D01*
X111503374Y-102666231D01*
X111585727Y-102919289D01*
X111856418Y-103049086D01*
X112147230Y-103123580D01*
X112446988Y-103139908D01*
X112744171Y-103097443D01*
X113027359Y-102997816D01*
X113174273Y-102919289D01*
X113256626Y-102666231D01*
X112380000Y-101789605D01*
X111503374Y-102666231D01*
X105185000Y-102666231D01*
X105185000Y-101676988D01*
X110850092Y-101676988D01*
X110892557Y-101974171D01*
X110992184Y-102257359D01*
X111070711Y-102404273D01*
X111323769Y-102486626D01*
X112200395Y-101610000D01*
X112559605Y-101610000D01*
X113436231Y-102486626D01*
X113689289Y-102404273D01*
X113819086Y-102133582D01*
X113893580Y-101842770D01*
X113909908Y-101543012D01*
X113867443Y-101245829D01*
X113767816Y-100962641D01*
X113689289Y-100815727D01*
X113436231Y-100733374D01*
X112559605Y-101610000D01*
X112200395Y-101610000D01*
X111323769Y-100733374D01*
X111070711Y-100815727D01*
X110940914Y-101086418D01*
X110866420Y-101377230D01*
X110850092Y-101676988D01*
X105185000Y-101676988D01*
X105185000Y-101266345D01*
X107206630Y-101263540D01*
X107365380Y-101104790D01*
X107365380Y-100055540D01*
X107345380Y-100055540D01*
X107345380Y-99801540D01*
X107365380Y-99801540D01*
X107365380Y-98752290D01*
X107206630Y-98593540D01*
X105185000Y-98590735D01*
X105185000Y-96437815D01*
X107214250Y-96435000D01*
X107373000Y-96276250D01*
X107373000Y-95950000D01*
X107511928Y-95950000D01*
X107524188Y-96074482D01*
X107560498Y-96194180D01*
X107619463Y-96304494D01*
X107698815Y-96401185D01*
X107795506Y-96480537D01*
X107905820Y-96539502D01*
X107978380Y-96561513D01*
X107846525Y-96693368D01*
X107684010Y-96936589D01*
X107572068Y-97206842D01*
X107515000Y-97493740D01*
X107515000Y-97786260D01*
X107572068Y-98073158D01*
X107684010Y-98343411D01*
X107846525Y-98586632D01*
X107853329Y-98593436D01*
X107778130Y-98593540D01*
X107619380Y-98752290D01*
X107619380Y-99641879D01*
X107603175Y-99675901D01*
X107558524Y-99823110D01*
X107679845Y-100053000D01*
X108873000Y-100053000D01*
X108873000Y-100033000D01*
X109127000Y-100033000D01*
X109127000Y-100053000D01*
X109147000Y-100053000D01*
X109147000Y-100055540D01*
X107619380Y-100055540D01*
X107619380Y-100421575D01*
X107558524Y-100536890D01*
X107603175Y-100684099D01*
X107619380Y-100718121D01*
X107619380Y-101104790D01*
X107778130Y-101263540D01*
X107995127Y-101263841D01*
X108118645Y-101375178D01*
X108368748Y-101524157D01*
X108643109Y-101621481D01*
X108873000Y-101500814D01*
X108873000Y-101265059D01*
X109127000Y-101265411D01*
X109127000Y-101500814D01*
X109356891Y-101621481D01*
X109631252Y-101524157D01*
X109881355Y-101375178D01*
X110002954Y-101265571D01*
X110116862Y-101254352D01*
X110236560Y-101218042D01*
X110346874Y-101159077D01*
X110443565Y-101079725D01*
X110522917Y-100983034D01*
X110581882Y-100872720D01*
X110618192Y-100753022D01*
X110630452Y-100628540D01*
X110627380Y-100214290D01*
X110539321Y-100126231D01*
X111503374Y-100126231D01*
X111572941Y-100340000D01*
X111503374Y-100553769D01*
X112380000Y-101430395D01*
X113256626Y-100553769D01*
X113187059Y-100340000D01*
X113256626Y-100126231D01*
X112380000Y-99249605D01*
X111503374Y-100126231D01*
X110539321Y-100126231D01*
X110485000Y-100071910D01*
X110485000Y-100052998D01*
X110320156Y-100052998D01*
X110441476Y-99823110D01*
X110434933Y-99801540D01*
X110468630Y-99801540D01*
X110627380Y-99642790D01*
X110630452Y-99228540D01*
X110621436Y-99136988D01*
X110850092Y-99136988D01*
X110892557Y-99434171D01*
X110992184Y-99717359D01*
X111070711Y-99864273D01*
X111323769Y-99946626D01*
X112200395Y-99070000D01*
X112559605Y-99070000D01*
X113436231Y-99946626D01*
X113689289Y-99864273D01*
X113708120Y-99825000D01*
X121136928Y-99825000D01*
X121149188Y-99949482D01*
X121185498Y-100069180D01*
X121244463Y-100179494D01*
X121323815Y-100276185D01*
X121420506Y-100355537D01*
X121530820Y-100414502D01*
X121650518Y-100450812D01*
X121775000Y-100463072D01*
X122364250Y-100460000D01*
X122523000Y-100301250D01*
X122523000Y-99327000D01*
X121298750Y-99327000D01*
X121140000Y-99485750D01*
X121136928Y-99825000D01*
X113708120Y-99825000D01*
X113819086Y-99593582D01*
X113893580Y-99302770D01*
X113909908Y-99003012D01*
X113867443Y-98705829D01*
X113821417Y-98575000D01*
X121136928Y-98575000D01*
X121140000Y-98914250D01*
X121298750Y-99073000D01*
X122523000Y-99073000D01*
X122523000Y-98098750D01*
X122777000Y-98098750D01*
X122777000Y-99073000D01*
X124001250Y-99073000D01*
X124160000Y-98914250D01*
X124163072Y-98575000D01*
X124150812Y-98450518D01*
X124114502Y-98330820D01*
X124055537Y-98220506D01*
X123976185Y-98123815D01*
X123879494Y-98044463D01*
X123769180Y-97985498D01*
X123649482Y-97949188D01*
X123525000Y-97936928D01*
X122935750Y-97940000D01*
X122777000Y-98098750D01*
X122523000Y-98098750D01*
X122364250Y-97940000D01*
X121775000Y-97936928D01*
X121650518Y-97949188D01*
X121530820Y-97985498D01*
X121420506Y-98044463D01*
X121323815Y-98123815D01*
X121244463Y-98220506D01*
X121185498Y-98330820D01*
X121149188Y-98450518D01*
X121136928Y-98575000D01*
X113821417Y-98575000D01*
X113767816Y-98422641D01*
X113689289Y-98275727D01*
X113436231Y-98193374D01*
X112559605Y-99070000D01*
X112200395Y-99070000D01*
X111323769Y-98193374D01*
X111070711Y-98275727D01*
X110940914Y-98546418D01*
X110866420Y-98837230D01*
X110850092Y-99136988D01*
X110621436Y-99136988D01*
X110618192Y-99104058D01*
X110581882Y-98984360D01*
X110522917Y-98874046D01*
X110443565Y-98777355D01*
X110346874Y-98698003D01*
X110236560Y-98639038D01*
X110132604Y-98607503D01*
X110153475Y-98586632D01*
X110315990Y-98343411D01*
X110427932Y-98073158D01*
X110439745Y-98013769D01*
X111503374Y-98013769D01*
X112380000Y-98890395D01*
X113256626Y-98013769D01*
X113174273Y-97760711D01*
X112903582Y-97630914D01*
X112612770Y-97556420D01*
X112313012Y-97540092D01*
X112015829Y-97582557D01*
X111732641Y-97682184D01*
X111585727Y-97760711D01*
X111503374Y-98013769D01*
X110439745Y-98013769D01*
X110485000Y-97786260D01*
X110485000Y-97493740D01*
X110427932Y-97206842D01*
X110315990Y-96936589D01*
X110153475Y-96693368D01*
X110021620Y-96561513D01*
X110094180Y-96539502D01*
X110204494Y-96480537D01*
X110301185Y-96401185D01*
X110368798Y-96318798D01*
X110451185Y-96251185D01*
X110530537Y-96154494D01*
X110589502Y-96044180D01*
X110625812Y-95924482D01*
X110638072Y-95800000D01*
X110635000Y-95385750D01*
X110476250Y-95227000D01*
X107627000Y-95227000D01*
X107627000Y-95273750D01*
X107515000Y-95385750D01*
X107511928Y-95950000D01*
X107373000Y-95950000D01*
X107373000Y-95227000D01*
X107353000Y-95227000D01*
X107353000Y-94973000D01*
X107373000Y-94973000D01*
X107373000Y-94250000D01*
X107511928Y-94250000D01*
X107515000Y-94814250D01*
X107627000Y-94926250D01*
X107627000Y-94973000D01*
X110476250Y-94973000D01*
X110635000Y-94814250D01*
X110638072Y-94400000D01*
X110625812Y-94275518D01*
X110589502Y-94155820D01*
X110530537Y-94045506D01*
X110451185Y-93948815D01*
X110368798Y-93881202D01*
X110334902Y-93839899D01*
X118476000Y-93839899D01*
X118476000Y-94140101D01*
X118534566Y-94434534D01*
X118649449Y-94711885D01*
X118816232Y-94961493D01*
X119028507Y-95173768D01*
X119157562Y-95260000D01*
X119028507Y-95346232D01*
X118816232Y-95558507D01*
X118649449Y-95808115D01*
X118534566Y-96085466D01*
X118476000Y-96379899D01*
X118476000Y-96680101D01*
X118534566Y-96974534D01*
X118649449Y-97251885D01*
X118816232Y-97501493D01*
X119028507Y-97713768D01*
X119278115Y-97880551D01*
X119555466Y-97995434D01*
X119849899Y-98054000D01*
X120150101Y-98054000D01*
X120444534Y-97995434D01*
X120721885Y-97880551D01*
X120971493Y-97713768D01*
X121183768Y-97501493D01*
X121315771Y-97303937D01*
X121397038Y-97402962D01*
X121531614Y-97513405D01*
X121685150Y-97595472D01*
X121851746Y-97646008D01*
X122025000Y-97663072D01*
X123275000Y-97663072D01*
X123448254Y-97646008D01*
X123614850Y-97595472D01*
X123768386Y-97513405D01*
X123902962Y-97402962D01*
X123999770Y-97285000D01*
X124265139Y-97285000D01*
X124304528Y-97414850D01*
X124386595Y-97568386D01*
X124497038Y-97702962D01*
X124584817Y-97775000D01*
X124497038Y-97847038D01*
X124386595Y-97981614D01*
X124304528Y-98135150D01*
X124253992Y-98301746D01*
X124236928Y-98475000D01*
X124236928Y-99725000D01*
X124253992Y-99898254D01*
X124304528Y-100064850D01*
X124386595Y-100218386D01*
X124497038Y-100352962D01*
X124544518Y-100391928D01*
X123811412Y-100391928D01*
X123879494Y-100355537D01*
X123976185Y-100276185D01*
X124055537Y-100179494D01*
X124114502Y-100069180D01*
X124150812Y-99949482D01*
X124163072Y-99825000D01*
X124160000Y-99485750D01*
X124001250Y-99327000D01*
X122777000Y-99327000D01*
X122777000Y-100301250D01*
X122885892Y-100410142D01*
X122785820Y-100440498D01*
X122675506Y-100499463D01*
X122578815Y-100578815D01*
X122499463Y-100675506D01*
X122440498Y-100785820D01*
X122404188Y-100905518D01*
X122391928Y-101030000D01*
X122391928Y-103570000D01*
X122404188Y-103694482D01*
X122440498Y-103814180D01*
X122499463Y-103924494D01*
X122578815Y-104021185D01*
X122675506Y-104100537D01*
X122785820Y-104159502D01*
X122905518Y-104195812D01*
X123030000Y-104208072D01*
X125570000Y-104208072D01*
X125694482Y-104195812D01*
X125814180Y-104159502D01*
X125924494Y-104100537D01*
X126021185Y-104021185D01*
X126100537Y-103924494D01*
X126159502Y-103814180D01*
X126195812Y-103694482D01*
X126202374Y-103627852D01*
X128151753Y-103627852D01*
X128280076Y-103919871D01*
X128615695Y-104087723D01*
X128977611Y-104186874D01*
X129351916Y-104213514D01*
X129724227Y-104166618D01*
X130080235Y-104047988D01*
X130319924Y-103919871D01*
X130448247Y-103627852D01*
X129300000Y-102479605D01*
X128151753Y-103627852D01*
X126202374Y-103627852D01*
X126208072Y-103570000D01*
X126208072Y-103185000D01*
X126356531Y-103185000D01*
X126400000Y-103189281D01*
X126443469Y-103185000D01*
X126443477Y-103185000D01*
X126573490Y-103172195D01*
X126740313Y-103121589D01*
X126894059Y-103039411D01*
X127028817Y-102928817D01*
X127056534Y-102895044D01*
X127410334Y-102541245D01*
X127433382Y-102724227D01*
X127552012Y-103080235D01*
X127680129Y-103319924D01*
X127972148Y-103448247D01*
X129120395Y-102300000D01*
X129479605Y-102300000D01*
X130627852Y-103448247D01*
X130919871Y-103319924D01*
X131087723Y-102984305D01*
X131186874Y-102622389D01*
X131190870Y-102566231D01*
X133167373Y-102566231D01*
X133249726Y-102819289D01*
X133520417Y-102949086D01*
X133811229Y-103023580D01*
X134110987Y-103039908D01*
X134408170Y-102997443D01*
X134691358Y-102897816D01*
X134838272Y-102819289D01*
X134920625Y-102566231D01*
X134043999Y-101689605D01*
X133167373Y-102566231D01*
X131190870Y-102566231D01*
X131213514Y-102248084D01*
X131166618Y-101875773D01*
X131067057Y-101576988D01*
X132514091Y-101576988D01*
X132556556Y-101874171D01*
X132656183Y-102157359D01*
X132734710Y-102304273D01*
X132987768Y-102386626D01*
X133864394Y-101510000D01*
X134223604Y-101510000D01*
X135100230Y-102386626D01*
X135353288Y-102304273D01*
X135483085Y-102033582D01*
X135557579Y-101742770D01*
X135573907Y-101443012D01*
X135531442Y-101145829D01*
X135431815Y-100862641D01*
X135353288Y-100715727D01*
X135100230Y-100633374D01*
X134223604Y-101510000D01*
X133864394Y-101510000D01*
X132987768Y-100633374D01*
X132734710Y-100715727D01*
X132604913Y-100986418D01*
X132530419Y-101277230D01*
X132514091Y-101576988D01*
X131067057Y-101576988D01*
X131047988Y-101519765D01*
X130919871Y-101280076D01*
X130627852Y-101151753D01*
X129479605Y-102300000D01*
X129120395Y-102300000D01*
X129106253Y-102285858D01*
X129285858Y-102106253D01*
X129300000Y-102120395D01*
X130448247Y-100972148D01*
X130319924Y-100680129D01*
X129984305Y-100512277D01*
X129622389Y-100413126D01*
X129260993Y-100387405D01*
X129302962Y-100352962D01*
X129413405Y-100218386D01*
X129495472Y-100064850D01*
X129546008Y-99898254D01*
X129553222Y-99825000D01*
X129686928Y-99825000D01*
X129699188Y-99949482D01*
X129735498Y-100069180D01*
X129794463Y-100179494D01*
X129873815Y-100276185D01*
X129970506Y-100355537D01*
X130080820Y-100414502D01*
X130200518Y-100450812D01*
X130325000Y-100463072D01*
X130914250Y-100460000D01*
X131073000Y-100301250D01*
X131073000Y-99327000D01*
X129848750Y-99327000D01*
X129690000Y-99485750D01*
X129686928Y-99825000D01*
X129553222Y-99825000D01*
X129563072Y-99725000D01*
X129563072Y-98575000D01*
X129686928Y-98575000D01*
X129690000Y-98914250D01*
X129848750Y-99073000D01*
X131073000Y-99073000D01*
X131073000Y-98098750D01*
X131327000Y-98098750D01*
X131327000Y-99073000D01*
X131347000Y-99073000D01*
X131347000Y-99327000D01*
X131327000Y-99327000D01*
X131327000Y-100301250D01*
X131485750Y-100460000D01*
X132075000Y-100463072D01*
X132199482Y-100450812D01*
X132319180Y-100414502D01*
X132429494Y-100355537D01*
X132526185Y-100276185D01*
X132605537Y-100179494D01*
X132664502Y-100069180D01*
X132677530Y-100026231D01*
X133167373Y-100026231D01*
X133236940Y-100240000D01*
X133167373Y-100453769D01*
X134043999Y-101330395D01*
X134920625Y-100453769D01*
X134851058Y-100240000D01*
X134920625Y-100026231D01*
X134043999Y-99149605D01*
X133167373Y-100026231D01*
X132677530Y-100026231D01*
X132700812Y-99949482D01*
X132713072Y-99825000D01*
X132712140Y-99722047D01*
X132734710Y-99764273D01*
X132987768Y-99846626D01*
X133864394Y-98970000D01*
X134223604Y-98970000D01*
X135100230Y-99846626D01*
X135353288Y-99764273D01*
X135483085Y-99493582D01*
X135557579Y-99202770D01*
X135561622Y-99128540D01*
X143854308Y-99128540D01*
X143857380Y-99542790D01*
X144016130Y-99701540D01*
X144099914Y-99701540D01*
X144179844Y-99852998D01*
X144015000Y-99852998D01*
X144015000Y-99956670D01*
X143857380Y-100114290D01*
X143854308Y-100528540D01*
X143866568Y-100653022D01*
X143902878Y-100772720D01*
X143961843Y-100883034D01*
X144041195Y-100979725D01*
X144137886Y-101059077D01*
X144248200Y-101118042D01*
X144367898Y-101154352D01*
X144492380Y-101166612D01*
X144608962Y-101166450D01*
X144618645Y-101175178D01*
X144868748Y-101324157D01*
X145143109Y-101421481D01*
X145373000Y-101300814D01*
X145373000Y-101165390D01*
X145627000Y-101165038D01*
X145627000Y-101300814D01*
X145856891Y-101421481D01*
X146131252Y-101324157D01*
X146381355Y-101175178D01*
X146393785Y-101163974D01*
X146706630Y-101163540D01*
X146865380Y-101004790D01*
X146865380Y-100550117D01*
X146896825Y-100484099D01*
X146941476Y-100336890D01*
X146865380Y-100192696D01*
X146865380Y-99955540D01*
X145353000Y-99955540D01*
X145353000Y-99853000D01*
X145373000Y-99853000D01*
X145373000Y-99833000D01*
X145627000Y-99833000D01*
X145627000Y-99853000D01*
X146820155Y-99853000D01*
X146941476Y-99623110D01*
X146896825Y-99475901D01*
X146865380Y-99409883D01*
X146865380Y-98652290D01*
X146706630Y-98493540D01*
X146546789Y-98493318D01*
X146653475Y-98386632D01*
X146815990Y-98143411D01*
X146927932Y-97873158D01*
X146985000Y-97586260D01*
X146985000Y-97293740D01*
X146927932Y-97006842D01*
X146815990Y-96736589D01*
X146653475Y-96493368D01*
X146521620Y-96361513D01*
X146594180Y-96339502D01*
X146602312Y-96335155D01*
X146714250Y-96335000D01*
X146873000Y-96176250D01*
X146873000Y-96113678D01*
X146880537Y-96104494D01*
X146939502Y-95994180D01*
X146975812Y-95874482D01*
X146988072Y-95750000D01*
X146985000Y-95185750D01*
X146826250Y-95027000D01*
X145627000Y-95027000D01*
X145627000Y-95047000D01*
X145373000Y-95047000D01*
X145373000Y-95027000D01*
X144173750Y-95027000D01*
X144073750Y-95127000D01*
X144023750Y-95127000D01*
X143865000Y-95285750D01*
X143861928Y-95700000D01*
X143874188Y-95824482D01*
X143910498Y-95944180D01*
X143969463Y-96054494D01*
X144048815Y-96151185D01*
X144145506Y-96230537D01*
X144255820Y-96289502D01*
X144375518Y-96325812D01*
X144381268Y-96326378D01*
X144405820Y-96339502D01*
X144478380Y-96361513D01*
X144346525Y-96493368D01*
X144184010Y-96736589D01*
X144072068Y-97006842D01*
X144015000Y-97293740D01*
X144015000Y-97586260D01*
X144072068Y-97873158D01*
X144184010Y-98143411D01*
X144346525Y-98386632D01*
X144454128Y-98494235D01*
X144367898Y-98502728D01*
X144248200Y-98539038D01*
X144137886Y-98598003D01*
X144041195Y-98677355D01*
X143961843Y-98774046D01*
X143902878Y-98884360D01*
X143866568Y-99004058D01*
X143854308Y-99128540D01*
X135561622Y-99128540D01*
X135573907Y-98903012D01*
X135531442Y-98605829D01*
X135431815Y-98322641D01*
X135353288Y-98175727D01*
X135100230Y-98093374D01*
X134223604Y-98970000D01*
X133864394Y-98970000D01*
X132987768Y-98093374D01*
X132734710Y-98175727D01*
X132662309Y-98326718D01*
X132605537Y-98220506D01*
X132526185Y-98123815D01*
X132429494Y-98044463D01*
X132319180Y-97985498D01*
X132199482Y-97949188D01*
X132075000Y-97936928D01*
X131485750Y-97940000D01*
X131327000Y-98098750D01*
X131073000Y-98098750D01*
X130914250Y-97940000D01*
X130325000Y-97936928D01*
X130200518Y-97949188D01*
X130080820Y-97985498D01*
X129970506Y-98044463D01*
X129873815Y-98123815D01*
X129794463Y-98220506D01*
X129735498Y-98330820D01*
X129699188Y-98450518D01*
X129686928Y-98575000D01*
X129563072Y-98575000D01*
X129563072Y-98475000D01*
X129546008Y-98301746D01*
X129495472Y-98135150D01*
X129413405Y-97981614D01*
X129357727Y-97913769D01*
X133167373Y-97913769D01*
X134043999Y-98790395D01*
X134920625Y-97913769D01*
X134838272Y-97660711D01*
X134567581Y-97530914D01*
X134276769Y-97456420D01*
X133977011Y-97440092D01*
X133679828Y-97482557D01*
X133396640Y-97582184D01*
X133249726Y-97660711D01*
X133167373Y-97913769D01*
X129357727Y-97913769D01*
X129302962Y-97847038D01*
X129215183Y-97775000D01*
X129302962Y-97702962D01*
X129413405Y-97568386D01*
X129495472Y-97414850D01*
X129519694Y-97335000D01*
X129891263Y-97335000D01*
X129947038Y-97402962D01*
X130081614Y-97513405D01*
X130235150Y-97595472D01*
X130401746Y-97646008D01*
X130575000Y-97663072D01*
X131825000Y-97663072D01*
X131998254Y-97646008D01*
X132164850Y-97595472D01*
X132318386Y-97513405D01*
X132452962Y-97402962D01*
X132549770Y-97285000D01*
X140402393Y-97285000D01*
X140480231Y-97401493D01*
X140692506Y-97613768D01*
X140942114Y-97780551D01*
X141219465Y-97895434D01*
X141513898Y-97954000D01*
X141814100Y-97954000D01*
X142108533Y-97895434D01*
X142385884Y-97780551D01*
X142635492Y-97613768D01*
X142847767Y-97401493D01*
X143014550Y-97151885D01*
X143129433Y-96874534D01*
X143187999Y-96580101D01*
X143187999Y-96279899D01*
X143129433Y-95985466D01*
X143014550Y-95708115D01*
X142847767Y-95458507D01*
X142635492Y-95246232D01*
X142506437Y-95160000D01*
X142635492Y-95073768D01*
X142847767Y-94861493D01*
X143014550Y-94611885D01*
X143129433Y-94334534D01*
X143136302Y-94300000D01*
X143861928Y-94300000D01*
X143865000Y-94714250D01*
X144023750Y-94873000D01*
X146873000Y-94873000D01*
X146873000Y-94726250D01*
X146985000Y-94614250D01*
X146988072Y-94050000D01*
X146975812Y-93925518D01*
X146939502Y-93805820D01*
X146880537Y-93695506D01*
X146801185Y-93598815D01*
X146704494Y-93519463D01*
X146594180Y-93460498D01*
X146474482Y-93424188D01*
X146350000Y-93411928D01*
X145785750Y-93415000D01*
X145627000Y-93573750D01*
X145627000Y-93663492D01*
X145373000Y-93663139D01*
X145373000Y-93573750D01*
X145214250Y-93415000D01*
X144650000Y-93411928D01*
X144525518Y-93424188D01*
X144405820Y-93460498D01*
X144295506Y-93519463D01*
X144198815Y-93598815D01*
X144119463Y-93695506D01*
X144060498Y-93805820D01*
X144046658Y-93851443D01*
X143969463Y-93945506D01*
X143910498Y-94055820D01*
X143874188Y-94175518D01*
X143861928Y-94300000D01*
X143136302Y-94300000D01*
X143187999Y-94040101D01*
X143187999Y-93739899D01*
X143129433Y-93445466D01*
X143014550Y-93168115D01*
X142847767Y-92918507D01*
X142635492Y-92706232D01*
X142385884Y-92539449D01*
X142108533Y-92424566D01*
X141814100Y-92366000D01*
X141513898Y-92366000D01*
X141219465Y-92424566D01*
X140942114Y-92539449D01*
X140692506Y-92706232D01*
X140480231Y-92918507D01*
X140313448Y-93168115D01*
X140198565Y-93445466D01*
X140139999Y-93739899D01*
X140139999Y-94040101D01*
X140198565Y-94334534D01*
X140313448Y-94611885D01*
X140480231Y-94861493D01*
X140692506Y-95073768D01*
X140821561Y-95160000D01*
X140692506Y-95246232D01*
X140480231Y-95458507D01*
X140442484Y-95515000D01*
X132549770Y-95515000D01*
X132452962Y-95397038D01*
X132318386Y-95286595D01*
X132164850Y-95204528D01*
X131998254Y-95153992D01*
X131825000Y-95136928D01*
X130575000Y-95136928D01*
X130401746Y-95153992D01*
X130235150Y-95204528D01*
X130081614Y-95286595D01*
X129947038Y-95397038D01*
X129836595Y-95531614D01*
X129818750Y-95565000D01*
X129519694Y-95565000D01*
X129495472Y-95485150D01*
X129413405Y-95331614D01*
X129302962Y-95197038D01*
X129186874Y-95101768D01*
X129351916Y-95113514D01*
X129724227Y-95066618D01*
X130080235Y-94947988D01*
X130319924Y-94819871D01*
X130448247Y-94527852D01*
X129300000Y-93379605D01*
X128151753Y-94527852D01*
X128280076Y-94819871D01*
X128514131Y-94936928D01*
X127925000Y-94936928D01*
X127751746Y-94953992D01*
X127585150Y-95004528D01*
X127431614Y-95086595D01*
X127297038Y-95197038D01*
X127186595Y-95331614D01*
X127104528Y-95485150D01*
X127053992Y-95651746D01*
X127036928Y-95825000D01*
X127036928Y-97075000D01*
X127053992Y-97248254D01*
X127104528Y-97414850D01*
X127186595Y-97568386D01*
X127297038Y-97702962D01*
X127384817Y-97775000D01*
X127297038Y-97847038D01*
X127186595Y-97981614D01*
X127104528Y-98135150D01*
X127053992Y-98301746D01*
X127036928Y-98475000D01*
X127036928Y-98482460D01*
X127018466Y-98504956D01*
X126763072Y-98760350D01*
X126763072Y-98475000D01*
X126746008Y-98301746D01*
X126695472Y-98135150D01*
X126613405Y-97981614D01*
X126502962Y-97847038D01*
X126415183Y-97775000D01*
X126502962Y-97702962D01*
X126613405Y-97568386D01*
X126695472Y-97414850D01*
X126746008Y-97248254D01*
X126763072Y-97075000D01*
X126763072Y-95825000D01*
X126746008Y-95651746D01*
X126695472Y-95485150D01*
X126613405Y-95331614D01*
X126502962Y-95197038D01*
X126385000Y-95100230D01*
X126385000Y-94443465D01*
X126389281Y-94399999D01*
X126385000Y-94356533D01*
X126385000Y-94356523D01*
X126372195Y-94226510D01*
X126321589Y-94059687D01*
X126239411Y-93905941D01*
X126209474Y-93869463D01*
X126208072Y-93867755D01*
X126208072Y-93251916D01*
X127386486Y-93251916D01*
X127433382Y-93624227D01*
X127552012Y-93980235D01*
X127680129Y-94219924D01*
X127972148Y-94348247D01*
X129120395Y-93200000D01*
X129479605Y-93200000D01*
X130627852Y-94348247D01*
X130919871Y-94219924D01*
X131087723Y-93884305D01*
X131186874Y-93522389D01*
X131213514Y-93148084D01*
X131166618Y-92775773D01*
X131047988Y-92419765D01*
X130919871Y-92180076D01*
X130627852Y-92051753D01*
X129479605Y-93200000D01*
X129120395Y-93200000D01*
X127972148Y-92051753D01*
X127680129Y-92180076D01*
X127512277Y-92515695D01*
X127413126Y-92877611D01*
X127386486Y-93251916D01*
X126208072Y-93251916D01*
X126208072Y-91930000D01*
X126202375Y-91872148D01*
X128151753Y-91872148D01*
X129300000Y-93020395D01*
X130448247Y-91872148D01*
X130319924Y-91580129D01*
X129984305Y-91412277D01*
X129622389Y-91313126D01*
X129248084Y-91286486D01*
X128875773Y-91333382D01*
X128519765Y-91452012D01*
X128280076Y-91580129D01*
X128151753Y-91872148D01*
X126202375Y-91872148D01*
X126195812Y-91805518D01*
X126159502Y-91685820D01*
X126100537Y-91575506D01*
X126021185Y-91478815D01*
X125924494Y-91399463D01*
X125814180Y-91340498D01*
X125694482Y-91304188D01*
X125570000Y-91291928D01*
X123030000Y-91291928D01*
X122905518Y-91304188D01*
X122785820Y-91340498D01*
X122675506Y-91399463D01*
X122578815Y-91478815D01*
X122499463Y-91575506D01*
X122440498Y-91685820D01*
X122404188Y-91805518D01*
X122391928Y-91930000D01*
X122391928Y-94470000D01*
X122404188Y-94594482D01*
X122440498Y-94714180D01*
X122499463Y-94824494D01*
X122578815Y-94921185D01*
X122675506Y-95000537D01*
X122785820Y-95059502D01*
X122905518Y-95095812D01*
X123030000Y-95108072D01*
X124605444Y-95108072D01*
X124497038Y-95197038D01*
X124386595Y-95331614D01*
X124304528Y-95485150D01*
X124295473Y-95515000D01*
X123999770Y-95515000D01*
X123902962Y-95397038D01*
X123768386Y-95286595D01*
X123614850Y-95204528D01*
X123448254Y-95153992D01*
X123275000Y-95136928D01*
X122638507Y-95136928D01*
X121524000Y-94022422D01*
X121524000Y-93839899D01*
X121465434Y-93545466D01*
X121350551Y-93268115D01*
X121183768Y-93018507D01*
X120971493Y-92806232D01*
X120721885Y-92639449D01*
X120444534Y-92524566D01*
X120150101Y-92466000D01*
X119849899Y-92466000D01*
X119555466Y-92524566D01*
X119278115Y-92639449D01*
X119028507Y-92806232D01*
X118816232Y-93018507D01*
X118649449Y-93268115D01*
X118534566Y-93545466D01*
X118476000Y-93839899D01*
X110334902Y-93839899D01*
X110301185Y-93798815D01*
X110204494Y-93719463D01*
X110094180Y-93660498D01*
X109974482Y-93624188D01*
X109850000Y-93611928D01*
X109285750Y-93615000D01*
X109137626Y-93763124D01*
X108862756Y-93763506D01*
X108714250Y-93615000D01*
X108150000Y-93611928D01*
X108025518Y-93624188D01*
X107905820Y-93660498D01*
X107795506Y-93719463D01*
X107698815Y-93798815D01*
X107619463Y-93895506D01*
X107560498Y-94005820D01*
X107524188Y-94125518D01*
X107511928Y-94250000D01*
X107373000Y-94250000D01*
X107373000Y-93923750D01*
X107214250Y-93765000D01*
X105185000Y-93762185D01*
X105185000Y-89685000D01*
X149315000Y-89685000D01*
X149315000Y-93662185D01*
M02*
