G04 #@! TF.GenerationSoftware,KiCad,Pcbnew,5.1.5+dfsg1-2build2*
G04 #@! TF.CreationDate,2022-12-10T10:35:03-05:00*
G04 #@! TF.ProjectId,double-tuned-bpf,646f7562-6c65-42d7-9475-6e65642d6270,rev?*
G04 #@! TF.SameCoordinates,Original*
G04 #@! TF.FileFunction,Legend,Top*
G04 #@! TF.FilePolarity,Positive*
%FSLAX46Y46*%
G04 Gerber Fmt 4.6, Leading zero omitted, Abs format (unit mm)*
G04 Created by KiCad (PCBNEW 5.1.5+dfsg1-2build2) date 2022-12-10 10:35:03*
%MOMM*%
%LPD*%
G04 APERTURE LIST*
%ADD10C,0.120000*%
%ADD11C,0.100000*%
%ADD12C,0.254000*%
%ADD13C,0.152400*%
%ADD14C,0.127000*%
%ADD15C,0.150000*%
%ADD16O,1.802000X1.802000*%
%ADD17R,1.802000X1.802000*%
%ADD18R,2.743200X2.743200*%
%ADD19C,2.743200*%
%ADD20C,1.981200*%
G04 APERTURE END LIST*
D10*
X144170000Y-93570000D02*
X145500000Y-93570000D01*
X144170000Y-94900000D02*
X144170000Y-93570000D01*
X144170000Y-96170000D02*
X146830000Y-96170000D01*
X146830000Y-96170000D02*
X146830000Y-101310000D01*
X144170000Y-96170000D02*
X144170000Y-101310000D01*
X144170000Y-101310000D02*
X146830000Y-101310000D01*
X107670000Y-93770000D02*
X109000000Y-93770000D01*
X107670000Y-95100000D02*
X107670000Y-93770000D01*
X107670000Y-96370000D02*
X110330000Y-96370000D01*
X110330000Y-96370000D02*
X110330000Y-101510000D01*
X107670000Y-96370000D02*
X107670000Y-101510000D01*
X107670000Y-101510000D02*
X110330000Y-101510000D01*
D11*
G36*
X127150000Y-103500000D02*
G01*
X127150000Y-101100000D01*
X126450000Y-101100000D01*
X126450000Y-103500000D01*
X127150000Y-103500000D01*
G37*
D12*
X124100000Y-103350000D02*
G75*
G03X129300000Y-103750000I2696154J1050000D01*
G01*
X129300000Y-100850000D02*
G75*
G03X124100000Y-101250000I-2503846J-1450000D01*
G01*
D13*
X128400000Y-102300000D02*
G75*
G03X128400000Y-102300000I-1600000J0D01*
G01*
D11*
G36*
X128000000Y-102650000D02*
G01*
X128000000Y-101950000D01*
X125600000Y-101950000D01*
X125600000Y-102650000D01*
X128000000Y-102650000D01*
G37*
G36*
X127150000Y-94400000D02*
G01*
X127150000Y-92000000D01*
X126450000Y-92000000D01*
X126450000Y-94400000D01*
X127150000Y-94400000D01*
G37*
D12*
X124100000Y-94250000D02*
G75*
G03X129300000Y-94650000I2696154J1050000D01*
G01*
X129300000Y-91750000D02*
G75*
G03X124100000Y-92150000I-2503846J-1450000D01*
G01*
D13*
X128400000Y-93200000D02*
G75*
G03X128400000Y-93200000I-1600000J0D01*
G01*
D11*
G36*
X128000000Y-93550000D02*
G01*
X128000000Y-92850000D01*
X125600000Y-92850000D01*
X125600000Y-93550000D01*
X128000000Y-93550000D01*
G37*
D14*
X140393999Y-97700000D02*
G75*
G03X140393999Y-97065000I0J317500D01*
G01*
X140393999Y-93255000D02*
X140393999Y-92620000D01*
X135313999Y-96430000D02*
G75*
G03X135313999Y-97065000I0J-317500D01*
G01*
X140393999Y-94525000D02*
G75*
G03X140393999Y-93890000I0J317500D01*
G01*
X140393999Y-100240000D02*
G75*
G03X140393999Y-99605000I0J317500D01*
G01*
X135313999Y-95160000D02*
X135313999Y-96430000D01*
X135313999Y-99605000D02*
X135313999Y-100875000D01*
X135313999Y-102780000D02*
X140393999Y-102780000D01*
X140393999Y-102145000D02*
G75*
G03X140393999Y-101510000I0J317500D01*
G01*
X135313999Y-102145000D02*
G75*
G03X135313999Y-102780000I0J-317500D01*
G01*
X140393999Y-97065000D02*
X140393999Y-95795000D01*
X135313999Y-92620000D02*
G75*
G03X135313999Y-93255000I0J-317500D01*
G01*
X135313999Y-92620000D02*
X140393999Y-93255000D01*
X135313999Y-97065000D02*
X135313999Y-98970000D01*
X135313999Y-93255000D02*
G75*
G03X135313999Y-93890000I0J-317500D01*
G01*
X140393999Y-102780000D02*
X140393999Y-102145000D01*
X140393999Y-95160000D02*
X140393999Y-94525000D01*
X140393999Y-93890000D02*
G75*
G03X140393999Y-93255000I0J317500D01*
G01*
X140393999Y-92620000D02*
X135313999Y-92620000D01*
X135313999Y-93890000D02*
X135313999Y-94525000D01*
X135313999Y-101510000D02*
X135313999Y-102145000D01*
X140393999Y-101510000D02*
X140393999Y-100240000D01*
X140393999Y-99605000D02*
X140393999Y-97700000D01*
X135313999Y-94525000D02*
G75*
G03X135313999Y-95160000I0J-317500D01*
G01*
X135313999Y-98970000D02*
G75*
G03X135313999Y-99605000I0J-317500D01*
G01*
X135313999Y-100875000D02*
G75*
G03X135313999Y-101510000I0J-317500D01*
G01*
X140393999Y-95795000D02*
G75*
G03X140393999Y-95160000I0J317500D01*
G01*
X135313999Y-99605000D02*
X140393999Y-100240000D01*
X135313999Y-93890000D02*
X140393999Y-94525000D01*
X135313999Y-102145000D02*
X140393999Y-102780000D01*
X135313999Y-96430000D02*
X140393999Y-97065000D01*
X135313999Y-97065000D02*
X140393999Y-97700000D01*
X135313999Y-93255000D02*
X140393999Y-93890000D01*
X135313999Y-98970000D02*
X140393999Y-99605000D01*
X135313999Y-100875000D02*
X140393999Y-101510000D01*
X135313999Y-95160000D02*
X140393999Y-95795000D01*
X135313999Y-101510000D02*
X140393999Y-102145000D01*
X135313999Y-94525000D02*
X140393999Y-95160000D01*
X118730000Y-97800000D02*
G75*
G03X118730000Y-97165000I0J317500D01*
G01*
X118730000Y-93355000D02*
X118730000Y-92720000D01*
X113650000Y-96530000D02*
G75*
G03X113650000Y-97165000I0J-317500D01*
G01*
X118730000Y-94625000D02*
G75*
G03X118730000Y-93990000I0J317500D01*
G01*
X118730000Y-100340000D02*
G75*
G03X118730000Y-99705000I0J317500D01*
G01*
X113650000Y-95260000D02*
X113650000Y-96530000D01*
X113650000Y-99705000D02*
X113650000Y-100975000D01*
X113650000Y-102880000D02*
X118730000Y-102880000D01*
X118730000Y-102245000D02*
G75*
G03X118730000Y-101610000I0J317500D01*
G01*
X113650000Y-102245000D02*
G75*
G03X113650000Y-102880000I0J-317500D01*
G01*
X118730000Y-97165000D02*
X118730000Y-95895000D01*
X113650000Y-92720000D02*
G75*
G03X113650000Y-93355000I0J-317500D01*
G01*
X113650000Y-92720000D02*
X118730000Y-93355000D01*
X113650000Y-97165000D02*
X113650000Y-99070000D01*
X113650000Y-93355000D02*
G75*
G03X113650000Y-93990000I0J-317500D01*
G01*
X118730000Y-102880000D02*
X118730000Y-102245000D01*
X118730000Y-95260000D02*
X118730000Y-94625000D01*
X118730000Y-93990000D02*
G75*
G03X118730000Y-93355000I0J317500D01*
G01*
X118730000Y-92720000D02*
X113650000Y-92720000D01*
X113650000Y-93990000D02*
X113650000Y-94625000D01*
X113650000Y-101610000D02*
X113650000Y-102245000D01*
X118730000Y-101610000D02*
X118730000Y-100340000D01*
X118730000Y-99705000D02*
X118730000Y-97800000D01*
X113650000Y-94625000D02*
G75*
G03X113650000Y-95260000I0J-317500D01*
G01*
X113650000Y-99070000D02*
G75*
G03X113650000Y-99705000I0J-317500D01*
G01*
X113650000Y-100975000D02*
G75*
G03X113650000Y-101610000I0J-317500D01*
G01*
X118730000Y-95895000D02*
G75*
G03X118730000Y-95260000I0J317500D01*
G01*
X113650000Y-99705000D02*
X118730000Y-100340000D01*
X113650000Y-93990000D02*
X118730000Y-94625000D01*
X113650000Y-102245000D02*
X118730000Y-102880000D01*
X113650000Y-96530000D02*
X118730000Y-97165000D01*
X113650000Y-97165000D02*
X118730000Y-97800000D01*
X113650000Y-93355000D02*
X118730000Y-93990000D01*
X113650000Y-99070000D02*
X118730000Y-99705000D01*
X113650000Y-100975000D02*
X118730000Y-101610000D01*
X113650000Y-95260000D02*
X118730000Y-95895000D01*
X113650000Y-101610000D02*
X118730000Y-102245000D01*
X113650000Y-94625000D02*
X118730000Y-95260000D01*
D15*
X145166666Y-92022380D02*
X145166666Y-92736666D01*
X145119047Y-92879523D01*
X145023809Y-92974761D01*
X144880952Y-93022380D01*
X144785714Y-93022380D01*
X146071428Y-92355714D02*
X146071428Y-93022380D01*
X145833333Y-91974761D02*
X145595238Y-92689047D01*
X146214285Y-92689047D01*
X145931906Y-92471880D02*
X145931906Y-93186166D01*
X145884287Y-93329023D01*
X145789049Y-93424261D01*
X145646192Y-93471880D01*
X145550954Y-93471880D01*
X146360478Y-92567119D02*
X146408097Y-92519500D01*
X146503335Y-92471880D01*
X146741430Y-92471880D01*
X146836668Y-92519500D01*
X146884287Y-92567119D01*
X146931906Y-92662357D01*
X146931906Y-92757595D01*
X146884287Y-92900452D01*
X146312859Y-93471880D01*
X146931906Y-93471880D01*
X106431906Y-92571880D02*
X106431906Y-93286166D01*
X106384287Y-93429023D01*
X106289049Y-93524261D01*
X106146192Y-93571880D01*
X106050954Y-93571880D01*
X107431906Y-93571880D02*
X106860478Y-93571880D01*
X107146192Y-93571880D02*
X107146192Y-92571880D01*
X107050954Y-92714738D01*
X106955716Y-92809976D01*
X106860478Y-92857595D01*
X108666666Y-92222380D02*
X108666666Y-92936666D01*
X108619047Y-93079523D01*
X108523809Y-93174761D01*
X108380952Y-93222380D01*
X108285714Y-93222380D01*
X109047619Y-92222380D02*
X109666666Y-92222380D01*
X109333333Y-92603333D01*
X109476190Y-92603333D01*
X109571428Y-92650952D01*
X109619047Y-92698571D01*
X109666666Y-92793809D01*
X109666666Y-93031904D01*
X109619047Y-93127142D01*
X109571428Y-93174761D01*
X109476190Y-93222380D01*
X109190476Y-93222380D01*
X109095238Y-93174761D01*
X109047619Y-93127142D01*
X120752380Y-103359523D02*
X121752380Y-103026190D01*
X120752380Y-102692857D01*
X121657142Y-101788095D02*
X121704761Y-101835714D01*
X121752380Y-101978571D01*
X121752380Y-102073809D01*
X121704761Y-102216666D01*
X121609523Y-102311904D01*
X121514285Y-102359523D01*
X121323809Y-102407142D01*
X121180952Y-102407142D01*
X120990476Y-102359523D01*
X120895238Y-102311904D01*
X120800000Y-102216666D01*
X120752380Y-102073809D01*
X120752380Y-101978571D01*
X120800000Y-101835714D01*
X120847619Y-101788095D01*
X120752380Y-100930952D02*
X120752380Y-101121428D01*
X120800000Y-101216666D01*
X120847619Y-101264285D01*
X120990476Y-101359523D01*
X121180952Y-101407142D01*
X121561904Y-101407142D01*
X121657142Y-101359523D01*
X121704761Y-101311904D01*
X121752380Y-101216666D01*
X121752380Y-101026190D01*
X121704761Y-100930952D01*
X121657142Y-100883333D01*
X121561904Y-100835714D01*
X121323809Y-100835714D01*
X121228571Y-100883333D01*
X121180952Y-100930952D01*
X121133333Y-101026190D01*
X121133333Y-101216666D01*
X121180952Y-101311904D01*
X121228571Y-101359523D01*
X121323809Y-101407142D01*
X120752380Y-94259523D02*
X121752380Y-93926190D01*
X120752380Y-93592857D01*
X121657142Y-92688095D02*
X121704761Y-92735714D01*
X121752380Y-92878571D01*
X121752380Y-92973809D01*
X121704761Y-93116666D01*
X121609523Y-93211904D01*
X121514285Y-93259523D01*
X121323809Y-93307142D01*
X121180952Y-93307142D01*
X120990476Y-93259523D01*
X120895238Y-93211904D01*
X120800000Y-93116666D01*
X120752380Y-92973809D01*
X120752380Y-92878571D01*
X120800000Y-92735714D01*
X120847619Y-92688095D01*
X121752380Y-91735714D02*
X121752380Y-92307142D01*
X121752380Y-92021428D02*
X120752380Y-92021428D01*
X120895238Y-92116666D01*
X120990476Y-92211904D01*
X121038095Y-92307142D01*
X137620665Y-91416666D02*
X138020665Y-91416666D01*
X137820665Y-92116666D02*
X137820665Y-91416666D01*
X138220665Y-91483333D02*
X138253999Y-91450000D01*
X138320665Y-91416666D01*
X138487332Y-91416666D01*
X138553999Y-91450000D01*
X138587332Y-91483333D01*
X138620665Y-91550000D01*
X138620665Y-91616666D01*
X138587332Y-91716666D01*
X138187332Y-92116666D01*
X138620665Y-92116666D01*
X115956666Y-91516666D02*
X116356666Y-91516666D01*
X116156666Y-92216666D02*
X116156666Y-91516666D01*
X116956666Y-92216666D02*
X116556666Y-92216666D01*
X116756666Y-92216666D02*
X116756666Y-91516666D01*
X116690000Y-91616666D01*
X116623333Y-91683333D01*
X116556666Y-91716666D01*
%LPC*%
D16*
X145500000Y-99980000D03*
X145500000Y-97440000D03*
D17*
X145500000Y-94900000D03*
D11*
G36*
X149204685Y-99079348D02*
G01*
X149241136Y-99084755D01*
X149276882Y-99093709D01*
X149311578Y-99106123D01*
X149344889Y-99121879D01*
X149376497Y-99140823D01*
X149406095Y-99162775D01*
X149433399Y-99187521D01*
X149458145Y-99214825D01*
X149480097Y-99244423D01*
X149499041Y-99276031D01*
X149514797Y-99309342D01*
X149527211Y-99344038D01*
X149536165Y-99379784D01*
X149541572Y-99416235D01*
X149543380Y-99453040D01*
X149543380Y-100204040D01*
X149541572Y-100240845D01*
X149536165Y-100277296D01*
X149527211Y-100313042D01*
X149514797Y-100347738D01*
X149499041Y-100381049D01*
X149480097Y-100412657D01*
X149458145Y-100442255D01*
X149433399Y-100469559D01*
X149406095Y-100494305D01*
X149376497Y-100516257D01*
X149344889Y-100535201D01*
X149311578Y-100550957D01*
X149276882Y-100563371D01*
X149241136Y-100572325D01*
X149204685Y-100577732D01*
X149167880Y-100579540D01*
X144816880Y-100579540D01*
X144780075Y-100577732D01*
X144743624Y-100572325D01*
X144707878Y-100563371D01*
X144673182Y-100550957D01*
X144639871Y-100535201D01*
X144608263Y-100516257D01*
X144578665Y-100494305D01*
X144551361Y-100469559D01*
X144526615Y-100442255D01*
X144504663Y-100412657D01*
X144485719Y-100381049D01*
X144469963Y-100347738D01*
X144457549Y-100313042D01*
X144448595Y-100277296D01*
X144443188Y-100240845D01*
X144441380Y-100204040D01*
X144441380Y-99453040D01*
X144443188Y-99416235D01*
X144448595Y-99379784D01*
X144457549Y-99344038D01*
X144469963Y-99309342D01*
X144485719Y-99276031D01*
X144504663Y-99244423D01*
X144526615Y-99214825D01*
X144551361Y-99187521D01*
X144578665Y-99162775D01*
X144608263Y-99140823D01*
X144639871Y-99121879D01*
X144673182Y-99106123D01*
X144707878Y-99093709D01*
X144743624Y-99084755D01*
X144780075Y-99079348D01*
X144816880Y-99077540D01*
X149167880Y-99077540D01*
X149204685Y-99079348D01*
G37*
G36*
X149212305Y-94250808D02*
G01*
X149248756Y-94256215D01*
X149284502Y-94265169D01*
X149319198Y-94277583D01*
X149352509Y-94293339D01*
X149384117Y-94312283D01*
X149413715Y-94334235D01*
X149441019Y-94358981D01*
X149465765Y-94386285D01*
X149487717Y-94415883D01*
X149506661Y-94447491D01*
X149522417Y-94480802D01*
X149534831Y-94515498D01*
X149543785Y-94551244D01*
X149549192Y-94587695D01*
X149551000Y-94624500D01*
X149551000Y-95375500D01*
X149549192Y-95412305D01*
X149543785Y-95448756D01*
X149534831Y-95484502D01*
X149522417Y-95519198D01*
X149506661Y-95552509D01*
X149487717Y-95584117D01*
X149465765Y-95613715D01*
X149441019Y-95641019D01*
X149413715Y-95665765D01*
X149384117Y-95687717D01*
X149352509Y-95706661D01*
X149319198Y-95722417D01*
X149284502Y-95734831D01*
X149248756Y-95743785D01*
X149212305Y-95749192D01*
X149175500Y-95751000D01*
X144824500Y-95751000D01*
X144787695Y-95749192D01*
X144751244Y-95743785D01*
X144715498Y-95734831D01*
X144680802Y-95722417D01*
X144647491Y-95706661D01*
X144615883Y-95687717D01*
X144586285Y-95665765D01*
X144558981Y-95641019D01*
X144534235Y-95613715D01*
X144512283Y-95584117D01*
X144493339Y-95552509D01*
X144477583Y-95519198D01*
X144465169Y-95484502D01*
X144456215Y-95448756D01*
X144450808Y-95412305D01*
X144449000Y-95375500D01*
X144449000Y-94624500D01*
X144450808Y-94587695D01*
X144456215Y-94551244D01*
X144465169Y-94515498D01*
X144477583Y-94480802D01*
X144493339Y-94447491D01*
X144512283Y-94415883D01*
X144534235Y-94386285D01*
X144558981Y-94358981D01*
X144586285Y-94334235D01*
X144615883Y-94312283D01*
X144647491Y-94293339D01*
X144680802Y-94277583D01*
X144715498Y-94265169D01*
X144751244Y-94256215D01*
X144787695Y-94250808D01*
X144824500Y-94249000D01*
X149175500Y-94249000D01*
X149212305Y-94250808D01*
G37*
G36*
X149217385Y-99099668D02*
G01*
X149253836Y-99105075D01*
X149289582Y-99114029D01*
X149324278Y-99126443D01*
X149357589Y-99142199D01*
X149389197Y-99161143D01*
X149418795Y-99183095D01*
X149446099Y-99207841D01*
X149470845Y-99235145D01*
X149492797Y-99264743D01*
X149511741Y-99296351D01*
X149527497Y-99329662D01*
X149539911Y-99364358D01*
X149548865Y-99400104D01*
X149554272Y-99436555D01*
X149556080Y-99473360D01*
X149556080Y-100224360D01*
X149554272Y-100261165D01*
X149548865Y-100297616D01*
X149539911Y-100333362D01*
X149527497Y-100368058D01*
X149511741Y-100401369D01*
X149492797Y-100432977D01*
X149470845Y-100462575D01*
X149446099Y-100489879D01*
X149418795Y-100514625D01*
X149389197Y-100536577D01*
X149357589Y-100555521D01*
X149324278Y-100571277D01*
X149289582Y-100583691D01*
X149253836Y-100592645D01*
X149217385Y-100598052D01*
X149180580Y-100599860D01*
X144829580Y-100599860D01*
X144792775Y-100598052D01*
X144756324Y-100592645D01*
X144720578Y-100583691D01*
X144685882Y-100571277D01*
X144652571Y-100555521D01*
X144620963Y-100536577D01*
X144591365Y-100514625D01*
X144564061Y-100489879D01*
X144539315Y-100462575D01*
X144517363Y-100432977D01*
X144498419Y-100401369D01*
X144482663Y-100368058D01*
X144470249Y-100333362D01*
X144461295Y-100297616D01*
X144455888Y-100261165D01*
X144454080Y-100224360D01*
X144454080Y-99473360D01*
X144455888Y-99436555D01*
X144461295Y-99400104D01*
X144470249Y-99364358D01*
X144482663Y-99329662D01*
X144498419Y-99296351D01*
X144517363Y-99264743D01*
X144539315Y-99235145D01*
X144564061Y-99207841D01*
X144591365Y-99183095D01*
X144620963Y-99161143D01*
X144652571Y-99142199D01*
X144685882Y-99126443D01*
X144720578Y-99114029D01*
X144756324Y-99105075D01*
X144792775Y-99099668D01*
X144829580Y-99097860D01*
X149180580Y-99097860D01*
X149217385Y-99099668D01*
G37*
G36*
X149199605Y-94258428D02*
G01*
X149236056Y-94263835D01*
X149271802Y-94272789D01*
X149306498Y-94285203D01*
X149339809Y-94300959D01*
X149371417Y-94319903D01*
X149401015Y-94341855D01*
X149428319Y-94366601D01*
X149453065Y-94393905D01*
X149475017Y-94423503D01*
X149493961Y-94455111D01*
X149509717Y-94488422D01*
X149522131Y-94523118D01*
X149531085Y-94558864D01*
X149536492Y-94595315D01*
X149538300Y-94632120D01*
X149538300Y-95383120D01*
X149536492Y-95419925D01*
X149531085Y-95456376D01*
X149522131Y-95492122D01*
X149509717Y-95526818D01*
X149493961Y-95560129D01*
X149475017Y-95591737D01*
X149453065Y-95621335D01*
X149428319Y-95648639D01*
X149401015Y-95673385D01*
X149371417Y-95695337D01*
X149339809Y-95714281D01*
X149306498Y-95730037D01*
X149271802Y-95742451D01*
X149236056Y-95751405D01*
X149199605Y-95756812D01*
X149162800Y-95758620D01*
X144811800Y-95758620D01*
X144774995Y-95756812D01*
X144738544Y-95751405D01*
X144702798Y-95742451D01*
X144668102Y-95730037D01*
X144634791Y-95714281D01*
X144603183Y-95695337D01*
X144573585Y-95673385D01*
X144546281Y-95648639D01*
X144521535Y-95621335D01*
X144499583Y-95591737D01*
X144480639Y-95560129D01*
X144464883Y-95526818D01*
X144452469Y-95492122D01*
X144443515Y-95456376D01*
X144438108Y-95419925D01*
X144436300Y-95383120D01*
X144436300Y-94632120D01*
X144438108Y-94595315D01*
X144443515Y-94558864D01*
X144452469Y-94523118D01*
X144464883Y-94488422D01*
X144480639Y-94455111D01*
X144499583Y-94423503D01*
X144521535Y-94393905D01*
X144546281Y-94366601D01*
X144573585Y-94341855D01*
X144603183Y-94319903D01*
X144634791Y-94300959D01*
X144668102Y-94285203D01*
X144702798Y-94272789D01*
X144738544Y-94263835D01*
X144774995Y-94258428D01*
X144811800Y-94256620D01*
X149162800Y-94256620D01*
X149199605Y-94258428D01*
G37*
G36*
X149217385Y-96679048D02*
G01*
X149253836Y-96684455D01*
X149289582Y-96693409D01*
X149324278Y-96705823D01*
X149357589Y-96721579D01*
X149389197Y-96740523D01*
X149418795Y-96762475D01*
X149446099Y-96787221D01*
X149470845Y-96814525D01*
X149492797Y-96844123D01*
X149511741Y-96875731D01*
X149527497Y-96909042D01*
X149539911Y-96943738D01*
X149548865Y-96979484D01*
X149554272Y-97015935D01*
X149556080Y-97052740D01*
X149556080Y-97803740D01*
X149554272Y-97840545D01*
X149548865Y-97876996D01*
X149539911Y-97912742D01*
X149527497Y-97947438D01*
X149511741Y-97980749D01*
X149492797Y-98012357D01*
X149470845Y-98041955D01*
X149446099Y-98069259D01*
X149418795Y-98094005D01*
X149389197Y-98115957D01*
X149357589Y-98134901D01*
X149324278Y-98150657D01*
X149289582Y-98163071D01*
X149253836Y-98172025D01*
X149217385Y-98177432D01*
X149180580Y-98179240D01*
X144829580Y-98179240D01*
X144792775Y-98177432D01*
X144756324Y-98172025D01*
X144720578Y-98163071D01*
X144685882Y-98150657D01*
X144652571Y-98134901D01*
X144620963Y-98115957D01*
X144591365Y-98094005D01*
X144564061Y-98069259D01*
X144539315Y-98041955D01*
X144517363Y-98012357D01*
X144498419Y-97980749D01*
X144482663Y-97947438D01*
X144470249Y-97912742D01*
X144461295Y-97876996D01*
X144455888Y-97840545D01*
X144454080Y-97803740D01*
X144454080Y-97052740D01*
X144455888Y-97015935D01*
X144461295Y-96979484D01*
X144470249Y-96943738D01*
X144482663Y-96909042D01*
X144498419Y-96875731D01*
X144517363Y-96844123D01*
X144539315Y-96814525D01*
X144564061Y-96787221D01*
X144591365Y-96762475D01*
X144620963Y-96740523D01*
X144652571Y-96721579D01*
X144685882Y-96705823D01*
X144720578Y-96693409D01*
X144756324Y-96684455D01*
X144792775Y-96679048D01*
X144829580Y-96677240D01*
X149180580Y-96677240D01*
X149217385Y-96679048D01*
G37*
G36*
X109704685Y-99179348D02*
G01*
X109741136Y-99184755D01*
X109776882Y-99193709D01*
X109811578Y-99206123D01*
X109844889Y-99221879D01*
X109876497Y-99240823D01*
X109906095Y-99262775D01*
X109933399Y-99287521D01*
X109958145Y-99314825D01*
X109980097Y-99344423D01*
X109999041Y-99376031D01*
X110014797Y-99409342D01*
X110027211Y-99444038D01*
X110036165Y-99479784D01*
X110041572Y-99516235D01*
X110043380Y-99553040D01*
X110043380Y-100304040D01*
X110041572Y-100340845D01*
X110036165Y-100377296D01*
X110027211Y-100413042D01*
X110014797Y-100447738D01*
X109999041Y-100481049D01*
X109980097Y-100512657D01*
X109958145Y-100542255D01*
X109933399Y-100569559D01*
X109906095Y-100594305D01*
X109876497Y-100616257D01*
X109844889Y-100635201D01*
X109811578Y-100650957D01*
X109776882Y-100663371D01*
X109741136Y-100672325D01*
X109704685Y-100677732D01*
X109667880Y-100679540D01*
X105316880Y-100679540D01*
X105280075Y-100677732D01*
X105243624Y-100672325D01*
X105207878Y-100663371D01*
X105173182Y-100650957D01*
X105139871Y-100635201D01*
X105108263Y-100616257D01*
X105078665Y-100594305D01*
X105051361Y-100569559D01*
X105026615Y-100542255D01*
X105004663Y-100512657D01*
X104985719Y-100481049D01*
X104969963Y-100447738D01*
X104957549Y-100413042D01*
X104948595Y-100377296D01*
X104943188Y-100340845D01*
X104941380Y-100304040D01*
X104941380Y-99553040D01*
X104943188Y-99516235D01*
X104948595Y-99479784D01*
X104957549Y-99444038D01*
X104969963Y-99409342D01*
X104985719Y-99376031D01*
X105004663Y-99344423D01*
X105026615Y-99314825D01*
X105051361Y-99287521D01*
X105078665Y-99262775D01*
X105108263Y-99240823D01*
X105139871Y-99221879D01*
X105173182Y-99206123D01*
X105207878Y-99193709D01*
X105243624Y-99184755D01*
X105280075Y-99179348D01*
X105316880Y-99177540D01*
X109667880Y-99177540D01*
X109704685Y-99179348D01*
G37*
G36*
X109712305Y-94350808D02*
G01*
X109748756Y-94356215D01*
X109784502Y-94365169D01*
X109819198Y-94377583D01*
X109852509Y-94393339D01*
X109884117Y-94412283D01*
X109913715Y-94434235D01*
X109941019Y-94458981D01*
X109965765Y-94486285D01*
X109987717Y-94515883D01*
X110006661Y-94547491D01*
X110022417Y-94580802D01*
X110034831Y-94615498D01*
X110043785Y-94651244D01*
X110049192Y-94687695D01*
X110051000Y-94724500D01*
X110051000Y-95475500D01*
X110049192Y-95512305D01*
X110043785Y-95548756D01*
X110034831Y-95584502D01*
X110022417Y-95619198D01*
X110006661Y-95652509D01*
X109987717Y-95684117D01*
X109965765Y-95713715D01*
X109941019Y-95741019D01*
X109913715Y-95765765D01*
X109884117Y-95787717D01*
X109852509Y-95806661D01*
X109819198Y-95822417D01*
X109784502Y-95834831D01*
X109748756Y-95843785D01*
X109712305Y-95849192D01*
X109675500Y-95851000D01*
X105324500Y-95851000D01*
X105287695Y-95849192D01*
X105251244Y-95843785D01*
X105215498Y-95834831D01*
X105180802Y-95822417D01*
X105147491Y-95806661D01*
X105115883Y-95787717D01*
X105086285Y-95765765D01*
X105058981Y-95741019D01*
X105034235Y-95713715D01*
X105012283Y-95684117D01*
X104993339Y-95652509D01*
X104977583Y-95619198D01*
X104965169Y-95584502D01*
X104956215Y-95548756D01*
X104950808Y-95512305D01*
X104949000Y-95475500D01*
X104949000Y-94724500D01*
X104950808Y-94687695D01*
X104956215Y-94651244D01*
X104965169Y-94615498D01*
X104977583Y-94580802D01*
X104993339Y-94547491D01*
X105012283Y-94515883D01*
X105034235Y-94486285D01*
X105058981Y-94458981D01*
X105086285Y-94434235D01*
X105115883Y-94412283D01*
X105147491Y-94393339D01*
X105180802Y-94377583D01*
X105215498Y-94365169D01*
X105251244Y-94356215D01*
X105287695Y-94350808D01*
X105324500Y-94349000D01*
X109675500Y-94349000D01*
X109712305Y-94350808D01*
G37*
G36*
X109717385Y-99199668D02*
G01*
X109753836Y-99205075D01*
X109789582Y-99214029D01*
X109824278Y-99226443D01*
X109857589Y-99242199D01*
X109889197Y-99261143D01*
X109918795Y-99283095D01*
X109946099Y-99307841D01*
X109970845Y-99335145D01*
X109992797Y-99364743D01*
X110011741Y-99396351D01*
X110027497Y-99429662D01*
X110039911Y-99464358D01*
X110048865Y-99500104D01*
X110054272Y-99536555D01*
X110056080Y-99573360D01*
X110056080Y-100324360D01*
X110054272Y-100361165D01*
X110048865Y-100397616D01*
X110039911Y-100433362D01*
X110027497Y-100468058D01*
X110011741Y-100501369D01*
X109992797Y-100532977D01*
X109970845Y-100562575D01*
X109946099Y-100589879D01*
X109918795Y-100614625D01*
X109889197Y-100636577D01*
X109857589Y-100655521D01*
X109824278Y-100671277D01*
X109789582Y-100683691D01*
X109753836Y-100692645D01*
X109717385Y-100698052D01*
X109680580Y-100699860D01*
X105329580Y-100699860D01*
X105292775Y-100698052D01*
X105256324Y-100692645D01*
X105220578Y-100683691D01*
X105185882Y-100671277D01*
X105152571Y-100655521D01*
X105120963Y-100636577D01*
X105091365Y-100614625D01*
X105064061Y-100589879D01*
X105039315Y-100562575D01*
X105017363Y-100532977D01*
X104998419Y-100501369D01*
X104982663Y-100468058D01*
X104970249Y-100433362D01*
X104961295Y-100397616D01*
X104955888Y-100361165D01*
X104954080Y-100324360D01*
X104954080Y-99573360D01*
X104955888Y-99536555D01*
X104961295Y-99500104D01*
X104970249Y-99464358D01*
X104982663Y-99429662D01*
X104998419Y-99396351D01*
X105017363Y-99364743D01*
X105039315Y-99335145D01*
X105064061Y-99307841D01*
X105091365Y-99283095D01*
X105120963Y-99261143D01*
X105152571Y-99242199D01*
X105185882Y-99226443D01*
X105220578Y-99214029D01*
X105256324Y-99205075D01*
X105292775Y-99199668D01*
X105329580Y-99197860D01*
X109680580Y-99197860D01*
X109717385Y-99199668D01*
G37*
G36*
X109699605Y-94358428D02*
G01*
X109736056Y-94363835D01*
X109771802Y-94372789D01*
X109806498Y-94385203D01*
X109839809Y-94400959D01*
X109871417Y-94419903D01*
X109901015Y-94441855D01*
X109928319Y-94466601D01*
X109953065Y-94493905D01*
X109975017Y-94523503D01*
X109993961Y-94555111D01*
X110009717Y-94588422D01*
X110022131Y-94623118D01*
X110031085Y-94658864D01*
X110036492Y-94695315D01*
X110038300Y-94732120D01*
X110038300Y-95483120D01*
X110036492Y-95519925D01*
X110031085Y-95556376D01*
X110022131Y-95592122D01*
X110009717Y-95626818D01*
X109993961Y-95660129D01*
X109975017Y-95691737D01*
X109953065Y-95721335D01*
X109928319Y-95748639D01*
X109901015Y-95773385D01*
X109871417Y-95795337D01*
X109839809Y-95814281D01*
X109806498Y-95830037D01*
X109771802Y-95842451D01*
X109736056Y-95851405D01*
X109699605Y-95856812D01*
X109662800Y-95858620D01*
X105311800Y-95858620D01*
X105274995Y-95856812D01*
X105238544Y-95851405D01*
X105202798Y-95842451D01*
X105168102Y-95830037D01*
X105134791Y-95814281D01*
X105103183Y-95795337D01*
X105073585Y-95773385D01*
X105046281Y-95748639D01*
X105021535Y-95721335D01*
X104999583Y-95691737D01*
X104980639Y-95660129D01*
X104964883Y-95626818D01*
X104952469Y-95592122D01*
X104943515Y-95556376D01*
X104938108Y-95519925D01*
X104936300Y-95483120D01*
X104936300Y-94732120D01*
X104938108Y-94695315D01*
X104943515Y-94658864D01*
X104952469Y-94623118D01*
X104964883Y-94588422D01*
X104980639Y-94555111D01*
X104999583Y-94523503D01*
X105021535Y-94493905D01*
X105046281Y-94466601D01*
X105073585Y-94441855D01*
X105103183Y-94419903D01*
X105134791Y-94400959D01*
X105168102Y-94385203D01*
X105202798Y-94372789D01*
X105238544Y-94363835D01*
X105274995Y-94358428D01*
X105311800Y-94356620D01*
X109662800Y-94356620D01*
X109699605Y-94358428D01*
G37*
G36*
X109717385Y-96779048D02*
G01*
X109753836Y-96784455D01*
X109789582Y-96793409D01*
X109824278Y-96805823D01*
X109857589Y-96821579D01*
X109889197Y-96840523D01*
X109918795Y-96862475D01*
X109946099Y-96887221D01*
X109970845Y-96914525D01*
X109992797Y-96944123D01*
X110011741Y-96975731D01*
X110027497Y-97009042D01*
X110039911Y-97043738D01*
X110048865Y-97079484D01*
X110054272Y-97115935D01*
X110056080Y-97152740D01*
X110056080Y-97903740D01*
X110054272Y-97940545D01*
X110048865Y-97976996D01*
X110039911Y-98012742D01*
X110027497Y-98047438D01*
X110011741Y-98080749D01*
X109992797Y-98112357D01*
X109970845Y-98141955D01*
X109946099Y-98169259D01*
X109918795Y-98194005D01*
X109889197Y-98215957D01*
X109857589Y-98234901D01*
X109824278Y-98250657D01*
X109789582Y-98263071D01*
X109753836Y-98272025D01*
X109717385Y-98277432D01*
X109680580Y-98279240D01*
X105329580Y-98279240D01*
X105292775Y-98277432D01*
X105256324Y-98272025D01*
X105220578Y-98263071D01*
X105185882Y-98250657D01*
X105152571Y-98234901D01*
X105120963Y-98215957D01*
X105091365Y-98194005D01*
X105064061Y-98169259D01*
X105039315Y-98141955D01*
X105017363Y-98112357D01*
X104998419Y-98080749D01*
X104982663Y-98047438D01*
X104970249Y-98012742D01*
X104961295Y-97976996D01*
X104955888Y-97940545D01*
X104954080Y-97903740D01*
X104954080Y-97152740D01*
X104955888Y-97115935D01*
X104961295Y-97079484D01*
X104970249Y-97043738D01*
X104982663Y-97009042D01*
X104998419Y-96975731D01*
X105017363Y-96944123D01*
X105039315Y-96914525D01*
X105064061Y-96887221D01*
X105091365Y-96862475D01*
X105120963Y-96840523D01*
X105152571Y-96821579D01*
X105185882Y-96805823D01*
X105220578Y-96793409D01*
X105256324Y-96784455D01*
X105292775Y-96779048D01*
X105329580Y-96777240D01*
X109680580Y-96777240D01*
X109717385Y-96779048D01*
G37*
D16*
X109000000Y-100180000D03*
X109000000Y-97640000D03*
D17*
X109000000Y-95100000D03*
D18*
X124300000Y-102300000D03*
D19*
X129300000Y-102300000D03*
D18*
X124300000Y-93200000D03*
D19*
X129300000Y-93200000D03*
D20*
X141663999Y-96430000D03*
X134043999Y-101510000D03*
X141663999Y-93890000D03*
X134043999Y-98970000D03*
X120000000Y-96530000D03*
X112380000Y-101610000D03*
X120000000Y-93990000D03*
X112380000Y-99070000D03*
M02*
