G04 #@! TF.GenerationSoftware,KiCad,Pcbnew,5.1.5+dfsg1-2build2*
G04 #@! TF.CreationDate,2022-12-10T10:35:03-05:00*
G04 #@! TF.ProjectId,double-tuned-bpf,646f7562-6c65-42d7-9475-6e65642d6270,rev?*
G04 #@! TF.SameCoordinates,Original*
G04 #@! TF.FileFunction,Soldermask,Bot*
G04 #@! TF.FilePolarity,Negative*
%FSLAX46Y46*%
G04 Gerber Fmt 4.6, Leading zero omitted, Abs format (unit mm)*
G04 Created by KiCad (PCBNEW 5.1.5+dfsg1-2build2) date 2022-12-10 10:35:03*
%MOMM*%
%LPD*%
G04 APERTURE LIST*
%ADD10C,0.100000*%
G04 APERTURE END LIST*
D10*
G36*
X129472800Y-100935901D02*
G01*
X129700081Y-100981109D01*
X129949696Y-101084503D01*
X130174344Y-101234608D01*
X130365392Y-101425656D01*
X130515497Y-101650304D01*
X130618891Y-101899919D01*
X130671600Y-102164909D01*
X130671600Y-102435091D01*
X130618891Y-102700081D01*
X130515497Y-102949696D01*
X130365392Y-103174344D01*
X130174344Y-103365392D01*
X129949696Y-103515497D01*
X129700081Y-103618891D01*
X129472800Y-103664099D01*
X129435092Y-103671600D01*
X129164908Y-103671600D01*
X129127200Y-103664099D01*
X128899919Y-103618891D01*
X128650304Y-103515497D01*
X128425656Y-103365392D01*
X128234608Y-103174344D01*
X128084503Y-102949696D01*
X127981109Y-102700081D01*
X127928400Y-102435091D01*
X127928400Y-102164909D01*
X127981109Y-101899919D01*
X128084503Y-101650304D01*
X128234608Y-101425656D01*
X128425656Y-101234608D01*
X128650304Y-101084503D01*
X128899919Y-100981109D01*
X129127200Y-100935901D01*
X129164908Y-100928400D01*
X129435092Y-100928400D01*
X129472800Y-100935901D01*
G37*
G36*
X125671600Y-103671600D02*
G01*
X122928400Y-103671600D01*
X122928400Y-100928400D01*
X125671600Y-100928400D01*
X125671600Y-103671600D01*
G37*
G36*
X112668947Y-100657468D02*
G01*
X112849225Y-100732142D01*
X113011471Y-100840551D01*
X113149449Y-100978529D01*
X113257858Y-101140775D01*
X113332532Y-101321053D01*
X113370600Y-101512434D01*
X113370600Y-101707566D01*
X113332532Y-101898947D01*
X113257858Y-102079225D01*
X113149449Y-102241471D01*
X113011471Y-102379449D01*
X112849225Y-102487858D01*
X112668947Y-102562532D01*
X112573256Y-102581566D01*
X112477567Y-102600600D01*
X112282433Y-102600600D01*
X112091053Y-102562532D01*
X111910775Y-102487858D01*
X111748529Y-102379449D01*
X111610551Y-102241471D01*
X111502142Y-102079225D01*
X111427468Y-101898947D01*
X111389400Y-101707566D01*
X111389400Y-101512434D01*
X111427468Y-101321053D01*
X111502142Y-101140775D01*
X111610551Y-100978529D01*
X111748529Y-100840551D01*
X111910775Y-100732142D01*
X112091053Y-100657468D01*
X112282433Y-100619400D01*
X112477567Y-100619400D01*
X112668947Y-100657468D01*
G37*
G36*
X134237255Y-100538434D02*
G01*
X134332946Y-100557468D01*
X134513224Y-100632142D01*
X134675470Y-100740551D01*
X134813448Y-100878529D01*
X134921857Y-101040775D01*
X134963279Y-101140775D01*
X134996531Y-101221054D01*
X135034599Y-101412433D01*
X135034599Y-101607567D01*
X135015565Y-101703256D01*
X134996531Y-101798947D01*
X134921857Y-101979225D01*
X134813448Y-102141471D01*
X134675470Y-102279449D01*
X134513224Y-102387858D01*
X134332946Y-102462532D01*
X134141566Y-102500600D01*
X133946432Y-102500600D01*
X133755052Y-102462532D01*
X133574774Y-102387858D01*
X133412528Y-102279449D01*
X133274550Y-102141471D01*
X133166141Y-101979225D01*
X133091467Y-101798947D01*
X133053399Y-101607567D01*
X133053399Y-101412433D01*
X133091467Y-101221054D01*
X133124720Y-101140775D01*
X133166141Y-101040775D01*
X133274550Y-100878529D01*
X133412528Y-100740551D01*
X133574774Y-100632142D01*
X133755052Y-100557468D01*
X133850743Y-100538434D01*
X133946432Y-100519400D01*
X134141566Y-100519400D01*
X134237255Y-100538434D01*
G37*
G36*
X109094508Y-99280147D02*
G01*
X109262812Y-99313624D01*
X109426784Y-99381544D01*
X109574354Y-99480147D01*
X109699853Y-99605646D01*
X109798456Y-99753216D01*
X109866376Y-99917188D01*
X109901000Y-100091259D01*
X109901000Y-100268741D01*
X109866376Y-100442812D01*
X109798456Y-100606784D01*
X109699853Y-100754354D01*
X109574354Y-100879853D01*
X109426784Y-100978456D01*
X109262812Y-101046376D01*
X109113512Y-101076073D01*
X109088742Y-101081000D01*
X108911258Y-101081000D01*
X108886488Y-101076073D01*
X108737188Y-101046376D01*
X108573216Y-100978456D01*
X108425646Y-100879853D01*
X108300147Y-100754354D01*
X108201544Y-100606784D01*
X108133624Y-100442812D01*
X108099000Y-100268741D01*
X108099000Y-100091259D01*
X108133624Y-99917188D01*
X108201544Y-99753216D01*
X108300147Y-99605646D01*
X108425646Y-99480147D01*
X108573216Y-99381544D01*
X108737188Y-99313624D01*
X108905492Y-99280147D01*
X108911258Y-99279000D01*
X109088742Y-99279000D01*
X109094508Y-99280147D01*
G37*
G36*
X145613512Y-99083927D02*
G01*
X145762812Y-99113624D01*
X145926784Y-99181544D01*
X146074354Y-99280147D01*
X146199853Y-99405646D01*
X146298456Y-99553216D01*
X146366376Y-99717188D01*
X146401000Y-99891259D01*
X146401000Y-100068741D01*
X146366376Y-100242812D01*
X146298456Y-100406784D01*
X146199853Y-100554354D01*
X146074354Y-100679853D01*
X145926784Y-100778456D01*
X145762812Y-100846376D01*
X145613512Y-100876073D01*
X145588742Y-100881000D01*
X145411258Y-100881000D01*
X145386488Y-100876073D01*
X145237188Y-100846376D01*
X145073216Y-100778456D01*
X144925646Y-100679853D01*
X144800147Y-100554354D01*
X144701544Y-100406784D01*
X144633624Y-100242812D01*
X144599000Y-100068741D01*
X144599000Y-99891259D01*
X144633624Y-99717188D01*
X144701544Y-99553216D01*
X144800147Y-99405646D01*
X144925646Y-99280147D01*
X145073216Y-99181544D01*
X145237188Y-99113624D01*
X145386488Y-99083927D01*
X145411258Y-99079000D01*
X145588742Y-99079000D01*
X145613512Y-99083927D01*
G37*
G36*
X112668947Y-98117468D02*
G01*
X112849225Y-98192142D01*
X113011471Y-98300551D01*
X113149449Y-98438529D01*
X113257858Y-98600775D01*
X113332532Y-98781053D01*
X113370600Y-98972434D01*
X113370600Y-99167566D01*
X113332532Y-99358947D01*
X113257858Y-99539225D01*
X113149449Y-99701471D01*
X113011471Y-99839449D01*
X112849225Y-99947858D01*
X112668947Y-100022532D01*
X112477567Y-100060600D01*
X112282433Y-100060600D01*
X112091053Y-100022532D01*
X111910775Y-99947858D01*
X111748529Y-99839449D01*
X111610551Y-99701471D01*
X111502142Y-99539225D01*
X111427468Y-99358947D01*
X111389400Y-99167566D01*
X111389400Y-98972434D01*
X111427468Y-98781053D01*
X111502142Y-98600775D01*
X111610551Y-98438529D01*
X111748529Y-98300551D01*
X111910775Y-98192142D01*
X112091053Y-98117468D01*
X112282433Y-98079400D01*
X112477567Y-98079400D01*
X112668947Y-98117468D01*
G37*
G36*
X126018604Y-98178347D02*
G01*
X126055144Y-98189432D01*
X126088821Y-98207433D01*
X126118341Y-98231659D01*
X126142567Y-98261179D01*
X126160568Y-98294856D01*
X126171653Y-98331396D01*
X126176000Y-98375538D01*
X126176000Y-99824462D01*
X126171653Y-99868604D01*
X126160568Y-99905144D01*
X126142567Y-99938821D01*
X126118341Y-99968341D01*
X126088821Y-99992567D01*
X126055144Y-100010568D01*
X126018604Y-100021653D01*
X125974462Y-100026000D01*
X125025538Y-100026000D01*
X124981396Y-100021653D01*
X124944856Y-100010568D01*
X124911179Y-99992567D01*
X124881659Y-99968341D01*
X124857433Y-99938821D01*
X124839432Y-99905144D01*
X124828347Y-99868604D01*
X124824000Y-99824462D01*
X124824000Y-98375538D01*
X124828347Y-98331396D01*
X124839432Y-98294856D01*
X124857433Y-98261179D01*
X124881659Y-98231659D01*
X124911179Y-98207433D01*
X124944856Y-98189432D01*
X124981396Y-98178347D01*
X125025538Y-98174000D01*
X125974462Y-98174000D01*
X126018604Y-98178347D01*
G37*
G36*
X128818604Y-98178347D02*
G01*
X128855144Y-98189432D01*
X128888821Y-98207433D01*
X128918341Y-98231659D01*
X128942567Y-98261179D01*
X128960568Y-98294856D01*
X128971653Y-98331396D01*
X128976000Y-98375538D01*
X128976000Y-99824462D01*
X128971653Y-99868604D01*
X128960568Y-99905144D01*
X128942567Y-99938821D01*
X128918341Y-99968341D01*
X128888821Y-99992567D01*
X128855144Y-100010568D01*
X128818604Y-100021653D01*
X128774462Y-100026000D01*
X127825538Y-100026000D01*
X127781396Y-100021653D01*
X127744856Y-100010568D01*
X127711179Y-99992567D01*
X127681659Y-99968341D01*
X127657433Y-99938821D01*
X127639432Y-99905144D01*
X127628347Y-99868604D01*
X127624000Y-99824462D01*
X127624000Y-98375538D01*
X127628347Y-98331396D01*
X127639432Y-98294856D01*
X127657433Y-98261179D01*
X127681659Y-98231659D01*
X127711179Y-98207433D01*
X127744856Y-98189432D01*
X127781396Y-98178347D01*
X127825538Y-98174000D01*
X128774462Y-98174000D01*
X128818604Y-98178347D01*
G37*
G36*
X134237255Y-97998434D02*
G01*
X134332946Y-98017468D01*
X134513224Y-98092142D01*
X134675470Y-98200551D01*
X134813448Y-98338529D01*
X134921857Y-98500775D01*
X134921858Y-98500777D01*
X134937869Y-98539432D01*
X134996531Y-98681053D01*
X135034599Y-98872434D01*
X135034599Y-99067566D01*
X134996531Y-99258947D01*
X134921857Y-99439225D01*
X134813448Y-99601471D01*
X134675470Y-99739449D01*
X134513224Y-99847858D01*
X134332946Y-99922532D01*
X134237255Y-99941566D01*
X134141566Y-99960600D01*
X133946432Y-99960600D01*
X133755052Y-99922532D01*
X133574774Y-99847858D01*
X133412528Y-99739449D01*
X133274550Y-99601471D01*
X133166141Y-99439225D01*
X133091467Y-99258947D01*
X133053399Y-99067566D01*
X133053399Y-98872434D01*
X133091467Y-98681053D01*
X133150129Y-98539432D01*
X133166140Y-98500777D01*
X133166141Y-98500775D01*
X133274550Y-98338529D01*
X133412528Y-98200551D01*
X133574774Y-98092142D01*
X133755052Y-98017468D01*
X133850743Y-97998434D01*
X133946432Y-97979400D01*
X134141566Y-97979400D01*
X134237255Y-97998434D01*
G37*
G36*
X123418604Y-98528347D02*
G01*
X123455144Y-98539432D01*
X123488821Y-98557433D01*
X123518341Y-98581659D01*
X123542567Y-98611179D01*
X123560568Y-98644856D01*
X123571653Y-98681396D01*
X123576000Y-98725538D01*
X123576000Y-99674462D01*
X123571653Y-99718604D01*
X123560568Y-99755144D01*
X123542567Y-99788821D01*
X123518341Y-99818341D01*
X123488821Y-99842567D01*
X123455144Y-99860568D01*
X123418604Y-99871653D01*
X123374462Y-99876000D01*
X121925538Y-99876000D01*
X121881396Y-99871653D01*
X121844856Y-99860568D01*
X121811179Y-99842567D01*
X121781659Y-99818341D01*
X121757433Y-99788821D01*
X121739432Y-99755144D01*
X121728347Y-99718604D01*
X121724000Y-99674462D01*
X121724000Y-98725538D01*
X121728347Y-98681396D01*
X121739432Y-98644856D01*
X121757433Y-98611179D01*
X121781659Y-98581659D01*
X121811179Y-98557433D01*
X121844856Y-98539432D01*
X121881396Y-98528347D01*
X121925538Y-98524000D01*
X123374462Y-98524000D01*
X123418604Y-98528347D01*
G37*
G36*
X131968604Y-98528347D02*
G01*
X132005144Y-98539432D01*
X132038821Y-98557433D01*
X132068341Y-98581659D01*
X132092567Y-98611179D01*
X132110568Y-98644856D01*
X132121653Y-98681396D01*
X132126000Y-98725538D01*
X132126000Y-99674462D01*
X132121653Y-99718604D01*
X132110568Y-99755144D01*
X132092567Y-99788821D01*
X132068341Y-99818341D01*
X132038821Y-99842567D01*
X132005144Y-99860568D01*
X131968604Y-99871653D01*
X131924462Y-99876000D01*
X130475538Y-99876000D01*
X130431396Y-99871653D01*
X130394856Y-99860568D01*
X130361179Y-99842567D01*
X130331659Y-99818341D01*
X130307433Y-99788821D01*
X130289432Y-99755144D01*
X130278347Y-99718604D01*
X130274000Y-99674462D01*
X130274000Y-98725538D01*
X130278347Y-98681396D01*
X130289432Y-98644856D01*
X130307433Y-98611179D01*
X130331659Y-98581659D01*
X130361179Y-98557433D01*
X130394856Y-98539432D01*
X130431396Y-98528347D01*
X130475538Y-98524000D01*
X131924462Y-98524000D01*
X131968604Y-98528347D01*
G37*
G36*
X109094508Y-96740147D02*
G01*
X109262812Y-96773624D01*
X109426784Y-96841544D01*
X109574354Y-96940147D01*
X109699853Y-97065646D01*
X109798456Y-97213216D01*
X109866376Y-97377188D01*
X109901000Y-97551259D01*
X109901000Y-97728741D01*
X109866376Y-97902812D01*
X109798456Y-98066784D01*
X109699853Y-98214354D01*
X109574354Y-98339853D01*
X109426784Y-98438456D01*
X109262812Y-98506376D01*
X109113512Y-98536073D01*
X109088742Y-98541000D01*
X108911258Y-98541000D01*
X108886488Y-98536073D01*
X108737188Y-98506376D01*
X108573216Y-98438456D01*
X108425646Y-98339853D01*
X108300147Y-98214354D01*
X108201544Y-98066784D01*
X108133624Y-97902812D01*
X108099000Y-97728741D01*
X108099000Y-97551259D01*
X108133624Y-97377188D01*
X108201544Y-97213216D01*
X108300147Y-97065646D01*
X108425646Y-96940147D01*
X108573216Y-96841544D01*
X108737188Y-96773624D01*
X108905492Y-96740147D01*
X108911258Y-96739000D01*
X109088742Y-96739000D01*
X109094508Y-96740147D01*
G37*
G36*
X145613512Y-96543927D02*
G01*
X145762812Y-96573624D01*
X145926784Y-96641544D01*
X146074354Y-96740147D01*
X146199853Y-96865646D01*
X146298456Y-97013216D01*
X146366376Y-97177188D01*
X146401000Y-97351259D01*
X146401000Y-97528741D01*
X146366376Y-97702812D01*
X146298456Y-97866784D01*
X146199853Y-98014354D01*
X146074354Y-98139853D01*
X145926784Y-98238456D01*
X145762812Y-98306376D01*
X145613512Y-98336073D01*
X145588742Y-98341000D01*
X145411258Y-98341000D01*
X145386488Y-98336073D01*
X145237188Y-98306376D01*
X145073216Y-98238456D01*
X144925646Y-98139853D01*
X144800147Y-98014354D01*
X144701544Y-97866784D01*
X144633624Y-97702812D01*
X144599000Y-97528741D01*
X144599000Y-97351259D01*
X144633624Y-97177188D01*
X144701544Y-97013216D01*
X144800147Y-96865646D01*
X144925646Y-96740147D01*
X145073216Y-96641544D01*
X145237188Y-96573624D01*
X145386488Y-96543927D01*
X145411258Y-96539000D01*
X145588742Y-96539000D01*
X145613512Y-96543927D01*
G37*
G36*
X120188224Y-95557433D02*
G01*
X120288947Y-95577468D01*
X120469225Y-95652142D01*
X120631471Y-95760551D01*
X120769449Y-95898529D01*
X120877858Y-96060775D01*
X120952532Y-96241053D01*
X120990600Y-96432434D01*
X120990600Y-96627566D01*
X120952532Y-96818947D01*
X120877858Y-96999225D01*
X120769449Y-97161471D01*
X120631471Y-97299449D01*
X120469225Y-97407858D01*
X120288947Y-97482532D01*
X120193256Y-97501566D01*
X120097567Y-97520600D01*
X119902433Y-97520600D01*
X119711053Y-97482532D01*
X119530775Y-97407858D01*
X119368529Y-97299449D01*
X119230551Y-97161471D01*
X119122142Y-96999225D01*
X119047468Y-96818947D01*
X119009400Y-96627566D01*
X119009400Y-96432434D01*
X119047468Y-96241053D01*
X119122142Y-96060775D01*
X119230551Y-95898529D01*
X119368529Y-95760551D01*
X119530775Y-95652142D01*
X119711053Y-95577468D01*
X119811776Y-95557433D01*
X119902433Y-95539400D01*
X120097567Y-95539400D01*
X120188224Y-95557433D01*
G37*
G36*
X141857255Y-95458434D02*
G01*
X141952946Y-95477468D01*
X142133224Y-95552142D01*
X142295470Y-95660551D01*
X142433448Y-95798529D01*
X142541857Y-95960775D01*
X142616531Y-96141053D01*
X142654599Y-96332434D01*
X142654599Y-96527566D01*
X142616531Y-96718947D01*
X142541857Y-96899225D01*
X142433448Y-97061471D01*
X142295470Y-97199449D01*
X142133224Y-97307858D01*
X141952946Y-97382532D01*
X141761566Y-97420600D01*
X141566432Y-97420600D01*
X141375052Y-97382532D01*
X141194774Y-97307858D01*
X141032528Y-97199449D01*
X140894550Y-97061471D01*
X140786141Y-96899225D01*
X140711467Y-96718947D01*
X140673399Y-96527566D01*
X140673399Y-96332434D01*
X140711467Y-96141053D01*
X140786141Y-95960775D01*
X140894550Y-95798529D01*
X141032528Y-95660551D01*
X141194774Y-95552142D01*
X141375052Y-95477468D01*
X141470743Y-95458434D01*
X141566432Y-95439400D01*
X141761566Y-95439400D01*
X141857255Y-95458434D01*
G37*
G36*
X126018604Y-95528347D02*
G01*
X126055144Y-95539432D01*
X126088821Y-95557433D01*
X126118341Y-95581659D01*
X126142567Y-95611179D01*
X126160568Y-95644856D01*
X126171653Y-95681396D01*
X126176000Y-95725538D01*
X126176000Y-97174462D01*
X126171653Y-97218604D01*
X126160568Y-97255144D01*
X126142567Y-97288821D01*
X126118341Y-97318341D01*
X126088821Y-97342567D01*
X126055144Y-97360568D01*
X126018604Y-97371653D01*
X125974462Y-97376000D01*
X125025538Y-97376000D01*
X124981396Y-97371653D01*
X124944856Y-97360568D01*
X124911179Y-97342567D01*
X124881659Y-97318341D01*
X124857433Y-97288821D01*
X124839432Y-97255144D01*
X124828347Y-97218604D01*
X124824000Y-97174462D01*
X124824000Y-95725538D01*
X124828347Y-95681396D01*
X124839432Y-95644856D01*
X124857433Y-95611179D01*
X124881659Y-95581659D01*
X124911179Y-95557433D01*
X124944856Y-95539432D01*
X124981396Y-95528347D01*
X125025538Y-95524000D01*
X125974462Y-95524000D01*
X126018604Y-95528347D01*
G37*
G36*
X128818604Y-95528347D02*
G01*
X128855144Y-95539432D01*
X128888821Y-95557433D01*
X128918341Y-95581659D01*
X128942567Y-95611179D01*
X128960568Y-95644856D01*
X128971653Y-95681396D01*
X128976000Y-95725538D01*
X128976000Y-97174462D01*
X128971653Y-97218604D01*
X128960568Y-97255144D01*
X128942567Y-97288821D01*
X128918341Y-97318341D01*
X128888821Y-97342567D01*
X128855144Y-97360568D01*
X128818604Y-97371653D01*
X128774462Y-97376000D01*
X127825538Y-97376000D01*
X127781396Y-97371653D01*
X127744856Y-97360568D01*
X127711179Y-97342567D01*
X127681659Y-97318341D01*
X127657433Y-97288821D01*
X127639432Y-97255144D01*
X127628347Y-97218604D01*
X127624000Y-97174462D01*
X127624000Y-95725538D01*
X127628347Y-95681396D01*
X127639432Y-95644856D01*
X127657433Y-95611179D01*
X127681659Y-95581659D01*
X127711179Y-95557433D01*
X127744856Y-95539432D01*
X127781396Y-95528347D01*
X127825538Y-95524000D01*
X128774462Y-95524000D01*
X128818604Y-95528347D01*
G37*
G36*
X123418604Y-95728347D02*
G01*
X123455144Y-95739432D01*
X123488821Y-95757433D01*
X123518341Y-95781659D01*
X123542567Y-95811179D01*
X123560568Y-95844856D01*
X123571653Y-95881396D01*
X123576000Y-95925538D01*
X123576000Y-96874462D01*
X123571653Y-96918604D01*
X123560568Y-96955144D01*
X123542567Y-96988821D01*
X123518341Y-97018341D01*
X123488821Y-97042567D01*
X123455144Y-97060568D01*
X123418604Y-97071653D01*
X123374462Y-97076000D01*
X121925538Y-97076000D01*
X121881396Y-97071653D01*
X121844856Y-97060568D01*
X121811179Y-97042567D01*
X121781659Y-97018341D01*
X121757433Y-96988821D01*
X121739432Y-96955144D01*
X121728347Y-96918604D01*
X121724000Y-96874462D01*
X121724000Y-95925538D01*
X121728347Y-95881396D01*
X121739432Y-95844856D01*
X121757433Y-95811179D01*
X121781659Y-95781659D01*
X121811179Y-95757433D01*
X121844856Y-95739432D01*
X121881396Y-95728347D01*
X121925538Y-95724000D01*
X123374462Y-95724000D01*
X123418604Y-95728347D01*
G37*
G36*
X131968604Y-95728347D02*
G01*
X132005144Y-95739432D01*
X132038821Y-95757433D01*
X132068341Y-95781659D01*
X132092567Y-95811179D01*
X132110568Y-95844856D01*
X132121653Y-95881396D01*
X132126000Y-95925538D01*
X132126000Y-96874462D01*
X132121653Y-96918604D01*
X132110568Y-96955144D01*
X132092567Y-96988821D01*
X132068341Y-97018341D01*
X132038821Y-97042567D01*
X132005144Y-97060568D01*
X131968604Y-97071653D01*
X131924462Y-97076000D01*
X130475538Y-97076000D01*
X130431396Y-97071653D01*
X130394856Y-97060568D01*
X130361179Y-97042567D01*
X130331659Y-97018341D01*
X130307433Y-96988821D01*
X130289432Y-96955144D01*
X130278347Y-96918604D01*
X130274000Y-96874462D01*
X130274000Y-95925538D01*
X130278347Y-95881396D01*
X130289432Y-95844856D01*
X130307433Y-95811179D01*
X130331659Y-95781659D01*
X130361179Y-95757433D01*
X130394856Y-95739432D01*
X130431396Y-95728347D01*
X130475538Y-95724000D01*
X131924462Y-95724000D01*
X131968604Y-95728347D01*
G37*
G36*
X109901000Y-96001000D02*
G01*
X108099000Y-96001000D01*
X108099000Y-94199000D01*
X109901000Y-94199000D01*
X109901000Y-96001000D01*
G37*
G36*
X146401000Y-95801000D02*
G01*
X144599000Y-95801000D01*
X144599000Y-93999000D01*
X146401000Y-93999000D01*
X146401000Y-95801000D01*
G37*
G36*
X120288947Y-93037468D02*
G01*
X120469225Y-93112142D01*
X120631471Y-93220551D01*
X120769449Y-93358529D01*
X120877858Y-93520775D01*
X120877859Y-93520777D01*
X120952532Y-93701054D01*
X120982099Y-93849694D01*
X120990600Y-93892434D01*
X120990600Y-94087566D01*
X120952532Y-94278947D01*
X120877858Y-94459225D01*
X120769449Y-94621471D01*
X120631471Y-94759449D01*
X120469225Y-94867858D01*
X120288947Y-94942532D01*
X120097567Y-94980600D01*
X119902433Y-94980600D01*
X119711053Y-94942532D01*
X119530775Y-94867858D01*
X119368529Y-94759449D01*
X119230551Y-94621471D01*
X119122142Y-94459225D01*
X119047468Y-94278947D01*
X119009400Y-94087566D01*
X119009400Y-93892434D01*
X119017902Y-93849694D01*
X119047468Y-93701054D01*
X119122141Y-93520777D01*
X119122142Y-93520775D01*
X119230551Y-93358529D01*
X119368529Y-93220551D01*
X119530775Y-93112142D01*
X119711053Y-93037468D01*
X119902433Y-92999400D01*
X120097567Y-92999400D01*
X120288947Y-93037468D01*
G37*
G36*
X141857255Y-92918434D02*
G01*
X141952946Y-92937468D01*
X142133224Y-93012142D01*
X142295470Y-93120551D01*
X142433448Y-93258529D01*
X142541857Y-93420775D01*
X142616531Y-93601053D01*
X142654599Y-93792434D01*
X142654599Y-93987566D01*
X142616531Y-94178947D01*
X142541857Y-94359225D01*
X142433448Y-94521471D01*
X142295470Y-94659449D01*
X142133224Y-94767858D01*
X141952946Y-94842532D01*
X141857255Y-94861566D01*
X141761566Y-94880600D01*
X141566432Y-94880600D01*
X141470743Y-94861566D01*
X141375052Y-94842532D01*
X141194774Y-94767858D01*
X141032528Y-94659449D01*
X140894550Y-94521471D01*
X140786141Y-94359225D01*
X140711467Y-94178947D01*
X140673399Y-93987566D01*
X140673399Y-93792434D01*
X140711467Y-93601053D01*
X140786141Y-93420775D01*
X140894550Y-93258529D01*
X141032528Y-93120551D01*
X141194774Y-93012142D01*
X141375052Y-92937468D01*
X141470743Y-92918434D01*
X141566432Y-92899400D01*
X141761566Y-92899400D01*
X141857255Y-92918434D01*
G37*
G36*
X125671600Y-94571600D02*
G01*
X122928400Y-94571600D01*
X122928400Y-91828400D01*
X125671600Y-91828400D01*
X125671600Y-94571600D01*
G37*
G36*
X129472800Y-91835901D02*
G01*
X129700081Y-91881109D01*
X129949696Y-91984503D01*
X130174344Y-92134608D01*
X130365392Y-92325656D01*
X130515497Y-92550304D01*
X130618891Y-92799919D01*
X130671600Y-93064909D01*
X130671600Y-93335091D01*
X130618891Y-93600081D01*
X130515497Y-93849696D01*
X130365392Y-94074344D01*
X130174344Y-94265392D01*
X129949696Y-94415497D01*
X129700081Y-94518891D01*
X129472800Y-94564099D01*
X129435092Y-94571600D01*
X129164908Y-94571600D01*
X129127200Y-94564099D01*
X128899919Y-94518891D01*
X128650304Y-94415497D01*
X128425656Y-94265392D01*
X128234608Y-94074344D01*
X128084503Y-93849696D01*
X127981109Y-93600081D01*
X127928400Y-93335091D01*
X127928400Y-93064909D01*
X127981109Y-92799919D01*
X128084503Y-92550304D01*
X128234608Y-92325656D01*
X128425656Y-92134608D01*
X128650304Y-91984503D01*
X128899919Y-91881109D01*
X129127200Y-91835901D01*
X129164908Y-91828400D01*
X129435092Y-91828400D01*
X129472800Y-91835901D01*
G37*
M02*
